<?xml version="1.0" encoding="UTF-8" standalone="no"?>
<svg
   xmlns:dc="http://purl.org/dc/elements/1.1/"
   xmlns:cc="http://creativecommons.org/ns#"
   xmlns:rdf="http://www.w3.org/1999/02/22-rdf-syntax-ns#"
   xmlns:svg="http://www.w3.org/2000/svg"
   xmlns="http://www.w3.org/2000/svg"
   viewBox="0 0 360.31726 337.02247"
   height="337.02249"
   width="360.31726"
   xml:space="preserve"
   version="1.1"
   id="svg20373"><metadata
     id="metadata20379"><rdf:RDF><cc:Work
         rdf:about=""><dc:format>image/svg+xml</dc:format><dc:type
           rdf:resource="http://purl.org/dc/dcmitype/StillImage" /><dc:title></dc:title></cc:Work></rdf:RDF></metadata><defs
     id="defs20377"><clipPath
       id="clipPath20411"
       clipPathUnits="userSpaceOnUse"><path
         id="path20413"
         d="M 0,0 H 1190.551 V 841.89 H 0 Z" /></clipPath></defs><g
     transform="matrix(1.25,0,0,-1.25,-563.93563,804.33075)"
     id="g20381"><g
       transform="translate(537.5193,373.8466)"
       id="g20383"><path
         id="path20385"
         style="fill:#231f20;fill-opacity:1;fill-rule:nonzero;stroke:none"
         d="M 0,0 58.818,32.638 V 79.775 Z" /></g><g
       transform="translate(616.4935,512.8315)"
       id="g20387"><path
         id="path20389"
         style="fill:#231f20;fill-opacity:1;fill-rule:nonzero;stroke:none"
         d="m 0,0 v 44.801 l -165.345,-56.884 122.441,-40.264 v 30.046 z" /></g><g
       transform="translate(609.2463,601.0114)"
       id="g20391"><path
         id="path20393"
         style="fill:#231f20;fill-opacity:1;fill-rule:nonzero;stroke:none"
         d="M 0,0 0.003,29.747 -53.664,-9.118 -8.396,-35.587 v 28.872 h -0.253 z" /></g><g
       transform="translate(573.5891,490.699)"
       id="g20395"><path
         id="path20397"
         style="fill:#ed1c24;fill-opacity:1;fill-rule:nonzero;stroke:none"
         d="m 0,0 v -30.214 l 22.749,-6.863 v -47.137 l 116.575,64.23 z" /></g><g
       transform="translate(739.4023,571.9926)"
       id="g20399"><path
         id="path20401"
         style="fill:#ed1c24;fill-opacity:1;fill-rule:nonzero;stroke:none"
         d="M 0,0 -138.805,22.303 V -6.353 l 14.508,-8.007 v -45.478 z" /></g><g
       transform="translate(590.4862,643.4646)"
       id="g20403"><path
         id="path20405"
         style="fill:#ed1c24;fill-opacity:1;fill-rule:nonzero;stroke:none"
         d="m 0,0 18.416,-12.706 0.494,-29.897 36.249,26.907 z" /></g></g></svg>