<?xml version="1.0" encoding="UTF-8" standalone="no"?>
<svg
   xmlns:dc="http://purl.org/dc/elements/1.1/"
   xmlns:cc="http://creativecommons.org/ns#"
   xmlns:rdf="http://www.w3.org/1999/02/22-rdf-syntax-ns#"
   xmlns:svg="http://www.w3.org/2000/svg"
   xmlns="http://www.w3.org/2000/svg"
   id="svg4797"
   version="1.1"
   viewBox="0 0 31.629879 20.389061"
   height="20.389061mm"
   width="31.629879mm">
  <defs
     id="defs4791" />
  <metadata
     id="metadata4794">
    <rdf:RDF>
      <cc:Work
         rdf:about="">
        <dc:format>image/svg+xml</dc:format>
        <dc:type
           rdf:resource="http://purl.org/dc/dcmitype/StillImage" />
        <dc:title></dc:title>
      </cc:Work>
    </rdf:RDF>
  </metadata>
  <g
     transform="translate(-28.786251,-75.138803)"
     id="layer1">
    <path
       style="stroke-width:0.26458332"
       id="path2"
       d="m 36.694118,75.138803 c -0.985309,0 -1.761861,0.138906 -2.522802,0.452702 -1.44833,0.601133 -2.164557,1.5621 -2.164557,2.921265 0,0.961495 0.3429,1.645708 1.104371,2.246312 0.835819,0.665956 1.985433,0.980017 3.538008,0.980017 1.224492,0 2.388659,-0.184679 3.448315,-0.573088 v -3.069166 h -4.015581 l 0.268816,1.053835 h 1.582473 v 1.461029 c -0.343429,0.110596 -0.716491,0.156898 -1.179512,0.156898 -0.671777,0 -1.238779,-0.129381 -1.627188,-0.360627 -0.522023,-0.323321 -0.776023,-0.915458 -0.776023,-1.830123 0,-0.96176 0.178594,-1.655233 0.880534,-2.071158 0.358246,-0.212461 0.881327,-0.323586 1.493044,-0.323586 0.791104,0 1.493043,0.157427 2.16482,0.499269 l 1.104636,-0.804598 c -0.910961,-0.489479 -2.045494,-0.738981 -3.299354,-0.738981 z" />
    <polygon
       id="polygon4"
       points="61.217,6.95 73.686,6.95 74.587,3.002 53.317,3.002 53.317,27.216 61.217,27.216 61.217,16.49 71.203,16.49 71.203,12.507 61.217,12.507 "
       transform="matrix(0.26458333,0,0,0.26458333,28.746299,74.464645)" />
    <path
       style="stroke-width:0.26458332"
       id="path6"
       d="m 50.762807,76.313024 h 3.195109 c 0.626797,0 1.059391,-0.04657 1.059391,-0.04657 0,0 -0.357981,0.286543 -0.641614,0.582612 l -3.821907,3.910277 v 0.906198 h 6.478852 l 0.537369,-1.053835 h -3.493294 c -0.417512,0 -1.030287,0.03678 -1.030287,0.03678 0,0 0.313796,-0.221721 0.537898,-0.452967 l 3.851804,-4.021402 v -0.93345 h -6.210565 z" />
    <path
       id="path8"
       d="M 60.41613,88.579372 C 50.747461,86.21823 38.394595,86.25633 28.786251,88.64393 36.854455,84.72889 52.230716,84.691584 60.41613,88.579372 Z"
       style="fill:#005b9d;stroke-width:0.26458332" />
    <path
       style="stroke-width:0.26458332"
       id="path10"
       d="m 32.003849,93.15243 v 2.335213 h 0.756708 v -0.858044 h 0.416454 c 0.416719,0 0.578909,-0.02646 0.751682,-0.07673 0.410898,-0.120121 0.648758,-0.37465 0.648758,-0.68289 0,-0.268287 -0.189177,-0.4826 -0.540279,-0.602721 -0.210873,-0.07382 -0.405606,-0.114829 -1.043781,-0.114829 z m 0.756708,0.379148 h 0.481277 c 0.162454,0 0.2921,0.03334 0.378619,0.09657 0.08652,0.06006 0.12991,0.144462 0.12991,0.251089 0,0.110861 -0.02672,0.185209 -0.09208,0.24818 -0.102129,0.09657 -0.194468,0.120385 -0.502708,0.120385 h -0.394758 v -0.716227 z" />
    <path
       style="stroke-width:0.26458332"
       id="path12"
       d="m 38.387186,94.570068 c 0,-0.599811 -0.578908,-0.901436 -1.400175,-0.901436 -0.8763,0 -1.416843,0.342106 -1.416843,0.931598 0,0.535781 0.519112,0.913871 1.443302,0.913871 0.9144,0 1.373716,-0.381265 1.373716,-0.944033 z m -0.827087,0 c 0,0.475456 -0.205317,0.629179 -0.583936,0.629179 -0.405606,0 -0.600339,-0.134144 -0.600339,-0.586317 0,-0.407987 0.173037,-0.626004 0.600339,-0.626004 0.448734,0 0.583936,0.218017 0.583936,0.583142 z" />
    <path
       style="stroke-width:0.26458332"
       id="path14"
       d="m 41.834443,93.69218 h -2.357438 v 0.355071 h 0.751681 v 1.440392 h 0.740834 v -1.440392 h 0.724693 c 0,0 0.14605,-0.355071 0.14023,-0.355071 z" />
    <path
       style="stroke-width:0.26458332"
       id="path16"
       d="m 45.285138,94.898151 c 0,-0.275167 -0.313266,-0.448733 -0.821531,-0.523081 l -0.389466,-0.05662 c -0.243153,-0.0336 -0.302948,-0.07382 -0.302948,-0.160338 0,-0.101071 0.162189,-0.164041 0.389202,-0.164041 0.227277,0 0.481541,0.04313 0.756973,0.133614 l 0.340783,-0.311945 c -0.27014,-0.110066 -0.719138,-0.183885 -1.113896,-0.183885 -0.696912,0 -1.178719,0.240506 -1.178719,0.573088 0,0.100012 0.03784,0.190764 0.118798,0.278077 0.108215,0.12012 0.319352,0.203993 0.633148,0.253735 l 0.367771,0.05398 c 0.264583,0.03334 0.378354,0.103717 0.378354,0.200819 0,0.124619 -0.173302,0.177271 -0.514085,0.177271 -0.318823,0 -0.561975,-0.05265 -0.865188,-0.13335 l -0.237596,0.341577 c 0.351632,0.103716 0.713582,0.150812 1.065213,0.150812 0.827087,0 1.373187,-0.24765 1.373187,-0.629708 z" />
    <path
       style="stroke-width:0.26458332"
       id="path18"
       d="m 49.119745,94.607109 c 0,-0.542396 -0.432859,-0.848254 -1.141148,-0.89826 -0.124354,-0.01032 -0.405606,-0.01032 -0.595048,-0.01032 h -0.638175 v 1.789113 h 0.751946 c 0.221456,0 0.368035,0 0.492125,-0.01005 0.648758,-0.05027 1.1303,-0.348191 1.1303,-0.870479 z m -0.806186,0.03651 c 0,0.388673 -0.227012,0.495564 -0.486304,0.495564 h -0.34581 v -1.111514 h 0.264848 c 0.448998,-2.65e-4 0.567266,0.223573 0.567266,0.61595 z" />
    <path
       style="stroke-width:0.26458332"
       id="path20"
       d="M 52.976047,95.487643 51.97063,93.682655 h -0.7366 l -1.070239,1.804988 h 0.762793 l 0.205317,-0.38153 h 0.859102 l 0.221985,0.38153 z m -1.14644,-0.713317 h -0.524669 c 0.08652,-0.191029 0.211403,-0.48604 0.270669,-0.667015 0.05397,0.180975 0.171979,0.479161 0.254,0.667015 z" />
    <path
       style="stroke-width:0.26458332"
       id="path22"
       d="M 57.464703,95.487643 57.168105,93.69218 h -0.908579 l -0.384175,0.814123 c -0.04815,0.104246 -0.08625,0.211137 -0.12409,0.321204 -0.03307,-0.113506 -0.06535,-0.187589 -0.119327,-0.304271 L 55.264428,93.69218 h -0.903287 l -0.313003,1.795463 h 0.729192 l 0.09208,-0.858044 c 0.01693,-0.109538 0.02725,-0.237331 0.03254,-0.361156 0.04339,0.143933 0.102658,0.281781 0.141023,0.361156 l 0.388937,0.854869 h 0.616744 l 0.432329,-0.881328 c 0.04895,-0.09366 0.10795,-0.191029 0.14605,-0.294481 0.01085,0.12409 0.02196,0.211402 0.03254,0.304271 l 0.09737,0.874713 z" />
    <path
       style="stroke-width:0.26458332"
       id="path24"
       d="m 33.199236,92.041445 v -0.988219 h -0.931598 v 0.988219 h -0.257704 v -2.043377 h 0.257704 v 0.854339 h 0.931598 v -0.854339 h 0.264055 v 2.043377 z m 1.77218,-0.879211 c -0.0018,-0.08123 -0.009,-0.148166 -0.0209,-0.199231 -0.01138,-0.05186 -0.02963,-0.09498 -0.05318,-0.131498 -0.02778,-0.03942 -0.06747,-0.07091 -0.119063,-0.09525 -0.05133,-0.02302 -0.108214,-0.03545 -0.170921,-0.03545 -0.234156,0 -0.357716,0.153458 -0.370416,0.461433 z m -0.734219,0.175684 v 0.03625 c 0,0.07012 0.005,0.131234 0.01561,0.18415 0.01085,0.05345 0.03016,0.100278 0.05847,0.140494 0.04498,0.06324 0.102658,0.109802 0.172508,0.138377 0.06932,0.02858 0.145521,0.04286 0.227013,0.04286 0.152664,0 0.283368,-0.04683 0.39317,-0.139965 l 0.09631,0.148961 c -0.07091,0.05927 -0.152929,0.105039 -0.246591,0.136525 -0.0934,0.03228 -0.191559,0.04789 -0.294746,0.04789 -0.223309,0 -0.397934,-0.07011 -0.523611,-0.20955 -0.125941,-0.139964 -0.188383,-0.333639 -0.188383,-0.579173 0,-0.125412 0.01508,-0.230981 0.04498,-0.316971 0.03016,-0.08652 0.07964,-0.16801 0.148431,-0.243416 0.126736,-0.137054 0.286544,-0.205581 0.480219,-0.205581 0.178065,0 0.323321,0.05397 0.43471,0.161131 0.0344,0.03387 0.06377,0.06826 0.08784,0.104246 0.02328,0.03598 0.04207,0.07779 0.05583,0.125677 0.01402,0.04789 0.02434,0.102393 0.03069,0.166158 0.0066,0.06376 0.0095,0.140494 0.0095,0.229658 v 0.03254 h -1.001981 z m 1.881716,0.699822 c -0.03228,0.01429 -0.05847,0.02302 -0.07885,0.02672 -0.02037,0.0042 -0.04789,0.0063 -0.08228,0.0063 -0.07964,0 -0.143404,-0.02037 -0.190235,-0.06244 -0.02567,-0.02196 -0.04551,-0.04868 -0.05821,-0.08176 -0.01297,-0.03254 -0.01958,-0.0762 -0.01958,-0.12991 v -1.572154 c 0,-0.09684 -0.0063,-0.172244 -0.01931,-0.224896 -0.01244,-0.05292 -0.01931,-0.07858 -0.01931,-0.07858 l 0.251354,-0.04498 c 0,0 0.0069,0.03043 0.0209,0.09022 0.01376,0.06085 0.02117,0.147637 0.02117,0.260614 v 1.516063 c 0,0.05794 0.0058,0.0971 0.01746,0.117475 0.01191,0.0209 0.03598,0.03201 0.0725,0.03201 0.0042,0 0.01111,-0.0011 0.01958,-0.0034 0.0085,-0.0019 0.0127,-0.0032 0.0127,-0.0032 z m 2.152915,0.0037 v -1.095905 c 0,-0.145785 -0.06906,-0.218281 -0.206375,-0.218281 -0.07276,0 -0.141552,0.02064 -0.204523,0.06085 -0.06377,0.04075 -0.137054,0.09816 -0.220927,0.169334 v 1.083998 h -0.254529 v -1.05463 c 0,-0.04577 -0.0032,-0.08308 -0.01005,-0.112977 -0.0063,-0.0299 -0.01799,-0.05583 -0.03519,-0.07726 -0.03651,-0.03995 -0.09181,-0.06032 -0.164306,-0.06032 -0.06244,0 -0.125413,0.01561 -0.188648,0.04657 -0.06323,0.03069 -0.137055,0.0807 -0.220663,0.150283 v 1.108075 h -0.241565 v -1.149879 c 0,-0.107421 -0.0098,-0.186796 -0.02884,-0.23839 -0.01931,-0.05186 -0.0291,-0.07726 -0.0291,-0.07726 l 0.245004,-0.05345 c 0.0021,0.0019 0.0071,0.01296 0.01614,0.03254 0.0085,0.01958 0.01746,0.04789 0.02752,0.08387 0.0098,0.03572 0.01482,0.07064 0.01482,0.103981 0.0254,-0.02778 0.05689,-0.05503 0.0934,-0.08202 0.03651,-0.02699 0.07567,-0.0508 0.11721,-0.0717 0.0418,-0.02117 0.0852,-0.03731 0.129382,-0.05001 0.04392,-0.01376 0.08599,-0.02037 0.127,-0.02037 0.07937,0 0.154252,0.0217 0.224102,0.06429 0.07012,0.04313 0.12012,0.10451 0.149754,0.182827 0.07726,-0.07435 0.162189,-0.134938 0.254794,-0.179917 0.09234,-0.04445 0.179122,-0.06747 0.260879,-0.06747 0.120385,0 0.217752,0.03784 0.291571,0.112448 0.07435,0.07435 0.111389,0.170921 0.111389,0.290513 v 1.119716 h -0.258234 z m 1.804988,0 v -1.024467 c 0,-0.05556 -0.0042,-0.101071 -0.01297,-0.135731 -0.0087,-0.03493 -0.02461,-0.06324 -0.04842,-0.08467 -0.01931,-0.01799 -0.04524,-0.03228 -0.07726,-0.04418 -0.03254,-0.01058 -0.06932,-0.01614 -0.109538,-0.01614 -0.07752,0 -0.157691,0.02196 -0.240241,0.06588 -0.08255,0.04366 -0.158486,0.10504 -0.227277,0.184415 v 1.054629 h -0.251355 v -1.828535 c 0,-0.09737 -0.0069,-0.171979 -0.02117,-0.225955 -0.01349,-0.05159 -0.0209,-0.07858 -0.0209,-0.07858 l 0.251618,-0.04392 c 0,0 0.0066,0.0299 0.02064,0.09049 0.01402,0.06059 0.0209,0.147637 0.0209,0.260879 v 0.345546 c 0,0.04763 -0.0013,0.0934 -0.0048,0.137054 -0.0032,0.04339 -0.0045,0.06535 -0.0045,0.06535 0.07276,-0.06271 0.154516,-0.118798 0.244475,-0.1651 0.09049,-0.0463 0.187325,-0.07064 0.290248,-0.07064 0.09684,0 0.18415,0.02222 0.261143,0.06562 0.07726,0.04445 0.127529,0.100542 0.151342,0.170127 0.01111,0.0291 0.01773,0.0598 0.02117,0.0889 0.0032,0.03043 0.0048,0.0717 0.0048,0.125677 v 1.063625 h -0.247914 z m 1.811072,-0.700617 c 0,-0.204258 -0.02487,-0.352954 -0.07435,-0.446617 -0.0344,-0.06588 -0.08308,-0.113506 -0.14658,-0.144991 -0.0635,-0.02963 -0.128587,-0.04604 -0.194733,-0.04604 -0.07144,0 -0.136525,0.01535 -0.19685,0.04313 -0.06033,0.0291 -0.104246,0.06826 -0.132292,0.118004 -0.02566,0.04524 -0.04498,0.09975 -0.05794,0.161132 -0.01297,0.06138 -0.01958,0.136525 -0.01958,0.225954 0,0.105569 0.0093,0.201348 0.02752,0.287602 0.01852,0.08652 0.04233,0.152135 0.0725,0.197379 0.03016,0.0463 0.07461,0.08255 0.133879,0.109273 0.05927,0.02752 0.123031,0.04022 0.192088,0.04022 0.08334,0 0.15531,-0.01879 0.215635,-0.05794 0.06006,-0.03889 0.103717,-0.09419 0.132027,-0.165365 0.01693,-0.04604 0.02937,-0.09313 0.03678,-0.139435 0.0082,-0.04736 0.01191,-0.108215 0.01191,-0.182298 z m 0.286809,-0.0172 c 0,0.123031 -0.01693,0.23151 -0.05159,0.325967 -0.03413,0.09393 -0.08229,0.173037 -0.14314,0.236802 -0.06138,0.0635 -0.134143,0.112183 -0.217752,0.144198 -0.08387,0.03254 -0.175948,0.04948 -0.277018,0.04948 -0.221192,0 -0.391848,-0.07064 -0.512498,-0.211402 -0.120121,-0.141023 -0.180446,-0.334169 -0.180446,-0.578115 0,-0.241829 0.06059,-0.432594 0.182033,-0.570177 0.121179,-0.137848 0.288396,-0.206639 0.500857,-0.206639 0.135466,0 0.24712,0.02487 0.335227,0.07382 0.08811,0.05027 0.160073,0.111919 0.216164,0.184944 0.04921,0.06747 0.08652,0.146315 0.111125,0.235479 0.02487,0.0889 0.03704,0.194469 0.03704,0.315648 z m 0.880004,0.71411 c -0.03228,0.01429 -0.05874,0.02302 -0.07937,0.02672 -0.02011,0.0042 -0.04763,0.0063 -0.08202,0.0063 -0.07938,0 -0.142875,-0.02037 -0.190235,-0.06244 -0.02567,-0.02196 -0.04472,-0.04868 -0.05768,-0.08176 -0.0127,-0.03254 -0.01932,-0.0762 -0.01932,-0.12991 v -1.572154 c 0,-0.09684 -0.0063,-0.172244 -0.01931,-0.224896 -0.0127,-0.05292 -0.01931,-0.07858 -0.01931,-0.07858 l 0.251354,-0.04498 c 0,0 0.0069,0.03043 0.02117,0.09022 0.01402,0.06085 0.0209,0.147637 0.0209,0.260614 v 1.516063 c 0,0.05794 0.0058,0.0971 0.01773,0.117475 0.01164,0.0209 0.03572,0.03201 0.0725,0.03201 0.004,0 0.01085,-0.0011 0.01931,-0.0034 0.0087,-0.0019 0.01297,-0.0032 0.01297,-0.0032 z m 0.989542,-1.304395 h -0.335227 v 0.956733 c 0,0.08282 0.01429,0.140758 0.04313,0.172508 0.0291,0.03122 0.08308,0.04789 0.163248,0.04789 0.03678,0 0.06588,-0.0034 0.08837,-0.0077 0.02249,-0.0053 0.04577,-0.01243 0.06906,-0.02249 l 0.03572,0.148432 c -0.08202,0.03969 -0.176477,0.06006 -0.283898,0.06006 -0.04313,0 -0.08123,-0.0034 -0.114564,-0.01005 -0.03334,-0.0074 -0.06509,-0.01773 -0.09499,-0.03175 -0.05556,-0.02593 -0.09578,-0.06244 -0.119327,-0.109008 -0.02328,-0.04842 -0.03519,-0.109803 -0.03519,-0.184944 v -1.01944 h -0.209286 v -0.175683 h 0.209286 c 0,-0.03545 0.0011,-0.07541 0.0037,-0.118798 0.0016,-0.04445 0.0045,-0.0844 0.0074,-0.122767 0.0034,-0.03783 0.0066,-0.06879 0.01005,-0.09446 0.0032,-0.02593 0.005,-0.03863 0.005,-0.03863 l 0.264318,-0.05371 c 0,0 -0.0019,0.01296 -0.0048,0.03889 -0.0032,0.0254 -0.0071,0.059 -0.01138,0.1016 -0.0045,0.04101 -0.0082,0.08731 -0.01111,0.137848 -0.0026,0.05054 -0.0048,0.100806 -0.0048,0.150019 h 0.402431 z m 1.324504,1.3081 h -1.070769 v -0.178594 l 0.874183,-1.119981 h -0.80592 v -0.184944 h 1.06971 v 0.1905 l -0.834231,1.114689 h 0.886354 z m 0.376766,-0.682361 v -0.225954 h 0.615686 v 0.225954 z m 2.15265,0.682361 h -1.311804 v -0.18759 l 0.944563,-1.45706 c 0.04286,-0.06377 0.07779,-0.111654 0.102923,-0.145521 0.02593,-0.03387 0.03863,-0.0508 0.03863,-0.0508 0,0 -0.02117,0.0011 -0.06271,0.0019 -0.04181,0.0013 -0.09684,0.0013 -0.165365,0.0013 h -0.825235 l 0.07435,-0.205317 h 1.26021 v 0.208492 l -0.918898,1.432454 c -0.03678,0.05768 -0.068,0.104775 -0.09472,0.141552 -0.02725,0.03651 -0.03995,0.0545 -0.03995,0.0545 0,0 0.01826,-2.64e-4 0.05715,-0.0013 0.03889,-7.93e-4 0.08308,-0.0013 0.132556,-0.0013 h 0.876565 z m 1.318684,-0.879211 c -0.0026,-0.08123 -0.009,-0.148166 -0.0217,-0.199231 -0.01085,-0.05186 -0.02884,-0.09498 -0.05292,-0.131498 -0.02725,-0.03942 -0.06747,-0.07091 -0.119062,-0.09525 -0.05133,-0.02302 -0.108744,-0.03545 -0.170921,-0.03545 -0.234156,0 -0.357981,0.153458 -0.370681,0.461433 z m -0.735277,0.175684 v 0.03625 c 0,0.07012 0.0056,0.131234 0.01614,0.18415 0.01111,0.05345 0.03096,0.100278 0.05821,0.140494 0.04524,0.06324 0.102393,0.109802 0.172243,0.138377 0.07038,0.02858 0.146315,0.04286 0.227807,0.04286 0.1524,0 0.282575,-0.04683 0.392641,-0.139965 l 0.09631,0.148961 c -0.07064,0.05927 -0.152665,0.105039 -0.246063,0.136525 -0.0934,0.03228 -0.191558,0.04789 -0.295539,0.04789 -0.223044,0 -0.397405,-0.07011 -0.522553,-0.20955 -0.12647,-0.139964 -0.189441,-0.333639 -0.189441,-0.579173 0,-0.125412 0.01482,-0.230981 0.04551,-0.316971 0.03043,-0.08652 0.07911,-0.16801 0.148167,-0.243416 0.127,-0.137054 0.287337,-0.205581 0.479954,-0.205581 0.178594,0 0.323585,0.05397 0.435504,0.161131 0.03387,0.03387 0.06297,0.06826 0.08599,0.104246 0.02434,0.03598 0.04313,0.07779 0.05662,0.125677 0.01455,0.04789 0.02487,0.102393 0.03069,0.166158 0.0069,0.06376 0.0098,0.140494 0.0098,0.229658 v 0.03254 h -1.001977 z m 2.378339,0.703527 v -1.00383 c 0,-0.04022 -7.93e-4,-0.0717 -0.0029,-0.09789 -0.0024,-0.02619 -0.0056,-0.04815 -0.01005,-0.06588 -0.0045,-0.01799 -0.01032,-0.0336 -0.01746,-0.04683 -0.0077,-0.0127 -0.01667,-0.02487 -0.02752,-0.03651 -0.03889,-0.04233 -0.09737,-0.06324 -0.177271,-0.06324 -0.03201,0 -0.06853,0.0056 -0.107157,0.01667 -0.04022,0.01111 -0.08043,0.02593 -0.12012,0.04419 -0.03942,0.01932 -0.07885,0.04128 -0.116946,0.06747 -0.03863,0.02619 -0.07223,0.05292 -0.100013,0.08096 v 1.1049 h -0.245533 v -1.144323 c 0,-0.106363 -0.0098,-0.185738 -0.03043,-0.236273 -0.02011,-0.0508 -0.03016,-0.07646 -0.03016,-0.07646 l 0.245005,-0.06191 c 0.0026,0.0019 0.0077,0.01296 0.01667,0.03254 0.0077,0.01958 0.01667,0.04815 0.02646,0.08493 0.0095,0.03651 0.01455,0.07488 0.01455,0.114564 0.165364,-0.153193 0.334433,-0.229129 0.506148,-0.229129 0.08864,0 0.167481,0.01932 0.238654,0.05927 0.07091,0.04022 0.122502,0.09313 0.154252,0.158485 0.02646,0.05371 0.03916,0.110331 0.03916,0.172244 v 1.126331 h -0.255323 z m 1.418167,-1.3081 h -0.334963 v 0.956733 c 0,0.08282 0.01455,0.140758 0.04286,0.172508 0.0291,0.03122 0.08361,0.04789 0.163248,0.04789 0.03678,0 0.06615,-0.0034 0.08811,-0.0077 0.02302,-0.0053 0.04577,-0.01243 0.07012,-0.02249 l 0.03492,0.148432 c -0.08202,0.03969 -0.175948,0.06006 -0.283369,0.06006 -0.04313,0 -0.08202,-0.0034 -0.114035,-0.01005 -0.0336,-0.0074 -0.06509,-0.01773 -0.09525,-0.03175 -0.05583,-0.02593 -0.09578,-0.06244 -0.120386,-0.109008 -0.02275,-0.04842 -0.03466,-0.109803 -0.03466,-0.184944 v -1.01944 h -0.209286 v -0.175683 h 0.209286 c 0,-0.03545 0.0013,-0.07541 0.004,-0.118798 0.0016,-0.04445 0.005,-0.0844 0.0077,-0.122767 0.0029,-0.03783 0.0061,-0.06879 0.0098,-0.09446 0.0029,-0.02593 0.0042,-0.03863 0.0042,-0.03863 l 0.264319,-0.05371 c 0,0 -0.0013,0.01296 -0.005,0.03889 -0.0032,0.0254 -0.0064,0.059 -0.01032,0.1016 -0.0048,0.04101 -0.0085,0.08731 -0.01164,0.137848 -0.0034,0.05054 -0.005,0.100806 -0.005,0.150019 h 0.403225 z m 1.099344,0.04815 c -0.02196,-0.0082 -0.04551,-0.01217 -0.07091,-0.01217 -0.10107,0 -0.1905,0.03598 -0.267758,0.10795 -0.03678,0.03254 -0.06059,0.06562 -0.07408,0.09631 -0.01217,0.0299 -0.01932,0.07673 -0.01932,0.138377 v 0.929217 h -0.251351 v -1.144323 c 0,-0.109008 -0.009,-0.188648 -0.02699,-0.238919 -0.01879,-0.05106 -0.02752,-0.07646 -0.02752,-0.07646 l 0.251619,-0.06271 c 0.0019,0.0024 0.0066,0.01429 0.01588,0.03466 0.0085,0.02117 0.01667,0.0508 0.02566,0.08917 0.0085,0.03889 0.01164,0.07884 0.0098,0.118268 0.05794,-0.07594 0.126735,-0.135996 0.207698,-0.181239 0.0807,-0.04419 0.16166,-0.06615 0.242887,-0.06615 0.0217,0 0.04154,0.0026 0.06032,0.0066 0.01852,0.0053 0.02752,0.0074 0.02752,0.0074 z m 1.459706,1.321858 c -0.05371,-0.03995 -0.09366,-0.07726 -0.119063,-0.111389 -0.02593,-0.0344 -0.04445,-0.07699 -0.05477,-0.126207 -0.121973,0.150548 -0.292365,0.22569 -0.509323,0.22569 -0.103452,0 -0.190765,-0.01905 -0.262996,-0.05662 -0.0717,-0.03704 -0.124354,-0.0889 -0.159279,-0.154517 -0.01482,-0.02778 -0.02567,-0.06059 -0.03202,-0.09843 -0.0061,-0.03783 -0.0098,-0.07779 -0.0098,-0.121973 v -1.090083 l 0.248179,-0.04471 v 1.066006 c 0,0.06959 0.0066,0.123296 0.02064,0.159808 0.01349,0.03731 0.03942,0.06668 0.07567,0.09075 0.02619,0.01614 0.05556,0.02831 0.09049,0.03731 0.03413,0.009 0.06932,0.01402 0.106098,0.01402 0.08017,0 0.157162,-0.02487 0.232304,-0.07355 0.07514,-0.04842 0.134143,-0.113506 0.177006,-0.194998 v -1.051454 l 0.248444,-0.03836 v 1.080822 c 0,0.0934 0.0074,0.163248 0.02328,0.20955 0.01693,0.04763 0.04551,0.08705 0.08573,0.12118 z m 2.379133,-0.06191 v -1.095905 c 0,-0.145785 -0.06932,-0.218281 -0.206639,-0.218281 -0.07329,0 -0.141288,0.02064 -0.204523,0.06085 -0.0635,0.04075 -0.137319,0.09816 -0.220927,0.169334 v 1.083998 h -0.254265 v -1.05463 c 0,-0.04577 -0.0037,-0.08308 -0.0098,-0.112977 -0.0063,-0.0299 -0.01799,-0.05583 -0.03519,-0.07726 -0.03678,-0.03995 -0.09207,-0.06032 -0.164835,-0.06032 -0.06138,0 -0.124884,0.01561 -0.188648,0.04657 -0.06297,0.03069 -0.135996,0.0807 -0.220663,0.150283 v 1.108075 h -0.241564 v -1.149879 c 0,-0.107421 -0.0093,-0.186796 -0.0291,-0.23839 -0.01879,-0.05186 -0.0291,-0.07726 -0.0291,-0.07726 l 0.244475,-0.05345 c 0.0026,0.0019 0.0082,0.01296 0.01667,0.03254 0.0087,0.01958 0.01773,0.04789 0.02725,0.08387 0.01005,0.03572 0.01535,0.07064 0.01535,0.103981 0.0254,-0.02778 0.05662,-0.05503 0.0934,-0.08202 0.03678,-0.02699 0.07593,-0.0508 0.11721,-0.0717 0.04207,-0.02117 0.08467,-0.03731 0.129117,-0.05001 0.04366,-0.01376 0.08625,-0.02037 0.126735,-0.02037 0.08017,0 0.154252,0.0217 0.223838,0.06429 0.07091,0.04313 0.120121,0.10451 0.150548,0.182827 0.07752,-0.07435 0.161925,-0.134938 0.254529,-0.179917 0.09234,-0.04445 0.179123,-0.06747 0.261408,-0.06747 0.119327,0 0.216694,0.03784 0.291042,0.112448 0.07435,0.07435 0.111125,0.170921 0.111125,0.290513 v 1.119716 h -0.25744 z" />
  </g>
</svg>
