<?xml version="1.0" encoding="UTF-8" standalone="no"?>
<!-- Created with Inkscape (http://www.inkscape.org/) -->

<svg
   xmlns:dc="http://purl.org/dc/elements/1.1/"
   xmlns:cc="http://creativecommons.org/ns#"
   xmlns:rdf="http://www.w3.org/1999/02/22-rdf-syntax-ns#"
   xmlns:svg="http://www.w3.org/2000/svg"
   xmlns="http://www.w3.org/2000/svg"
   xmlns:sodipodi="http://sodipodi.sourceforge.net/DTD/sodipodi-0.dtd"
   xmlns:inkscape="http://www.inkscape.org/namespaces/inkscape"
   width="119.92857"
   height="119.92857"
   id="svg3805"
   version="1.1"
   inkscape:version="0.48.3.1 r9886"
   sodipodi:docname="lassie1.svg"
   inkscape:export-filename="/usr/local/src/heimann/lassie/scratch/lassie1.png"
   inkscape:export-xdpi="96.057175"
   inkscape:export-ydpi="96.057175">
  <defs
     id="defs3807" />
  <sodipodi:namedview
     id="base"
     pagecolor="#ffffff"
     bordercolor="#666666"
     borderopacity="1.0"
     inkscape:pageopacity="0.0"
     inkscape:pageshadow="2"
     inkscape:zoom="3.959798"
     inkscape:cx="68.322084"
     inkscape:cy="8.4251309"
     inkscape:document-units="px"
     inkscape:current-layer="layer1"
     showgrid="false"
     inkscape:window-width="1074"
     inkscape:window-height="1371"
     inkscape:window-x="0"
     inkscape:window-y="501"
     inkscape:window-maximized="0"
     fit-margin-top="2"
     fit-margin-left="2"
     fit-margin-right="2"
     fit-margin-bottom="2" />
  <metadata
     id="metadata3810">
    <rdf:RDF>
      <cc:Work
         rdf:about="">
        <dc:format>image/svg+xml</dc:format>
        <dc:type
           rdf:resource="http://purl.org/dc/dcmitype/StillImage" />
        <dc:title></dc:title>
      </cc:Work>
    </rdf:RDF>
  </metadata>
  <g
     inkscape:label="Layer 1"
     inkscape:groupmode="layer"
     id="layer1"
     transform="translate(-334.32143,-366.68361)">
    <path
       transform="translate(70.535714,-71.964286)"
       d="m 380.71429,498.61218 c 0,31.46051 -25.50378,56.96429 -56.96429,56.96429 -31.46051,0 -56.96429,-25.50378 -56.96429,-56.96429 0,-31.4605 25.50378,-56.96428 56.96429,-56.96428 31.46051,0 56.96429,25.50378 56.96429,56.96428 z"
       sodipodi:ry="56.964287"
       sodipodi:rx="56.964287"
       sodipodi:cy="498.61218"
       sodipodi:cx="323.75"
       id="path3844"
       style="color:#000000;fill:#d5dded;stroke:none;stroke-width:2;marker:none;visibility:visible;display:inline;overflow:visible;enable-background:accumulate"
       sodipodi:type="arc" />
    <path
       inkscape:connector-curvature="0"
       style="fill:#f4ddcf;fill-opacity:1;stroke:#000000;stroke-width:1px;stroke-linecap:butt;stroke-linejoin:miter;stroke-opacity:1"
       d="m 362.74553,385.08929 c -1.38896,0.3788 -0.88007,7.35073 -0.375,19.09375 0.25783,5.99457 5.05059,13.11432 -0.40625,20.96875 -3.94019,5.67142 -2.26729,12.30631 -3.65625,16.03125 -1.67259,4.48558 -3.00126,16.94793 -3.8125,26.21875 10.26782,10.02588 24.29678,16.21875 39.78125,16.21875 11.61041,0 22.40089,-3.50422 31.40625,-9.46875 0.5671,-7.17552 1.47518,-19.50779 1.5625,-26.40625 0.12627,-9.97525 -5.78125,-18.4375 -5.78125,-18.4375 0,0 0.23731,0.125 1.5,0.125 1.26269,0 2.99357,-40.23926 -2.65625,-43.1875 -5.13725,-2.68077 -12.625,15.65625 -12.625,15.65625 -9.13153,-1.48998 -15.18322,-0.0731 -17.28125,-0.125 -2.09803,-0.0519 -2.03029,2.25603 -8.34375,-4.5625 -7.52055,-8.12219 -17.92354,-12.50381 -19.3125,-12.125 z"
       id="path2996" />
    <path
       style="fill:#d89c66;stroke:none"
       d="m 419.05257,477.02812 5.3033,-2.77792 c 0,0 2.2501,-19.83692 0.63134,-28.78935 -0.77887,-4.30748 -7.37219,-9.97898 -7.37219,-9.97898 0,0 0.66177,10.12979 -4.04061,13.92768 -2.53894,2.05059 0.36265,5.53936 0.30113,7.66806 -0.18641,6.45008 5.17703,19.95051 5.17703,19.95051 z"
       id="path3779"
       inkscape:connector-curvature="0"
       sodipodi:nodetypes="ccscssc" />
    <path
       style="fill:#d89c66;fill-opacity:1;stroke:none"
       d="m 399.25371,406.88816 c -3.91328,1.40839 3.99341,16.97482 0.89068,19.74437 -4.02382,3.59173 -3.33685,13.35914 -3.33685,13.35914 l 2.42078,5.72172 -8.83883,-4.04061 c 0,0 -10.07652,-10.03707 -14.89975,-7.32361 -4.12485,2.32056 -2.39778,9.54747 -1.26269,14.14214 1.15361,4.66964 7.91132,7.31252 7.82868,12.12183 -0.12156,7.07453 -12.12183,17.42513 -12.12183,17.42513 l -6.06092,-27.77919 7.57615,-18.94036 8.33376,-7.57615 -5.80838,-3.03046 -7.57614,-8.58629 -3.283,-16.92006 9.57851,-3.96664 15.6753,13.31055 18.68783,-2.0203 9.34391,-10.35406 5.05076,3.78807 2.77792,29.29442 -3.03046,4.54569 c 0,0 -5.98553,-2.65221 -10.18818,-4.46647 -2.47434,-1.06815 -9.22143,-19.36151 -11.75725,-18.44886 z"
       id="path3008"
       inkscape:connector-curvature="0"
       sodipodi:nodetypes="sscccsssccccccccccccccss" />
    <path
       style="fill:#1f1a17;stroke:none"
       d="m 383.06588,421.09092 c 0,0 0.37881,-3.91434 4.41942,-5.17703 4.04061,-1.26269 4.41942,5.93465 4.41942,5.93465 0,0 -0.37881,1.38896 -4.04061,0.88388 -3.66181,-0.50508 -4.79823,-1.6415 -4.79823,-1.6415 z"
       id="path2998"
       inkscape:connector-curvature="0" />
    <path
       style="fill:#1f1a17;stroke:none"
       d="m 410.46627,417.17658 c 0,0 4.04061,0.25254 4.04061,1.89404 0,1.64149 -1.89403,3.53553 -2.90419,2.65165 -1.01015,-0.88389 -1.13642,-4.54569 -1.13642,-4.54569 z"
       id="path3000"
       inkscape:connector-curvature="0" />
    <path
       style="fill:#1f1a17;stroke:#000000;stroke-width:1px;stroke-linecap:butt;stroke-linejoin:miter;stroke-opacity:1"
       d="m 407.68835,432.07633 c 6.43972,-0.37881 8.20749,3.53553 7.44988,6.69226 -0.75762,3.15673 -1.76777,6.9448 -3.66181,7.44988 -1.89403,0.50507 -8.46002,-4.29315 -8.33375,-7.57615 0.12626,-3.28299 -0.12627,-5.55584 4.54568,-6.56599 z"
       id="path3002"
       inkscape:connector-curvature="0"
       sodipodi:nodetypes="csssc" />
    <path
       style="fill:#1f1a17;stroke:none"
       d="m 383.69722,436.18008 5.99779,4.54568 c 0,0 1.57836,8.01809 1.07329,8.7757 -0.50508,0.75762 3.03045,5.17703 3.28299,7.95495 0.25254,2.77792 3.66181,9.84899 7.95495,9.84899 4.29315,0 8.08122,-0.37881 8.08122,-0.37881 0,0 -0.75761,3.78808 -3.53553,4.04061 -2.77792,0.25254 -9.72272,-1.51523 -13.25825,-8.83883 -3.53554,-7.32361 -4.79823,-4.04061 -6.56599,-8.96511 -1.76777,-4.92449 -2.02031,-9.21764 -2.02031,-9.21764 z"
       id="path3004"
       inkscape:connector-curvature="0"
       sodipodi:nodetypes="ccssscssscc" />
    <path
       style="fill:#f4b38d;fill-opacity:1;stroke:none"
       d="m 397.06818,454.16273 3.0625,4.23224 4.41418,5.71669 6.96402,-0.77486 2.62942,3.33863 c 2.60054,3.30196 2.52951,4.29901 4.04473,3.28886 1.21367,-0.80911 1.57037,-4.30186 -2.91973,-7.04728 l -5.48366,-3.10532 c -0.60135,-2.34694 0.0621,-6.75868 1.32389,-7.38959 2.14286,-1.07143 -3.79553,-4.52031 -3.79553,-4.52031 l -7.125,1.4375 -1.72256,2.00147 -0.7124,-3.61752 -6.41772,-3.75002 4.39732,8.93303 z"
       id="path3006"
       inkscape:connector-curvature="0"
       sodipodi:nodetypes="ccccssccsccccccc" />
    <path
       style="fill:#1f1a17;stroke:none"
       d="m 362.09208,389.13303 c 0,0 8.54622,7.49128 13.00308,11.01231 3.39574,2.68272 10.04226,3.38871 10.45542,7.69654 0.52039,5.42583 -11.63751,6.59752 -11.0863,12.02031 0.23721,2.3337 5.5751,1.76555 5.71429,4.10714 0.22999,3.86908 -6.23915,5.04907 -8.44516,8.23595 -3.90677,5.64385 -5.45379,12.24469 -6.01912,19.08547 -0.72796,8.80861 4.55134,25.8512 4.30737,26.54587 -0.0962,0.27396 -12.81971,-7.26526 -13.05738,-10.11729 0,0 1.00828,-14.24657 2.32143,-21.25 1.10161,-5.87524 2.75572,-11.64951 4.64286,-17.32143 0.91077,-2.73737 2.72908,-5.1919 3.21428,-8.03571 0.47095,-2.76026 -0.0234,-5.61267 -0.35714,-8.39286 -0.9555,-7.95911 -4.69363,-23.5863 -4.69363,-23.5863 z"
       id="path2995"
       inkscape:connector-curvature="0"
       sodipodi:nodetypes="cssssssscssssc" />
    <path
       style="fill:#1f1a17;stroke:none"
       d="m 372.22578,391.76519 -11.43753,-4.25507 2.6569,7.40437 z"
       id="path3765"
       inkscape:connector-curvature="0"
       sodipodi:nodetypes="cccc" />
    <path
       style="fill:#1f1a17;stroke:none"
       d="m 416.56381,392.63639 7.10324,-3.51015 -2.34309,7.46038 z"
       id="path3767"
       inkscape:connector-curvature="0"
       sodipodi:nodetypes="cccc" />
    <path
       style="font-size:medium;font-style:normal;font-variant:normal;font-weight:normal;font-stretch:normal;text-indent:0;text-align:start;text-decoration:none;line-height:normal;letter-spacing:normal;word-spacing:normal;text-transform:none;direction:ltr;block-progression:tb;writing-mode:lr-tb;text-anchor:start;baseline-shift:baseline;color:#000000;fill:#1f1a17;fill-opacity:1;fill-rule:nonzero;stroke:none;stroke-width:1px;marker:none;visibility:visible;display:inline;overflow:visible;enable-background:accumulate;font-family:Sans;-inkscape-font-specification:Sans"
       d="m 391.03566,444.79773 0.71875,0.77427 3.52237,7.54854 0.0312,0.0937 0.0625,0.0625 1.28125,1.1875 0.0625,0.0625 3,4.15625 0.0312,0 0,0.0312 4.40625,5.6875 0.15625,0.25 3.18544,-0.15747 3.78331,-0.62373 2.46875,3.125 c 1.28377,1.63002 1.88922,2.65618 2.46875,3.28125 0.28977,0.31253 0.63941,0.55734 1.0625,0.5625 0.42309,0.005 0.77861,-0.19615 1.1875,-0.46875 0.86431,-0.57621 1.2323,-1.84317 0.875,-3.3125 -0.3573,-1.46933 -1.48191,-3.13749 -3.8125,-4.5625 l -0.0312,0 -5.21875,-2.96875 c -0.24073,-1.0601 -0.26081,-2.60554 -0.0312,-3.96875 0.1193,-0.70844 0.2923,-1.35753 0.5,-1.84375 1.26488,-1.56914 1.05586,-3.15473 0.16196,-4.72256 -11.67466,-4.48039 -13.26586,-1.36973 -19.31816,-5.46494 l -1.05869,0.13452 z m 1.45987,0.44781 c 9.95602,5.05169 5.6192,5.88154 15.79204,3.81885 0,0 -1.48944,2.57667 -0.11977,2.98144 0.33145,0.0979 2.55236,-0.98393 2.79648,-0.55029 0.0947,0.17582 0.10063,0.28078 0.0937,0.3125 -0.007,0.0317 -0.009,0.067 -0.1875,0.15625 -0.50825,0.25413 -0.80971,0.75198 -1.0625,1.34375 -0.25279,0.59177 -1.69607,3.34733 -1.82519,4.11406 -1.06128,4.82716 3.35017,3.49229 7.01264,5.91714 l 0.0312,0 c 2.14205,1.31642 3.06137,2.77625 3.34375,3.9375 0.28346,1.16567 -0.11939,2.04835 -0.46875,2.28125 -0.34872,0.23248 -0.55398,0.28212 -0.625,0.28125 -0.071,-8.7e-4 -0.1368,-0.0268 -0.34375,-0.25 -0.41389,-0.44641 -1.08948,-1.54681 -2.40625,-3.21875 l -2.625,-3.34375 -0.1875,-0.21875 -2.14404,-1.10522 -4.79346,-0.13389 -3.49239,-5.24746 -3.82011,-2.45098 -0.0312,-0.0312 -0.0312,-0.0312 0.26523,-3.46034 -5.17148,-5.10216 z"
       id="path3803"
       inkscape:connector-curvature="0"
       sodipodi:nodetypes="cccccccccccccccccsscccccccccccsccsscccscsccccccccccccc" />
    <path
       sodipodi:type="arc"
       style="color:#000000;fill:none;stroke:#1f1a17;stroke-width:2;marker:none;visibility:visible;display:inline;overflow:visible;enable-background:accumulate"
       id="path3780"
       sodipodi:cx="323.75"
       sodipodi:cy="498.61218"
       sodipodi:rx="56.964287"
       sodipodi:ry="56.964287"
       d="m 380.71429,498.61218 c 0,31.46051 -25.50378,56.96429 -56.96429,56.96429 -31.46051,0 -56.96429,-25.50378 -56.96429,-56.96429 0,-31.4605 25.50378,-56.96428 56.96429,-56.96428 31.46051,0 56.96429,25.50378 56.96429,56.96428 z"
       transform="translate(70.535714,-71.964286)" />
  </g>
</svg>
