<?xml version="1.0" encoding="UTF-8" standalone="no"?>
<svg
   xmlns:dc="http://purl.org/dc/elements/1.1/"
   xmlns:cc="http://creativecommons.org/ns#"
   xmlns:rdf="http://www.w3.org/1999/02/22-rdf-syntax-ns#"
   xmlns:svg="http://www.w3.org/2000/svg"
   xmlns="http://www.w3.org/2000/svg"
   width="106.56314mm"
   height="81.602798mm"
   viewBox="0 0 106.56314 81.602798"
   version="1.1"
   id="svg5294">
  <defs
     id="defs5288" />
  <metadata
     id="metadata5291">
    <rdf:RDF>
      <cc:Work
         rdf:about="">
        <dc:format>image/svg+xml</dc:format>
        <dc:type
           rdf:resource="http://purl.org/dc/dcmitype/StillImage" />
        <dc:title></dc:title>
      </cc:Work>
    </rdf:RDF>
  </metadata>
  <g
     id="layer1"
     transform="translate(-19.294786,-25.579501)">
    <g
       style="display:inline"
       transform="translate(-20.940249,10.338757)"
       id="layer2">
      <g
         transform="translate(30.468726,-110.11505)"
         id="g12350">
        <g
           transform="matrix(0.12698066,0,0,-0.12698066,-420.0201,229.83641)"
           id="g13018">
          <g
             transform="matrix(-0.254087,1,0.948266,0.267949,0,1984.252)"
             id="g2666">
            <path
               id="path2668"
               style="fill:#ffffff;fill-opacity:1;fill-rule:nonzero;stroke:#373737;stroke-width:1.14637196;stroke-linecap:butt;stroke-linejoin:miter;stroke-miterlimit:4;stroke-dasharray:none;stroke-opacity:1"
               d="m -2157.688,3073.259 c 0,50.334 -40.808,91.139 -91.143,91.139 -50.333,0 -91.138,-40.803 -91.139,-91.138 0,-50.338 40.804,-91.14 91.141,-91.143 50.336,0 91.14,40.807 91.141,91.142 z" />
          </g>
          <path
             id="path2670"
             style="fill:#005089;fill-opacity:0.22666704;fill-rule:nonzero;stroke:none"
             d="m 3502.547,558.9 c 0,-9.832 -7.559,-17.804 -16.883,-17.804 -9.324,0 -16.879,7.972 -16.879,17.804 0,9.832 7.555,17.801 16.879,17.801 9.324,0 16.883,-7.969 16.883,-17.801 z" />
          <g
             transform="matrix(0.948266,0,0,-1,0,1984.252)"
             id="g2672">
            <path
               id="path2674"
               style="fill:none;stroke:#373737;stroke-width:1.18681204;stroke-linecap:butt;stroke-linejoin:miter;stroke-miterlimit:4;stroke-dasharray:none;stroke-opacity:1"
               d="m 3693.633,1425.352 c 0,9.832 -7.971,17.804 -17.803,17.804 -9.833,0 -17.8,-7.972 -17.8,-17.804 0,-9.832 7.967,-17.801 17.8,-17.801 9.832,0 17.803,7.969 17.803,17.801 z" />
          </g>
          <path
             id="path2676"
             style="fill:#005089;fill-opacity:0.22666704;fill-rule:nonzero;stroke:none"
             d="m 3519.426,558.9 c 0,-19.664 -15.114,-35.605 -33.762,-35.605 -18.644,0 -33.762,15.941 -33.762,35.605 0,19.664 15.118,35.602 33.762,35.602 18.648,0 33.762,-15.938 33.762,-35.602 z" />
          <g
             transform="matrix(0.948266,0,0,-1,0,1984.252)"
             id="g2678">
            <path
               id="path2680"
               style="fill:none;stroke:#373737;stroke-width:1.18681204;stroke-linecap:butt;stroke-linejoin:miter;stroke-miterlimit:4;stroke-dasharray:none;stroke-opacity:1"
               d="m 3711.433,1425.352 c 0,19.664 -15.938,35.605 -35.603,35.605 -19.662,0 -35.604,-15.941 -35.604,-35.605 0,-19.664 15.942,-35.602 35.604,-35.602 19.665,0 35.603,15.938 35.603,35.602 z" />
          </g>
          <path
             id="path2682"
             style="fill:#005089;fill-opacity:0.22666704;fill-rule:nonzero;stroke:none"
             d="m 3570.07,558.9 c 0,-49.16 -37.789,-89.011 -84.406,-89.011 -46.617,0 -84.406,39.851 -84.406,89.011 0,49.157 37.789,89.008 84.406,89.008 46.617,0 84.406,-39.851 84.406,-89.008 z" />
          <g
             transform="matrix(0.948266,0,0,-1,0,1984.252)"
             id="g2684">
            <path
               id="path2686"
               style="fill:none;stroke:#373737;stroke-width:1.18681204;stroke-linecap:butt;stroke-linejoin:miter;stroke-miterlimit:4;stroke-dasharray:none;stroke-opacity:1"
               d="m 3764.841,1425.352 c 0,49.16 -39.851,89.011 -89.011,89.011 -49.161,0 -89.012,-39.851 -89.012,-89.011 0,-49.157 39.851,-89.008 89.012,-89.008 49.16,0 89.011,39.851 89.011,89.008 z" />
          </g>
          <g
             transform="matrix(-0.948266,-0.57735,-0.547482,1,0,1984.252)"
             id="g2688">
            <path
               id="path2690"
               style="fill:#005089;fill-opacity:1;fill-rule:nonzero;stroke:#373737;stroke-width:1.02780902;stroke-linecap:butt;stroke-linejoin:miter;stroke-miterlimit:4;stroke-dasharray:none;stroke-opacity:1"
               d="m -2139.677,-2751.914 2.223,3.854 2.229,3.854 -4.453,-10e-4 -4.45,10e-4 z" />
          </g>
          <g
             transform="matrix(-0.547482,1,0.948266,0.57735,0,1984.252)"
             id="g2692">
            <path
               id="path2694"
               style="fill:#005089;fill-opacity:1;fill-rule:nonzero;stroke:#373737;stroke-width:1.02780902;stroke-linecap:butt;stroke-linejoin:miter;stroke-miterlimit:4;stroke-dasharray:none;stroke-opacity:1"
               d="m -2660.696,2048.457 2.226,3.856 2.224,3.854 h -4.45 -4.453 l 4.453,-7.711 z" />
          </g>
          <g
             transform="matrix(0.948266,0,0,-1,0,1984.252)"
             id="g2696">
            <path
               id="path2698"
               style="fill:#005089;fill-opacity:1;fill-rule:nonzero;stroke:#373737;stroke-width:1.18681204;stroke-linecap:butt;stroke-linejoin:miter;stroke-miterlimit:4;stroke-dasharray:none;stroke-opacity:1"
               d="m 3675.83,1320.023 2.57,4.45 2.57,4.453 h -10.277 l 2.566,-4.453 z" />
          </g>
          <g
             transform="matrix(0,-1,-0.948266,0,0,1984.252)"
             id="g2700">
            <path
               id="path2702"
               style="fill:#005089;fill-opacity:1;fill-rule:nonzero;stroke:#373737;stroke-width:1.18681204;stroke-linecap:butt;stroke-linejoin:miter;stroke-miterlimit:4;stroke-dasharray:none;stroke-opacity:1"
               d="m 1425.352,-3781.162 2.57,4.453 2.57,4.449 h -10.277 l 2.57,-4.449 z" />
          </g>
          <g
             transform="matrix(0,1,0.948266,0,0,1984.252)"
             id="g2704">
            <path
               id="path2706"
               style="fill:#005089;fill-opacity:1;fill-rule:nonzero;stroke:#373737;stroke-width:1.18681204;stroke-linecap:butt;stroke-linejoin:miter;stroke-miterlimit:4;stroke-dasharray:none;stroke-opacity:1"
               d="m -1425.352,3570.502 2.567,4.448 2.57,4.454 h -10.277 l 2.57,-4.454 z" />
          </g>
          <g
             transform="matrix(-0.547482,-1,-0.948266,0.57735,0,1984.252)"
             id="g2708">
            <path
               id="path2710"
               style="fill:#005089;fill-opacity:1;fill-rule:nonzero;stroke:#373737;stroke-width:1.02780902;stroke-linecap:butt;stroke-linejoin:miter;stroke-miterlimit:4;stroke-dasharray:none;stroke-opacity:1"
               d="m -522.665,-3465.288 4.45,7.709 h -4.453 -4.448 l 2.224,-3.855 2.227,-3.856 z" />
          </g>
          <g
             transform="matrix(0.948266,1,0.948266,-1,0,1984.252)"
             id="g2712">
            <path
               id="path2714"
               style="fill:#005089;fill-opacity:1;fill-rule:nonzero;stroke:#373737;stroke-width:0.839203;stroke-linecap:butt;stroke-linejoin:miter;stroke-miterlimit:4;stroke-dasharray:none;stroke-opacity:1"
               d="m 1125.238,2476.113 1.818,3.146 1.816,3.148 h -7.266 l 1.817,-3.148 z" />
          </g>
          <g
             transform="matrix(0.948266,-1,-0.948266,-1,0,1984.252)"
             id="g2716">
            <path
               id="path2718"
               style="fill:#005089;fill-opacity:1;fill-rule:nonzero;stroke:#373737;stroke-width:0.839203;stroke-linecap:butt;stroke-linejoin:miter;stroke-miterlimit:4;stroke-dasharray:none;stroke-opacity:1"
               d="m 2550.593,-1199.718 1.816,3.145 1.817,3.148 h -3.633 -3.635 l 1.815,-3.148 1.82,-3.148 z" />
          </g>
          <g
             transform="matrix(-0.948266,1,0.948266,1,0,1984.252)"
             id="g2720">
            <path
               id="path2722"
               style="fill:#005089;fill-opacity:1;fill-rule:nonzero;stroke:#373737;stroke-width:0.839203;stroke-linecap:butt;stroke-linejoin:miter;stroke-miterlimit:4;stroke-dasharray:none;stroke-opacity:1"
               d="m -2550.592,1050.76 1.817,3.147 1.816,3.146 -7.267,10e-4 1.816,-3.148 z" />
          </g>
          <g
             transform="matrix(0.948266,0.267949,0.254087,-1,0,1984.252)"
             id="g2724">
            <path
               id="path2726"
               style="fill:#005089;fill-opacity:1;fill-rule:nonzero;stroke:#373737;stroke-width:1.14637196;stroke-linecap:butt;stroke-linejoin:miter;stroke-miterlimit:4;stroke-dasharray:none;stroke-opacity:1"
               d="m 3073.257,2147.09 2.485,4.299 2.482,4.298 h -4.965 -4.963 l 2.478,-4.297 z" />
          </g>
          <g
             transform="matrix(0.254087,-1,-0.948266,-0.267949,0,1984.252)"
             id="g2728">
            <path
               id="path2730"
               style="fill:#005089;fill-opacity:1;fill-rule:nonzero;stroke:#373737;stroke-width:1.14637196;stroke-linecap:butt;stroke-linejoin:miter;stroke-miterlimit:4;stroke-dasharray:none;stroke-opacity:1"
               d="m 2248.828,-3174.998 2.485,4.299 2.481,4.298 -9.93,10e-4 2.484,-4.299 z" />
          </g>
          <g
             transform="matrix(0.948266,-0.267949,-0.254087,-1,0,1984.252)"
             id="g2732">
            <path
               id="path2734"
               style="fill:#005089;fill-opacity:1;fill-rule:nonzero;stroke:#373737;stroke-width:1.14637196;stroke-linecap:butt;stroke-linejoin:miter;stroke-miterlimit:4;stroke-dasharray:none;stroke-opacity:1"
               d="m 3785.935,309.175 2.482,4.3 2.482,4.296 -4.963,0.002 -4.965,-0.002 z" />
          </g>
          <g
             transform="matrix(-0.948266,0.267949,0.254087,1,0,1984.252)"
             id="g2736">
            <path
               id="path2738"
               style="fill:#005089;fill-opacity:1;fill-rule:nonzero;stroke:#373737;stroke-width:1.14637196;stroke-linecap:butt;stroke-linejoin:miter;stroke-miterlimit:4;stroke-dasharray:none;stroke-opacity:1"
               d="m -3785.933,-512.656 2.482,4.3 2.479,4.3 -4.964,-0.002 -4.964,0.002 2.481,-4.301 z" />
          </g>
          <g
             transform="matrix(0.948266,0,0,-1,0,1984.252)"
             id="g2740">
            <path
               id="path2742"
               style="fill:#1f1a17;fill-opacity:1;fill-rule:nonzero;stroke:#373737;stroke-width:1.18681204;stroke-linecap:butt;stroke-linejoin:miter;stroke-miterlimit:4;stroke-dasharray:none;stroke-opacity:1"
               d="m 3652.094,1342.277 1.742,3.532 3.901,0.566 -2.821,2.754 0.667,3.883 -3.489,-1.836 -3.489,1.836 0.667,-3.883 -2.822,-2.754 3.901,-0.566 z" />
          </g>
          <g
             transform="matrix(0.948266,0,0,-1,0,1984.252)"
             id="g2744">
            <path
               id="path2746"
               style="fill:#1f1a17;fill-opacity:1;fill-rule:nonzero;stroke:#373737;stroke-width:1.18681204;stroke-linecap:butt;stroke-linejoin:miter;stroke-miterlimit:4;stroke-dasharray:none;stroke-opacity:1"
               d="m 3665.708,1332.809 1.743,3.535 3.901,0.566 -2.822,2.75 0.663,3.883 -3.485,-1.832 -3.489,1.832 0.668,-3.883 -2.826,-2.75 3.901,-0.566 z" />
          </g>
          <g
             transform="matrix(0.948266,0,0,-1,0,1984.252)"
             id="g2748">
            <path
               id="path2750"
               style="fill:#1f1a17;fill-opacity:1;fill-rule:nonzero;stroke:#373737;stroke-width:1.18681204;stroke-linecap:butt;stroke-linejoin:miter;stroke-miterlimit:4;stroke-dasharray:none;stroke-opacity:1"
               d="m 3594.497,1421.82 1.746,3.532 3.897,0.566 -2.821,2.754 0.667,3.883 -3.489,-1.836 -3.489,1.836 0.667,-3.883 -2.822,-2.754 3.901,-0.566 z" />
          </g>
          <g
             transform="matrix(0.948266,0,0,-1,0,1984.252)"
             id="g2752">
            <path
               id="path2754"
               style="fill:#1f1a17;fill-opacity:1;fill-rule:nonzero;stroke:#373737;stroke-width:1.18681204;stroke-linecap:butt;stroke-linejoin:miter;stroke-miterlimit:4;stroke-dasharray:none;stroke-opacity:1"
               d="m 3762.019,1436.305 1.747,3.535 3.896,0.566 -2.821,2.75 0.667,3.883 -3.489,-1.832 -3.489,1.832 0.667,-3.883 -2.822,-2.75 3.901,-0.566 z" />
          </g>
          <g
             transform="matrix(0.948266,0,0,-1,0,1984.252)"
             id="g2756">
            <path
               id="path2758"
               style="fill:#1f1a17;fill-opacity:1;fill-rule:nonzero;stroke:#373737;stroke-width:1.18681204;stroke-linecap:butt;stroke-linejoin:miter;stroke-miterlimit:4;stroke-dasharray:none;stroke-opacity:1"
               d="m 3684.587,1495.645 1.743,3.535 3.901,0.566 -2.822,2.75 0.663,3.883 -3.485,-1.832 -3.489,1.832 0.668,-3.883 -2.822,-2.75 3.897,-0.566 z" />
          </g>
        </g>
        <g
           transform="matrix(0.14830475,0,0,-0.14830475,-498.53839,268.74013)"
           id="g13189">
          <g
             transform="matrix(0.948266,-0.176069,-0.16696,-1,0,1984.252)"
             id="g2760">
            <path
               id="path2762"
               style="fill:#ffffff;fill-opacity:1;fill-rule:nonzero;stroke:#373737;stroke-width:1.16883302;stroke-linecap:butt;stroke-linejoin:miter;stroke-miterlimit:4;stroke-dasharray:none;stroke-opacity:1"
               d="m 4121.744,535.437 c -63.776,3.389 -125.429,14.744 -183.983,33.128 l 42.081,133.833 c 47.565,-14.934 97.654,-24.167 149.464,-26.922 z" />
          </g>
          <path
             id="path2764"
             style="fill:#005089;fill-opacity:0.22666704;fill-rule:nonzero;stroke:none"
             d="m 3817.754,711.342 c -60.078,7.715 -119.508,7.179 -177.176,-0.77 l 16.098,-129.445 c 47.597,6.559 96.636,6.973 146.226,0.605 z" />
          <g
             transform="matrix(0.948266,-0.176069,-0.16696,-1,0,1984.252)"
             id="g2766">
            <path
               id="path2768"
               style="fill:none;stroke:#373737;stroke-width:1.15057003;stroke-linecap:butt;stroke-linejoin:miter;stroke-miterlimit:4;stroke-dasharray:none;stroke-opacity:1"
               d="m 4122.363,547.089 c -62.769,3.337 -123.465,14.559 -181.093,32.655 l 38.572,122.654 c 47.565,-14.934 97.654,-24.167 149.464,-26.922 z" />
          </g>
          <path
             id="path2770"
             style="fill:#005089;fill-opacity:0.22666704;fill-rule:nonzero;stroke:none"
             d="m 3813.707,675.979 c -57.23,7.347 -113.805,6.855 -168.742,-0.715 l 11.711,-94.137 c 47.597,6.559 96.636,6.973 146.226,0.605 z" />
          <g
             transform="matrix(0.948266,-0.176069,-0.16696,-1,0,1984.252)"
             id="g2772">
            <path
               id="path2774"
               style="fill:none;stroke:#373737;stroke-width:1.09578097;stroke-linecap:butt;stroke-linejoin:miter;stroke-miterlimit:4;stroke-dasharray:none;stroke-opacity:1"
               d="m 4124.262,582.118 c -59.792,3.18 -117.575,13.846 -172.475,31.083 l 28.055,89.197 c 47.565,-14.934 97.654,-24.167 149.464,-26.922 z" />
          </g>
          <path
             id="path2776"
             style="fill:#005089;fill-opacity:0.22666704;fill-rule:nonzero;stroke:none"
             d="m 3811.684,658.279 c -55.789,7.164 -110.973,6.707 -164.524,-0.672 l 9.516,-76.48 c 47.597,6.559 96.636,6.973 146.226,0.605 z" />
          <g
             transform="matrix(0.948266,-0.176069,-0.16696,-1,0,1984.252)"
             id="g2778">
            <path
               id="path2780"
               style="fill:none;stroke:#373737;stroke-width:1.06838703;stroke-linecap:butt;stroke-linejoin:miter;stroke-miterlimit:4;stroke-dasharray:none;stroke-opacity:1"
               d="m 4125.215,599.65 c -58.287,3.098 -114.653,13.48 -168.167,30.281 l 22.794,72.467 c 47.565,-14.934 97.654,-24.167 149.464,-26.922 z" />
          </g>
          <g
             transform="matrix(0.948266,0.0877407,0.0832015,-1,0,1984.252)"
             id="g2782">
            <path
               id="path2784"
               style="fill:#005089;fill-opacity:1;fill-rule:nonzero;stroke:#373737;stroke-width:1.18227005;stroke-linecap:butt;stroke-linejoin:miter;stroke-miterlimit:4;stroke-dasharray:none;stroke-opacity:1"
               d="m 3717.125,1574.221 2.56,4.436 2.561,4.432 h -10.241 l 2.56,-4.432 z" />
          </g>
          <g
             transform="matrix(0.948266,0.0443484,0.0420541,-1,0,1984.252)"
             id="g2786">
            <path
               id="path2788"
               style="fill:#005089;fill-opacity:1;fill-rule:nonzero;stroke:#373737;stroke-width:1.18564701;stroke-linecap:butt;stroke-linejoin:miter;stroke-miterlimit:4;stroke-dasharray:none;stroke-opacity:1"
               d="m 3833.723,1414.801 5.133,8.891 h -5.132 l -5.137,-10e-4 2.57,-4.449 2.566,-4.444 z" />
          </g>
          <g
             transform="matrix(0.948266,-8.55082e-4,-8.10845e-4,-1,0,1984.252)"
             id="g2790">
            <path
               id="path2792"
               style="fill:#005089;fill-opacity:1;fill-rule:nonzero;stroke:#373737;stroke-width:1.18681204;stroke-linecap:butt;stroke-linejoin:miter;stroke-miterlimit:4;stroke-dasharray:none;stroke-opacity:1"
               d="m 3937.839,1240.43 5.141,8.902 h -5.141 l -5.137,10e-4 2.567,-4.452 z" />
          </g>
          <g
             transform="matrix(0.948266,-0.0407976,-0.038687,-1,0,1984.252)"
             id="g2794">
            <path
               id="path2796"
               style="fill:#005089;fill-opacity:1;fill-rule:nonzero;stroke:#373737;stroke-width:1.18582594;stroke-linecap:butt;stroke-linejoin:miter;stroke-miterlimit:4;stroke-dasharray:none;stroke-opacity:1"
               d="m 4003.815,1080.845 2.567,4.446 2.57,4.446 h -5.136 -5.133 l 2.566,-4.448 2.566,-4.445 z" />
          </g>
          <g
             transform="matrix(0.948266,-0.105949,-0.100468,-1,0,1984.252)"
             id="g2798">
            <path
               id="path2800"
               style="fill:#005089;fill-opacity:1;fill-rule:nonzero;stroke:#373737;stroke-width:1.18020594;stroke-linecap:butt;stroke-linejoin:miter;stroke-miterlimit:4;stroke-dasharray:none;stroke-opacity:1"
               d="m 4092.72,813.332 2.558,4.428 2.553,4.425 -5.108,-0.002 -5.112,0.003 z" />
          </g>
          <g
             transform="matrix(0.948266,-0.176069,-0.16696,-1,0,1984.252)"
             id="g2802">
            <path
               id="path2804"
               style="fill:#1f1a17;fill-opacity:1;fill-rule:nonzero;stroke:#373737;stroke-width:1.16883302;stroke-linecap:butt;stroke-linejoin:miter;stroke-miterlimit:4;stroke-dasharray:none;stroke-opacity:1"
               d="m 3967.629,579.364 1.717,3.479 3.842,0.558 -2.781,2.709 0.657,3.825 -3.432,-1.805 -3.439,1.804 0.657,-3.822 -2.78,-2.71 3.844,-0.56 z" />
          </g>
          <g
             transform="matrix(0.948266,-0.176069,-0.16696,-1,0,1984.252)"
             id="g2806">
            <path
               id="path2808"
               style="fill:#1f1a17;fill-opacity:1;fill-rule:nonzero;stroke:#373737;stroke-width:1.16883302;stroke-linecap:butt;stroke-linejoin:miter;stroke-miterlimit:4;stroke-dasharray:none;stroke-opacity:1"
               d="m 4003.823,598.699 1.718,3.483 3.842,0.557 -2.781,2.709 0.657,3.826 -3.437,-1.809 -3.434,1.807 0.656,-3.826 -2.779,-2.706 3.84,-0.559 z" />
          </g>
          <g
             transform="matrix(0.948266,-0.176069,-0.16696,-1,0,1984.252)"
             id="g2810">
            <path
               id="path2812"
               style="fill:#1f1a17;fill-opacity:1;fill-rule:nonzero;stroke:#373737;stroke-width:1.16883302;stroke-linecap:butt;stroke-linejoin:miter;stroke-miterlimit:4;stroke-dasharray:none;stroke-opacity:1"
               d="m 4013.243,553.583 1.721,3.479 3.838,0.558 -2.777,2.708 0.653,3.826 -3.432,-1.806 -3.435,1.804 0.653,-3.822 -2.78,-2.709 3.844,-0.56 z" />
          </g>
          <g
             transform="matrix(0.948266,-0.176069,-0.16696,-1,0,1984.252)"
             id="g2814">
            <path
               id="path2816"
               style="fill:#1f1a17;fill-opacity:1;fill-rule:nonzero;stroke:#373737;stroke-width:1.16883302;stroke-linecap:butt;stroke-linejoin:miter;stroke-miterlimit:4;stroke-dasharray:none;stroke-opacity:1"
               d="m 4050.926,630.433 1.716,3.479 3.843,0.558 -2.782,2.708 0.657,3.826 -3.436,-1.805 -3.435,1.804 0.658,-3.823 -2.78,-2.71 3.84,-0.559 z" />
          </g>
          <g
             transform="matrix(0.948266,-0.176069,-0.16696,-1,0,1984.252)"
             id="g2818">
            <path
               id="path2820"
               style="fill:#1f1a17;fill-opacity:1;fill-rule:nonzero;stroke:#373737;stroke-width:1.16883302;stroke-linecap:butt;stroke-linejoin:miter;stroke-miterlimit:4;stroke-dasharray:none;stroke-opacity:1"
               d="m 4022.168,576.387 1.717,3.483 3.843,0.557 -2.781,2.709 0.657,3.826 -3.436,-1.806 -3.436,1.804 0.657,-3.826 -2.779,-2.706 3.84,-0.559 z" />
          </g>
        </g>
        <g
           transform="matrix(0.35277781,0,0,-0.35277781,-1278.4317,153.95359)"
           id="g13160">
          <g
             id="g9538"
             transform="matrix(0.43822648,0,0,0.43822648,2058.0763,-261.85398)">
            <g
               id="g2822"
               transform="matrix(0.948266,0.118446,0.112319,-1,0,1984.252)">
              <path
                 d="m 4088.635,1704.553 c -62.475,-15.611 -125.266,-22.915 -187.148,-22.526 l 0.946,141.455 c 50.269,-0.315 101.281,5.614 152.038,18.294 z"
                 style="fill:#ffffff;fill-opacity:1;fill-rule:nonzero;stroke:#373737;stroke-width:1.17857301;stroke-linecap:butt;stroke-linejoin:miter;stroke-miterlimit:4;stroke-dasharray:none;stroke-opacity:1"
                 id="path2824" />
            </g>
            <path
               d="m 4067.145,752.229 c -60.036,8.082 -119.465,7.906 -177.18,0.312 l 15.39,-129.543 c 47.633,6.27 96.672,6.383 146.227,-0.285 z"
               style="fill:#005089;fill-opacity:0.22666704;fill-rule:nonzero;stroke:none"
               id="path2826" />
            <g
               id="g2828"
               transform="matrix(0.948266,0.118446,0.112319,-1,0,1984.252)">
              <path
                 d="m 4085.783,1715.969 c -61.49,-15.365 -123.316,-22.512 -184.224,-22.133 l 0.874,129.646 c 50.269,-0.315 101.281,5.614 152.038,18.294 z"
                 style="fill:none;stroke:#373737;stroke-width:1.16015804;stroke-linecap:butt;stroke-linejoin:miter;stroke-miterlimit:4;stroke-dasharray:none;stroke-opacity:1"
                 id="path2830" />
            </g>
            <path
               d="m 4062.906,716.893 c -57.191,7.695 -113.769,7.55 -168.746,0.312 l 11.195,-94.207 c 47.633,6.27 96.672,6.383 146.227,-0.285 z"
               style="fill:#005089;fill-opacity:0.22666704;fill-rule:nonzero;stroke:none"
               id="path2832" />
            <g
               id="g2834"
               transform="matrix(0.948266,0.118446,0.112319,-1,0,1984.252)">
              <path
                 d="m 4077.248,1750.294 c -58.578,-14.634 -117.434,-21.46 -175.454,-21.094 l 0.639,94.282 c 50.269,-0.315 101.281,5.614 152.038,18.294 z"
                 style="fill:none;stroke:#373737;stroke-width:1.104913;stroke-linecap:butt;stroke-linejoin:miter;stroke-miterlimit:4;stroke-dasharray:none;stroke-opacity:1"
                 id="path2836" />
            </g>
            <path
               d="m 4060.781,699.205 c -55.746,7.504 -110.929,7.383 -164.523,0.332 l 9.097,-76.539 c 47.633,6.27 96.672,6.383 146.227,-0.285 z"
               style="fill:#005089;fill-opacity:0.22666704;fill-rule:nonzero;stroke:none"
               id="path2838" />
            <g
               id="g2840"
               transform="matrix(0.948266,0.118446,0.112319,-1,0,1984.252)">
              <path
                 d="m 4072.972,1767.475 c -57.097,-14.267 -114.501,-20.945 -171.06,-20.593 l 0.521,76.6 c 50.269,-0.315 101.281,5.614 152.038,18.294 z"
                 style="fill:none;stroke:#373737;stroke-width:1.07729006;stroke-linecap:butt;stroke-linejoin:miter;stroke-miterlimit:4;stroke-dasharray:none;stroke-opacity:1"
                 id="path2842" />
            </g>
            <g
               id="g2844"
               transform="matrix(-0.948266,-0.0819256,-0.0776872,1,0,1984.252)">
              <path
                 d="m -4029.549,-1615.275 5.123,8.872 -5.12,-10e-4 h -5.125 l 2.563,-4.439 2.559,-4.434 z"
                 style="fill:#005089;fill-opacity:1;fill-rule:nonzero;stroke:#373737;stroke-width:1.18284905;stroke-linecap:butt;stroke-linejoin:miter;stroke-miterlimit:4;stroke-dasharray:none;stroke-opacity:1"
                 id="path2846" />
            </g>
            <g
               id="g2848"
               transform="matrix(-0.948266,-0.0385649,-0.0365697,1,0,1984.252)">
              <path
                 d="m -4105.465,-1414.71 5.135,8.894 -5.136,10e-4 -5.133,10e-4 2.565,-4.448 z"
                 style="fill:#005089;fill-opacity:1;fill-rule:nonzero;stroke:#373737;stroke-width:1.18593001;stroke-linecap:butt;stroke-linejoin:miter;stroke-miterlimit:4;stroke-dasharray:none;stroke-opacity:1"
                 id="path2850" />
            </g>
            <g
               id="g2852"
               transform="matrix(-0.948266,0.00662876,0.00628583,1,0,1984.252)">
              <path
                 d="m -4208.476,-1213.146 2.567,4.452 2.571,4.448 h -5.141 l -5.137,-10e-4 5.14,-8.901 z"
                 style="fill:#005089;fill-opacity:1;fill-rule:nonzero;stroke:#373737;stroke-width:1.18678606;stroke-linecap:butt;stroke-linejoin:miter;stroke-miterlimit:4;stroke-dasharray:none;stroke-opacity:1"
                 id="path2854" />
            </g>
            <g
               id="g2856"
               transform="matrix(0.948266,-0.0465822,-0.0441724,-1,0,1984.252)">
              <path
                 d="m 4269.655,1004.032 2.567,4.443 2.564,4.447 -10.266,10e-4 2.565,-4.447 z"
                 style="fill:#005089;fill-opacity:1;fill-rule:nonzero;stroke:#373737;stroke-width:1.18552697;stroke-linecap:butt;stroke-linejoin:miter;stroke-miterlimit:4;stroke-dasharray:none;stroke-opacity:1"
                 id="path2858" />
            </g>
            <g
               id="g2860"
               transform="matrix(-0.948266,0.111791,0.106008,1,0,1984.252)">
              <path
                 d="m -4339.796,-820.028 2.55,4.422 2.554,4.422 h -5.108 l -5.104,10e-4 z"
                 style="fill:#005089;fill-opacity:1;fill-rule:nonzero;stroke:#373737;stroke-width:1.17946506;stroke-linecap:butt;stroke-linejoin:miter;stroke-miterlimit:4;stroke-dasharray:none;stroke-opacity:1"
                 id="path2862" />
            </g>
            <g
               id="g2864"
               transform="matrix(0.948266,-0.182028,-0.172611,-1,0,1984.252)">
              <path
                 d="m 4339.013,453.757 1.715,3.473 3.838,0.559 -2.778,2.705 0.659,3.822 -3.435,-1.805 -3.428,1.804 0.656,-3.819 -2.78,-2.709 3.838,-0.554 z"
                 style="fill:#1f1a17;fill-opacity:1;fill-rule:nonzero;stroke:#373737;stroke-width:1.16762602;stroke-linecap:butt;stroke-linejoin:miter;stroke-miterlimit:4;stroke-dasharray:none;stroke-opacity:1"
                 id="path2866" />
            </g>
            <g
               id="g2868"
               transform="matrix(0.948266,-0.182028,-0.172611,-1,0,1984.252)">
              <path
                 d="m 4299.438,512.594 1.716,3.476 3.837,0.556 -2.777,2.709 0.653,3.818 -3.429,-1.801 -3.433,1.804 0.656,-3.822 -2.775,-2.706 3.836,-0.558 z"
                 style="fill:#1f1a17;fill-opacity:1;fill-rule:nonzero;stroke:#373737;stroke-width:1.16762602;stroke-linecap:butt;stroke-linejoin:miter;stroke-miterlimit:4;stroke-dasharray:none;stroke-opacity:1"
                 id="path2870" />
            </g>
            <g
               id="g2872"
               transform="matrix(0.948266,-0.182028,-0.172611,-1,0,1984.252)">
              <path
                 d="m 4273.172,471.969 1.716,3.472 3.834,0.56 -2.775,2.705 0.655,3.822 -3.431,-1.805 -3.432,1.804 0.656,-3.819 -2.776,-2.709 3.838,-0.554 z"
                 style="fill:#1f1a17;fill-opacity:1;fill-rule:nonzero;stroke:#373737;stroke-width:1.16762602;stroke-linecap:butt;stroke-linejoin:miter;stroke-miterlimit:4;stroke-dasharray:none;stroke-opacity:1"
                 id="path2874" />
            </g>
          </g>
        </g>
        <g
           transform="matrix(0.17390692,0,0,-0.17390692,-643.86565,266.18911)"
           id="g13129">
          <g
             transform="matrix(0.948266,0.118594,0.112459,-1,0,1984.252)"
             id="g2876">
            <path
               id="path2878"
               style="fill:#ffffff;fill-opacity:1;fill-rule:nonzero;stroke:#373737;stroke-width:1.17855299;stroke-linecap:butt;stroke-linejoin:miter;stroke-miterlimit:4;stroke-dasharray:none;stroke-opacity:1"
               d="m 4332.04,1824.83 c -15.62,-3.899 -41.155,-3.041 -56.797,-5.915 -15.638,-2.875 -21.026,-25.037 -36.644,-26.901 -15.622,-1.864 -29.811,16.566 -45.374,15.693 -15.566,-0.873 -32.859,-5.498 -48.33,-5.403 l 0.942,141.455 c 50.273,-0.315 101.284,5.613 152.039,18.293 z" />
          </g>
          <path
             id="path2880"
             style="fill:#005089;fill-opacity:0.22666704;fill-rule:nonzero;stroke:none"
             d="m 4311.727,661.424 c -15.012,2.015 -43.766,2.152 -58.684,3.152 -14.914,1 -16.469,7.102 -31.258,7.11 -14.789,0.003 -32.015,-14.415 -46.64,-15.375 -14.625,-0.961 -26.172,7.296 -40.602,5.394 l 15.406,-129.539 c 47.637,6.277 96.676,6.398 146.231,-0.262 z" />
          <g
             transform="matrix(0.948266,0.118594,0.112459,-1,0,1984.252)"
             id="g2882">
            <path
               id="path2884"
               style="fill:none;stroke:#373737;stroke-width:1.16013801;stroke-linecap:butt;stroke-linejoin:miter;stroke-miterlimit:4;stroke-dasharray:none;stroke-opacity:1"
               d="m 4329.19,1836.246 c -15.375,-3.839 -45.261,-7.52 -60.658,-10.346 -15.392,-2.825 -16.296,-9.034 -31.674,-10.866 -15.379,-1.828 -34.98,10.266 -50.301,9.41 -15.322,-0.856 -26.364,-10.424 -41.592,-10.327 l 0.872,129.642 c 50.273,-0.315 101.284,5.613 152.039,18.293 z" />
          </g>
          <path
             id="path2886"
             style="fill:#005089;fill-opacity:0.22666704;fill-rule:nonzero;stroke:none"
             d="m 4307.488,626.084 c -14.297,1.922 -35.734,0.664 -49.937,1.617 -14.207,0.953 -32.578,23.844 -46.66,23.852 -14.082,0.008 -25.524,-11.242 -39.453,-12.157 -13.93,-0.91 -18.95,-11.214 -32.692,-13.027 l 11.203,-94.203 c 47.637,6.277 96.676,6.398 146.231,-0.262 z" />
          <g
             transform="matrix(0.948266,0.118594,0.112459,-1,0,1984.252)"
             id="g2888">
            <path
               id="path2890"
               style="fill:none;stroke:#373737;stroke-width:1.10489297;stroke-linecap:butt;stroke-linejoin:miter;stroke-miterlimit:4;stroke-dasharray:none;stroke-opacity:1"
               d="m 4320.65,1870.573 c -14.643,-3.658 -37.084,-5.062 -51.742,-7.753 -14.663,-2.693 -31.091,-27.531 -45.734,-29.276 -14.644,-1.744 -27.858,7.939 -42.45,7.122 -14.593,-0.82 -21.018,8.722 -35.521,8.815 l 0.634,94.278 c 50.273,-0.315 101.284,5.613 152.039,18.293 z" />
          </g>
          <path
             id="path2892"
             style="fill:#005089;fill-opacity:0.22666704;fill-rule:nonzero;stroke:none"
             d="m 4305.367,608.396 c -13.937,1.875 -25.219,-13.964 -39.07,-13.035 -13.852,0.934 -40.715,35.969 -54.449,35.981 -13.731,0.012 -19.852,-13.11 -33.43,-14 -13.582,-0.887 -24.176,-6.875 -37.574,-8.641 l 9.105,-76.535 c 47.637,6.277 96.676,6.398 146.231,-0.262 z" />
          <g
             transform="matrix(0.948266,0.118594,0.112459,-1,0,1984.252)"
             id="g2894">
            <path
               id="path2896"
               style="fill:none;stroke:#373737;stroke-width:1.07727098;stroke-linecap:butt;stroke-linejoin:miter;stroke-miterlimit:4;stroke-dasharray:none;stroke-opacity:1"
               d="m 4316.376,1887.754 c -14.275,-3.568 -27.859,10.661 -42.155,8.035 -14.296,-2.628 -38.134,-40.491 -52.416,-42.196 -14.277,-1.705 -22.177,10.479 -36.402,9.683 -14.228,-0.801 -25.945,3.798 -40.085,3.887 l 0.519,76.596 c 50.273,-0.315 101.284,5.613 152.039,18.293 z" />
          </g>
          <g
             transform="matrix(0.948266,0.0820727,0.0778267,-1,0,1984.252)"
             id="g2898">
            <path
               id="path2900"
               style="fill:#005089;fill-opacity:1;fill-rule:nonzero;stroke:#373737;stroke-width:1.18283498;stroke-linecap:butt;stroke-linejoin:miter;stroke-miterlimit:4;stroke-dasharray:none;stroke-opacity:1"
               d="m 4271.025,1649.527 2.561,4.433 2.561,4.436 h -5.121 -5.124 l 2.564,-4.434 2.559,-4.434 z" />
          </g>
          <g
             transform="matrix(0.948266,0.0387112,0.0367085,-1,0,1984.252)"
             id="g2902">
            <path
               id="path2904"
               style="fill:#005089;fill-opacity:1;fill-rule:nonzero;stroke:#373737;stroke-width:1.18592405;stroke-linecap:butt;stroke-linejoin:miter;stroke-miterlimit:4;stroke-dasharray:none;stroke-opacity:1"
               d="m 4393.713,1448.965 5.134,8.894 h -5.137 l -5.132,10e-4 2.565,-4.448 z" />
          </g>
          <g
             transform="matrix(0.948266,0.0432277,0.0409913,-1,0,1984.252)"
             id="g2906">
            <path
               id="path2908"
               style="fill:#005089;fill-opacity:1;fill-rule:nonzero;stroke:#373737;stroke-width:1.18570495;stroke-linecap:butt;stroke-linejoin:miter;stroke-miterlimit:4;stroke-dasharray:none;stroke-opacity:1"
               d="m 4457.563,1492.448 5.136,8.894 h -5.137 -5.133 l 2.569,-4.443 2.565,-4.448 z" />
          </g>
          <g
             transform="matrix(0.948266,-0.181877,-0.172468,-1,0,1984.252)"
             id="g2910">
            <path
               id="path2912"
               style="fill:#1f1a17;fill-opacity:1;fill-rule:nonzero;stroke:#373737;stroke-width:1.16765702;stroke-linecap:butt;stroke-linejoin:miter;stroke-miterlimit:4;stroke-dasharray:none;stroke-opacity:1"
               d="m 4521.703,557.779 1.716,3.477 3.837,0.556 -2.778,2.708 0.653,3.819 -3.429,-1.802 -3.433,1.804 0.656,-3.822 -2.775,-2.707 3.837,-0.557 z" />
          </g>
          <g
             transform="matrix(0.948266,-0.181877,-0.172468,-1,0,1984.252)"
             id="g2914">
            <path
               id="path2916"
               style="fill:#1f1a17;fill-opacity:1;fill-rule:nonzero;stroke:#373737;stroke-width:1.16765702;stroke-linecap:butt;stroke-linejoin:miter;stroke-miterlimit:4;stroke-dasharray:none;stroke-opacity:1"
               d="m 4536.51,537.93 1.716,3.477 3.837,0.556 -2.778,2.708 0.658,3.818 -3.434,-1.801 -3.429,1.803 0.652,-3.822 -2.774,-2.706 3.837,-0.557 z" />
          </g>
          <g
             transform="matrix(-0.948266,-0.0308359,-0.0292406,1,0,1984.252)"
             id="g2918">
            <path
               id="path2920"
               style="fill:#005089;fill-opacity:1;fill-rule:nonzero;stroke:#373737;stroke-width:1.18624794;stroke-linecap:butt;stroke-linejoin:miter;stroke-miterlimit:4;stroke-dasharray:none;stroke-opacity:1"
               d="m -4341.851,-1475.256 2.569,4.447 2.569,4.45 h -5.137 -5.136 l 5.135,-8.896 z" />
          </g>
          <g
             transform="matrix(-0.948266,0.00441326,0.00418495,1,0,1984.252)"
             id="g2922">
            <path
               id="path2924"
               style="fill:#005089;fill-opacity:1;fill-rule:nonzero;stroke:#373737;stroke-width:1.1868;stroke-linecap:butt;stroke-linejoin:miter;stroke-miterlimit:4;stroke-dasharray:none;stroke-opacity:1"
               d="m -4514.873,-1325.239 5.14,8.899 h -5.137 l -5.141,-10e-4 2.571,-4.453 2.567,-4.449 z" />
          </g>
          <g
             transform="matrix(0.948266,-0.181877,-0.172468,-1,0,1984.252)"
             id="g2926">
            <path
               id="path2928"
               style="fill:#1f1a17;fill-opacity:1;fill-rule:nonzero;stroke:#373737;stroke-width:1.16765702;stroke-linecap:butt;stroke-linejoin:miter;stroke-miterlimit:4;stroke-dasharray:none;stroke-opacity:1"
               d="m 4571.076,570.545 1.716,3.477 3.834,0.561 -2.775,2.704 0.654,3.822 -3.43,-1.806 -3.433,1.804 0.657,-3.818 -2.775,-2.707 3.837,-0.557 z" />
          </g>
          <g
             transform="matrix(0.948266,-0.181877,-0.172468,-1,0,1984.252)"
             id="g2930">
            <path
               id="path2932"
               style="fill:#1f1a17;fill-opacity:1;fill-rule:nonzero;stroke:#373737;stroke-width:1.16765702;stroke-linecap:butt;stroke-linejoin:miter;stroke-miterlimit:4;stroke-dasharray:none;stroke-opacity:1"
               d="m 4551.185,540.382 1.715,3.477 3.838,0.559 -2.774,2.704 0.654,3.823 -3.431,-1.806 -3.433,1.804 0.657,-3.819 -2.778,-2.705 3.836,-0.557 z" />
          </g>
        </g>
        <g
           transform="translate(-76.9372,13.36013)"
           style="display:inline;opacity:1;fill:#fefefe;fill-opacity:1"
           id="g9166">
          <g
             id="g6436"
             transform="matrix(0.60497819,0,0,0.5913089,96.623978,175.08973)"
             style="fill:#fefefe;fill-opacity:1;stroke:none;stroke-opacity:1">
            <g
               id="data"
               style="fill:#fefefe;fill-opacity:1;stroke:none;stroke-opacity:1">
              <path
                 id="path6427"
                 d="M 16,0 C 9.256,0 2,1.9886102 2,6.3580748 V 24.943216 c 0,4.367509 7.256,6.358075 14,6.358075 6.743,0 14,-1.990566 14,-6.358075 V 6.3580748 C 30,1.9886102 22.742,0 16,0 Z m 12,24.943216 c 0,2.429763 -5.373,4.401744 -12,4.401744 -6.628,0 -12,-1.971981 -12,-4.401744 v -3.654425 c 2.066,2.082514 7.05,3.165343 12,3.165343 4.95,0 9.934,-1.082829 12,-3.165343 z m 0,-5.868992 h -0.004 c 0,0.0098 0.004,0.02054 0.004,0.03032 0,2.415091 -5.373,4.371421 -12,4.371421 -6.627,0 -12,-1.95633 -12,-4.371421 0,-0.0098 0.004,-0.02054 0.004,-0.03032 H 4 v -3.654425 c 2.066,2.082514 7.05,3.165343 12,3.165343 4.95,0 9.934,-1.082829 12,-3.165343 z m 0,-5.868992 h -0.004 c 0,0.0098 0.004,0.02054 0.004,0.03032 0,2.415091 -5.373,4.371421 -12,4.371421 -6.627,0 -12,-1.95633 -12,-4.371421 0,-0.0098 0.004,-0.02054 0.004,-0.03032 H 4 V 9.8442561 c 2.621,1.9533959 7.425,2.8718939 12,2.8718939 4.575,0 9.379,-0.918498 12,-2.8718939 z M 16,10.759819 c -6.628,0 -12,-1.9719815 -12,-4.4017442 0,-2.4317191 5.372,-4.4017441 12,-4.4017441 6.627,0 12,1.970025 12,4.4017441 0,2.4297627 -5.373,4.4017442 -12,4.4017442 z"
                 style="fill:#fefefe;fill-opacity:1;stroke:none;stroke-opacity:1" />
              <circle
                 id="circle6429"
                 r="1"
                 cy="26"
                 cx="25"
                 style="fill:#fefefe;fill-opacity:1;stroke:none;stroke-opacity:1" />
              <circle
                 id="circle6431"
                 r="1"
                 cy="20"
                 cx="25"
                 style="fill:#fefefe;fill-opacity:1;stroke:none;stroke-opacity:1" />
              <circle
                 id="circle6433"
                 r="1"
                 cy="14"
                 cx="25"
                 style="fill:#fefefe;fill-opacity:1;stroke:none;stroke-opacity:1" />
            </g>
          </g>
          <text
             id="text7113"
             y="184.89441"
             x="151.83308"
             style="font-style:normal;font-weight:normal;line-height:0%;font-family:sans-serif;letter-spacing:0px;word-spacing:0px;opacity:1;fill:#fefefe;fill-opacity:1;stroke:none;stroke-width:0.26458332px;stroke-linecap:butt;stroke-linejoin:miter;stroke-opacity:1"
             xml:space="preserve"><tspan
               style="font-style:normal;font-variant:normal;font-weight:normal;font-stretch:normal;font-size:8.46666718px;line-height:100%;font-family:Roboto;-inkscape-font-specification:Roboto;text-align:center;text-anchor:middle;stroke-width:0.26458332px;fill:#fefefe;fill-opacity:1"
               y="184.89441"
               x="151.83308"
               id="tspan7111">Green's function</tspan><tspan
               id="tspan3622"
               style="font-style:normal;font-variant:normal;font-weight:normal;font-stretch:normal;font-size:8.46666718px;line-height:100%;font-family:Roboto;-inkscape-font-specification:Roboto;text-align:center;text-anchor:middle;stroke-width:0.26458332px;fill:#fefefe;fill-opacity:1"
               y="193.36108"
               x="151.83308">database</tspan></text>
        </g>
      </g>
    </g>
  </g>
</svg>
