<?xml version="1.0" encoding="UTF-8" standalone="no"?>
<svg
   xmlns:dc="http://purl.org/dc/elements/1.1/"
   xmlns:cc="http://creativecommons.org/ns#"
   xmlns:rdf="http://www.w3.org/1999/02/22-rdf-syntax-ns#"
   xmlns:svg="http://www.w3.org/2000/svg"
   xmlns="http://www.w3.org/2000/svg"
   xmlns:sodipodi="http://sodipodi.sourceforge.net/DTD/sodipodi-0.dtd"
   xmlns:inkscape="http://www.inkscape.org/namespaces/inkscape"
   id="svg6759"
   version="1.1"
   viewBox="0 0 105.28841 82.90567"
   height="82.90567mm"
   width="105.28841mm"
   sodipodi:docname="gf_sources.svg"
   inkscape:version="0.92.2 (5c3e80d, 2017-08-06)">
  <sodipodi:namedview
     pagecolor="#000000"
     bordercolor="#666666"
     borderopacity="1"
     objecttolerance="10"
     gridtolerance="10"
     guidetolerance="10"
     inkscape:pageopacity="0"
     inkscape:pageshadow="2"
     inkscape:window-width="1364"
     inkscape:window-height="689"
     id="namedview8644"
     showgrid="false"
     inkscape:zoom="0.75316521"
     inkscape:cx="38.978759"
     inkscape:cy="156.67213"
     inkscape:window-x="0"
     inkscape:window-y="24"
     inkscape:window-maximized="1"
     inkscape:current-layer="layer1" />
  <defs
     id="defs6753">
    <clipPath
       clipPathUnits="userSpaceOnUse"
       id="clipPath2330">
      <path
         d="m 3451,1249.252 h 103 v -108 h -103 z"
         id="path2332" />
    </clipPath>
    <clipPath
       clipPathUnits="userSpaceOnUse"
       id="clipPath2336">
      <path
         d="m 3451.723,1226.982 81.031,21.914 20.781,-85.453 -81.031,-21.91 z"
         id="path2338" />
    </clipPath>
    <clipPath
       clipPathUnits="userSpaceOnUse"
       id="clipPath2344">
      <path
         d="m 3462,1153 h 82 v 86 h -82 z"
         id="path2346" />
    </clipPath>
    <clipPath
       clipPathUnits="userSpaceOnUse"
       id="clipPath2362">
      <path
         d="m 3462,1153 h 49 v 74 h -49 z"
         id="path2364" />
    </clipPath>
    <clipPath
       clipPathUnits="userSpaceOnUse"
       id="clipPath2380">
      <path
         d="m 3493,1174 h 51 v 65 h -51 z"
         id="path2382" />
    </clipPath>
    <clipPath
       clipPathUnits="userSpaceOnUse"
       id="clipPath2398">
      <path
         d="m 3462,1153 h 49 v 74 h -49 z"
         id="path2400" />
    </clipPath>
    <clipPath
       clipPathUnits="userSpaceOnUse"
       id="clipPath2416">
      <path
         d="m 3493,1175 h 51 v 64 h -51 z"
         id="path2418" />
    </clipPath>
    <clipPath
       clipPathUnits="userSpaceOnUse"
       id="clipPath2434">
      <path
         d="m 3462,1153 h 82 v 86 h -82 z"
         id="path2436" />
    </clipPath>
  </defs>
  <metadata
     id="metadata6756">
    <rdf:RDF>
      <cc:Work
         rdf:about="">
        <dc:format>image/svg+xml</dc:format>
        <dc:type
           rdf:resource="http://purl.org/dc/dcmitype/StillImage" />
        <dc:title></dc:title>
      </cc:Work>
    </rdf:RDF>
  </metadata>
  <g
     transform="translate(-20.914403,-5.6250441)"
     id="layer1">
    <g
       transform="translate(-123.37321,-103.66923)"
       id="g7109"
       style="display:inline;opacity:1">
      <g
         id="g2482"
         transform="matrix(0.33452715,0,0,0.35277777,-1070.9125,-135.795)">
        <path
           d="m 3798.813,748.977 c -3.374,8.628 -5.223,18.027 -5.223,27.843 0,9.825 1.845,19.211 5.223,27.844 h 142.699 c 3.378,-8.633 5.223,-18.019 5.223,-27.844 0,-9.816 -1.849,-19.215 -5.223,-27.843 z"
           style="fill:#ffffff;fill-opacity:1;fill-rule:nonzero;stroke:#000000;stroke-width:1.18681204;stroke-linecap:round;stroke-linejoin:round;stroke-miterlimit:4;stroke-dasharray:none;stroke-opacity:1"
           id="path2484" />
      </g>
      <path
         d="m 199.89358,128.42744 c -0.11853,0.31962 -0.2286,0.64206 -0.33479,0.96732 -0.0289,0.32667 -0.0621,0.65299 -0.0801,0.98249 -0.11571,3.2011 0.32138,6.27697 1.22943,9.25477 0.87771,2.5273 2.07398,4.82176 3.63114,6.89856 0.40217,0.5334 0.82409,1.04599 1.25942,1.542 h 36.32659 c 1.5501,-1.74026 2.83315,-3.71934 3.82799,-5.84024 1.43192,-2.9531 2.07116,-6.21347 2.29164,-9.49184 0.0332,-1.12571 0.0138,-2.23802 -0.073,-3.33904 -0.10724,-0.32773 -0.22189,-0.65158 -0.34149,-0.97402 z"
         style="fill:#000000;fill-opacity:0.08235288;fill-rule:nonzero;stroke:none;stroke-width:0.35277775"
         id="path2486" />
      <g
         id="g2488"
         transform="matrix(0.33452715,0,0,0.35277777,-1070.9125,-135.795)">
        <path
           d="m 3798.813,748.977 c -0.354,0.906 -0.684,1.82 -1.001,2.742 -0.086,0.926 -0.185,1.851 -0.239,2.785 -0.346,9.074 0.96,17.793 3.675,26.234 2.624,7.164 6.199,13.668 10.854,19.555 1.203,1.512 2.463,2.965 3.765,4.371 h 108.591 c 4.634,-4.934 8.469,-10.543 11.443,-16.555 4.28,-8.371 6.192,-17.613 6.851,-26.906 0.099,-3.191 0.041,-6.344 -0.219,-9.465 -0.321,-0.929 -0.663,-1.847 -1.021,-2.761 z"
           style="fill:none;stroke:#000000;stroke-width:1.18681204;stroke-linecap:butt;stroke-linejoin:miter;stroke-miterlimit:4;stroke-dasharray:none;stroke-opacity:1"
           id="path2490" />
      </g>
      <path
         d="m 206.82108,128.42744 c -0.44521,1.40829 -0.7359,2.8702 -0.85161,4.36704 -0.65334,5.82471 1.93322,11.51043 6.06178,15.2781 h 23.48336 c 4.08446,-3.70135 6.62269,-9.32251 6.06883,-15.07173 -0.0825,-1.56809 -0.37359,-3.09915 -0.83643,-4.57341 z"
         style="fill:#000000;fill-opacity:0.08235288;fill-rule:nonzero;stroke:none;stroke-width:0.35277775"
         id="path2492" />
      <g
         id="g2494"
         transform="matrix(0.33452715,0,0,0.35277777,-1070.9125,-135.795)">
        <path
           d="m 3819.521,748.977 c -1.33,3.992 -2.2,8.136 -2.546,12.378 -1.952,16.512 5.78,32.629 18.121,43.309 h 70.198 c 12.21,-10.492 19.798,-26.426 18.142,-42.723 -0.247,-4.445 -1.116,-8.785 -2.5,-12.964 z"
           style="fill:none;stroke:#000000;stroke-width:1.18681204;stroke-linecap:butt;stroke-linejoin:miter;stroke-miterlimit:4;stroke-dasharray:none;stroke-opacity:1"
           id="path2496" />
      </g>
      <path
         d="m 214.75293,128.42744 c -0.19826,0.25471 -0.38982,0.51118 -0.56762,0.77576 -1.13982,1.82316 -1.93357,3.98921 -2.11808,6.26181 -0.38311,3.19299 0.99096,6.40079 2.94076,8.67198 1.61502,1.81222 3.74403,3.27413 6.06884,3.93559 h 5.37704 c 2.5273,-0.7165 4.80518,-2.3495 6.45477,-4.36563 1.30351,-1.74166 2.34668,-3.84069 2.56858,-6.1475 0.26881,-3.27695 -0.77294,-6.57578 -2.69946,-9.13201 z"
         style="fill:#000000;fill-opacity:0.08235288;fill-rule:nonzero;stroke:none;stroke-width:0.35277775"
         id="path2498" />
      <g
         id="g2500"
         transform="matrix(0.33452715,0,0,0.35277777,-1070.9125,-135.795)">
        <path
           d="m 3843.232,748.977 c -0.593,0.722 -1.166,1.449 -1.697,2.199 -3.407,5.168 -5.78,11.308 -6.332,17.75 -1.145,9.051 2.962,18.144 8.791,24.582 4.828,5.137 11.193,9.281 18.142,11.156 h 16.074 c 7.555,-2.031 14.364,-6.66 19.295,-12.375 3.897,-4.937 7.015,-10.887 7.678,-17.426 0.803,-9.289 -2.311,-18.64 -8.07,-25.886 z"
           style="fill:none;stroke:#000000;stroke-width:1.18681204;stroke-linecap:butt;stroke-linejoin:miter;stroke-miterlimit:4;stroke-dasharray:none;stroke-opacity:1"
           id="path2502" />
      </g>
      <path
         d="m 222.96066,131.20698 c 2.20486,-0.43709 4.29401,1.01529 5.53261,2.77107 1.06116,1.68134 1.58362,4.03895 0.50871,5.81801 -1.10808,2.17734 -3.39549,3.86256 -5.81801,3.61068 -2.67476,-0.514 -4.84682,-2.77142 -5.25181,-5.59082 -0.0635,-3.09633 2.14983,-5.97676 5.0285,-6.60894 z"
         style="fill:#000000;fill-opacity:0.08235288;fill-rule:nonzero;stroke:none;stroke-width:0.35277775"
         id="path2504" />
      <g
         id="g2506"
         transform="matrix(0.33452715,0,0,0.35277777,-1070.9125,-135.795)">
        <path
           d="m 3867.767,756.855 c 6.591,-1.238 12.836,2.879 16.539,7.856 3.172,4.766 4.733,11.449 1.52,16.492 -3.312,6.172 -10.15,10.949 -17.392,10.235 -7.995,-1.458 -14.487,-7.856 -15.699,-15.848 -0.189,-8.778 6.427,-16.942 15.032,-18.735 z"
           style="fill:none;stroke:#000000;stroke-width:1.18681204;stroke-linecap:butt;stroke-linejoin:miter;stroke-miterlimit:4;stroke-dasharray:none;stroke-opacity:1"
           id="path2508" />
      </g>
      <g
         id="g2510"
         transform="matrix(0.33452715,0,0,0.35277777,-1070.9125,-135.795)">
        <path
           d="m 3871.553,776.125 c 0,0.77 -0.622,1.391 -1.393,1.391 -0.766,0 -1.392,-0.621 -1.392,-1.391 0,-0.77 0.626,-1.391 1.392,-1.391 0.771,0 1.393,0.621 1.393,1.391 z"
           style="fill:#ffffff;fill-opacity:1;fill-rule:nonzero;stroke:#000000;stroke-width:1.18681204;stroke-linecap:round;stroke-linejoin:round;stroke-miterlimit:4;stroke-dasharray:none;stroke-opacity:1"
           id="path2512" />
      </g>
    </g>
    <text
       id="text7117"
       y="88.448029"
       x="47.736057"
       style="font-style:normal;font-weight:normal;font-size:11.99999905px;line-height:0%;font-family:sans-serif;letter-spacing:0px;word-spacing:0px;display:inline;opacity:1;fill:#fdfdfd;fill-opacity:1;stroke:none;stroke-width:0.26458329px;stroke-linecap:butt;stroke-linejoin:miter;stroke-opacity:1;"
       xml:space="preserve"><tspan
         style="font-style:normal;font-variant:normal;font-weight:normal;font-stretch:normal;font-size:8.46666622px;line-height:6.61458302;font-family:Roboto;-inkscape-font-specification:Roboto;stroke-width:0.26458329px;fill:#fdfdfd;fill-opacity:1;"
         y="88.448029"
         x="47.736057"
         id="tspan7115">Source Model</tspan></text>
    <g
       id="g2326"
       transform="matrix(0.21555182,0,0,-0.2155518,-707.8826,304.40393)"
       style="display:inline;opacity:1">
      <g
         clip-path="url(#clipPath2330)"
         id="g2328">
        <g
           clip-path="url(#clipPath2336)"
           id="g2334">
          <g
             transform="translate(0,-0.748047)"
             id="g2340">
            <g
               id="g2342" />
            <g
               id="g2348">
              <g
                 id="g2350"
                 clip-path="url(#clipPath2344)">
                <g
                   id="g2352">
                  <g
                     id="g2354"
                     transform="matrix(0.948266,0.256444,0.243177,-1,0,1985)">
                    <path
                       id="path2356"
                       style="fill:#ffffff;fill-opacity:1;fill-rule:nonzero;stroke:#000000;stroke-width:1.14961302;stroke-linecap:square;stroke-linejoin:round;stroke-miterlimit:4;stroke-dasharray:none;stroke-opacity:1"
                       d="m 3316.623,1628.422 -0.015,-0.711 -0.033,-0.708 -0.044,-0.711 -0.054,-0.705 -0.07,-0.709 -0.079,-0.704 -0.095,-0.704 -0.104,-0.703 -0.117,-0.701 -0.13,-0.698 -0.139,-0.696 -0.155,-0.696 -0.166,-0.687 -0.177,-0.69 -0.191,-0.685 -0.2,-0.681 -0.214,-0.675 -0.227,-0.676 -0.236,-0.666 -0.25,-0.666 -0.259,-0.66 -0.272,-0.659 -0.282,-0.651 -0.296,-0.646 -0.305,-0.641 -0.319,-0.636 -0.329,-0.627 -0.338,-0.626 -0.348,-0.617 -0.362,-0.612 -0.368,-0.606 -0.382,-0.598 -0.392,-0.593 -0.402,-0.587 -0.412,-0.575 -0.426,-0.574 -0.432,-0.564 -0.443,-0.555 -0.448,-0.548 -0.463,-0.541 -0.469,-0.53 -0.48,-0.522 -0.49,-0.516 -0.496,-0.506 -0.507,-0.497 -0.517,-0.492 -0.524,-0.478 -0.53,-0.472 -0.541,-0.459 -0.547,-0.453 -0.558,-0.444 -0.561,-0.429 -0.571,-0.424 -0.578,-0.414 -0.585,-0.4 -0.595,-0.395 -0.599,-0.38 -0.605,-0.37 -0.612,-0.36 -0.619,-0.35 -0.622,-0.339 -0.632,-0.33 -0.636,-0.315 -0.638,-0.305 -0.646,-0.294 -0.652,-0.285 -0.655,-0.273 -0.662,-0.26 -0.666,-0.249 -0.668,-0.237 -0.675,-0.224 -0.675,-0.213 -0.682,-0.202 -0.684,-0.191 -0.688,-0.176 -0.691,-0.166 -0.693,-0.154 -0.697,-0.143 -0.696,-0.128 -0.703,-0.118 -0.702,-0.106 -0.702,-0.09 -0.708,-0.084 -0.707,-0.068 -0.708,-0.053 -0.709,-0.045 -0.709,-0.029 -0.708,-0.018 -0.711,-0.01 h -0.71 l -0.709,0.018 -0.713,0.032 -0.706,0.041 -0.711,0.056 -0.706,0.069 -0.704,0.081 -0.704,0.093 -0.702,0.105 -0.702,0.117 -0.7,0.129 -0.696,0.142 -0.69,0.155 -0.693,0.162 -0.688,0.179 -0.684,0.192 -0.681,0.2 -0.677,0.214 -0.672,0.226 -0.671,0.238 -0.665,0.247 -0.66,0.261 -0.658,0.272 -0.65,0.283 -0.648,0.295 -0.638,0.305 -0.638,0.317 -0.627,0.327 -0.627,0.339 -0.617,0.35 -0.611,0.359 -0.606,0.372 -0.601,0.381 -0.59,0.391 -0.586,0.405 -0.579,0.41 -0.57,0.424 -0.564,0.434 -0.554,0.44 -0.549,0.453 -0.538,0.459 -0.533,0.473 -0.526,0.478 -0.513,0.49 -0.507,0.499 -0.496,0.505 -0.49,0.515 -0.481,0.525 -0.47,0.532 -0.46,0.539 -0.453,0.547 -0.443,0.555 -0.433,0.564 -0.423,0.572 -0.412,0.578 -0.401,0.584 -0.391,0.595 -0.384,0.597 -0.369,0.605 -0.36,0.615 -0.352,0.616 -0.337,0.625 -0.33,0.63 -0.315,0.634 -0.305,0.641 -0.293,0.647 -0.286,0.649 -0.272,0.657 -0.261,0.664 -0.248,0.663 -0.237,0.669 -0.223,0.674 -0.215,0.679 -0.203,0.678 -0.188,0.687 -0.181,0.688 -0.164,0.688 -0.153,0.695 -0.141,0.694 -0.131,0.701 -0.117,0.7 -0.106,0.7 -0.09,0.707 -0.082,0.706 -0.066,0.706 -0.058,0.707 -0.042,0.708 -0.033,0.711 -0.018,0.71 -0.01,0.71 0.01,0.709 0.015,0.711 0.032,0.711 0.046,0.707 0.053,0.709 0.07,0.705 0.078,0.708 0.095,0.704 0.104,0.702 0.118,0.699 0.129,0.701 0.139,0.695 0.156,0.693 0.165,0.69 0.178,0.687 0.191,0.685 0.2,0.681 0.214,0.676 0.227,0.675 0.236,0.67 0.249,0.665 0.259,0.661 0.273,0.655 0.282,0.651 0.296,0.646 0.305,0.641 0.319,0.636 0.324,0.63 0.339,0.622 0.352,0.622 0.358,0.611 0.372,0.604 0.382,0.601 0.392,0.589 0.402,0.588 0.412,0.578 0.422,0.569 0.432,0.564 0.443,0.555 0.452,0.549 0.463,0.541 0.469,0.531 0.479,0.525 0.49,0.516 0.496,0.506 0.507,0.497 0.518,0.489 0.523,0.481 0.531,0.469 0.54,0.462 0.548,0.449 0.558,0.444 0.56,0.433 0.572,0.42 0.578,0.414 0.584,0.404 0.592,0.39 0.603,0.381 0.604,0.374 0.612,0.36 0.619,0.35 0.623,0.335 0.628,0.329 0.636,0.316 0.641,0.309 0.646,0.294 0.653,0.281 0.655,0.273 0.662,0.26 0.666,0.249 0.668,0.238 0.676,0.224 0.673,0.215 0.683,0.199 0.684,0.191 0.687,0.18 0.691,0.165 0.694,0.151 0.697,0.144 0.696,0.127 0.703,0.118 0.702,0.106 0.701,0.094 0.709,0.08 0.707,0.068 0.707,0.056 0.71,0.042 0.708,0.033 0.708,0.018 0.711,0.01 0.711,-0.01 0.709,-0.017 0.712,-0.029 0.708,-0.045 0.706,-0.057 0.71,-0.068 0.704,-0.081 0.703,-0.089 0.702,-0.105 0.702,-0.117 0.696,-0.13 0.7,-0.141 0.69,-0.155 0.694,-0.166 0.684,-0.18 0.687,-0.187 0.683,-0.204 0.676,-0.213 0.672,-0.226 0.67,-0.235 0.666,-0.251 0.66,-0.261 0.654,-0.269 0.653,-0.282 0.644,-0.296 0.643,-0.307 0.637,-0.314 0.628,-0.331 0.623,-0.34 0.621,-0.349 0.611,-0.359 0.606,-0.371 0.597,-0.383 0.594,-0.39 0.585,-0.401 0.576,-0.415 0.574,-0.423 0.563,-0.43 0.555,-0.443 0.549,-0.453 0.538,-0.46 0.533,-0.473 0.522,-0.479 0.517,-0.489 0.506,-0.495 0.497,-0.509 0.491,-0.515 0.479,-0.521 0.47,-0.532 0.461,-0.542 0.453,-0.548 0.443,-0.555 0.429,-0.565 0.423,-0.572 0.416,-0.577 0.401,-0.584 0.39,-0.591 0.381,-0.602 0.373,-0.604 0.359,-0.611 0.353,-0.62 0.337,-0.625 0.326,-0.627 0.319,-0.637 0.305,-0.64 0.293,-0.648 0.286,-0.649 0.272,-0.657 0.26,-0.66 0.249,-0.667 0.238,-0.669 0.222,-0.674 0.214,-0.675 0.204,-0.682 0.188,-0.686 0.176,-0.686 0.169,-0.691 0.152,-0.691 0.142,-0.698 0.13,-0.697 0.118,-0.701 0.102,-0.704 0.094,-0.702 0.082,-0.706 0.066,-0.709 0.058,-0.708 0.042,-0.708 0.03,-0.711 0.02,-0.706 0.01,-0.713 -0.01,-0.709 z" />
                  </g>
                </g>
              </g>
            </g>
          </g>
          <g
             transform="translate(0,-0.748047)"
             id="g2358">
            <g
               id="g2360" />
            <g
               id="g2366">
              <g
                 id="g2368"
                 clip-path="url(#clipPath2362)">
                <g
                   id="g2370">
                  <g
                     id="g2372"
                     transform="matrix(0.948266,0.256444,0.243177,-1,0,1985)">
                    <path
                       id="path2374"
                       style="fill:#005089;fill-opacity:1;fill-rule:nonzero;stroke:#000000;stroke-width:1.14961302;stroke-linecap:square;stroke-linejoin:round;stroke-miterlimit:4;stroke-dasharray:none;stroke-opacity:1"
                       d="m 3235.271,1630.536 0.029,0.613 0.032,0.613 0.044,0.613 0.057,0.616 0.06,0.602 0.071,0.604 0.078,0.594 0.09,0.598 0.094,0.582 0.106,0.582 0.108,0.575 0.118,0.569 0.128,0.56 0.129,0.557 0.14,0.547 0.144,0.545 0.152,0.535 0.157,0.529 0.162,0.522 0.169,0.516 0.171,0.504 0.181,0.5 0.179,0.491 0.188,0.486 0.188,0.474 0.196,0.472 0.199,0.461 0.199,0.458 0.415,0.887 0.423,0.859 0.215,0.414 0.22,0.412 0.218,0.403 0.223,0.398 0.453,0.772 0.225,0.374 0.228,0.367 0.228,0.363 0.234,0.357 0.229,0.344 0.232,0.345 0.232,0.333 0.236,0.334 0.231,0.321 0.235,0.318 0.234,0.31 0.235,0.306 0.232,0.298 0.237,0.295 0.232,0.286 0.236,0.283 0.234,0.279 0.235,0.271 0.466,0.53 0.462,0.509 0.464,0.49 0.46,0.47 0.456,0.453 0.453,0.436 0.448,0.42 0.449,0.404 0.443,0.391 0.44,0.374 0.434,0.362 0.43,0.348 0.429,0.333 0.423,0.327 0.419,0.311 0.417,0.302 0.412,0.289 0.406,0.28 0.405,0.268 0.398,0.262 0.397,0.25 0.391,0.245 0.388,0.236 0.387,0.225 0.38,0.222 0.383,0.211 0.371,0.205 0.374,0.198 0.367,0.191 0.368,0.188 0.362,0.179 0.359,0.174 0.714,0.332 0.351,0.156 0.348,0.152 0.35,0.148 0.342,0.143 0.343,0.139 0.341,0.134 0.337,0.129 0.339,0.126 0.332,0.12 0.332,0.117 0.334,0.113 0.326,0.111 0.331,0.104 0.324,0.103 0.325,0.099 0.321,0.098 0.645,0.181 0.316,0.085 0.32,0.086 0.318,0.077 0.313,0.081 0.315,0.073 0.311,0.072 0.312,0.068 0.313,0.064 0.309,0.064 0.613,0.118 0.308,0.052 0.303,0.054 0.3,0.05 0.302,0.046 0.297,0.045 0.298,0.041 0.295,0.04 0.583,0.072 0.569,0.06 0.277,0.028 0.275,0.024 0.27,0.022 0.296,-0.432 0.306,-0.695 0.287,-0.684 0.269,-0.681 0.251,-0.674 0.237,-0.666 0.218,-0.659 0.2,-0.652 0.177,-0.642 0.162,-0.63 0.139,-0.624 0.117,-0.615 0.096,-0.6 0.069,-0.592 0.05,-0.577 0.025,-0.564 v -0.552 l -0.03,-0.542 -0.051,-0.525 -0.082,-0.513 -0.108,-0.497 -0.13,-0.486 -0.16,-0.471 -0.178,-0.46 -0.207,-0.447 -0.227,-0.434 -0.246,-0.422 -0.26,-0.414 -0.283,-0.405 -0.294,-0.396 -0.305,-0.387 -0.318,-0.382 -0.327,-0.377 -0.335,-0.367 -0.172,-0.181 -0.167,-0.183 -0.177,-0.178 -0.168,-0.18 -0.177,-0.175 -0.173,-0.177 -0.178,-0.174 -0.173,-0.177 -0.178,-0.175 -0.173,-0.173 -0.358,-0.342 -0.175,-0.17 -0.178,-0.171 -0.35,-0.339 -0.179,-0.167 -0.172,-0.165 -0.18,-0.168 -0.171,-0.168 -0.176,-0.163 -0.516,-0.495 -0.173,-0.162 -0.168,-0.164 -0.172,-0.162 -0.168,-0.164 -0.165,-0.159 -0.169,-0.161 -0.661,-0.638 -0.483,-0.475 -0.158,-0.158 -0.158,-0.154 -0.314,-0.315 -0.154,-0.156 -0.154,-0.153 -0.154,-0.157 -0.15,-0.152 -0.15,-0.155 -0.151,-0.152 -0.149,-0.156 -0.147,-0.151 -0.146,-0.154 -0.146,-0.151 -0.142,-0.154 -0.147,-0.151 -0.143,-0.149 -0.139,-0.149 -0.141,-0.154 -0.278,-0.298 -0.135,-0.148 -0.138,-0.152 -0.271,-0.296 -0.262,-0.294 -0.135,-0.148 -0.126,-0.15 -0.133,-0.143 -0.126,-0.149 -0.382,-0.438 -0.494,-0.58 -0.359,-0.432 -0.12,-0.14 -0.115,-0.147 -0.121,-0.14 -0.347,-0.429 -0.671,-0.852 -0.54,-0.705 -0.105,-0.14 -0.212,-0.281 -0.208,-0.28 -0.204,-0.282 -0.2,-0.278 -0.2,-0.282 -0.2,-0.278 -0.196,-0.281 -0.576,-0.839 -0.188,-0.278 -0.55,-0.845 -0.359,-0.56 -0.178,-0.284 -0.175,-0.283 -0.173,-0.287 -0.171,-0.282 -0.174,-0.287 -0.337,-0.579 -0.165,-0.288 -0.168,-0.293 -0.328,-0.584 -0.162,-0.3 -0.159,-0.294 -0.163,-0.3 -0.314,-0.604 -0.161,-0.307 -0.31,-0.618 -0.155,-0.313 -0.154,-0.317 -0.149,-0.316 -0.153,-0.32 -0.152,-0.324 -0.15,-0.328 -0.15,-0.332 -0.298,-0.67 -0.147,-0.342 -0.292,-0.692 -0.148,-0.354 -0.143,-0.358 -0.147,-0.361 -0.14,-0.368 -0.143,-0.373 -0.143,-0.376 -0.141,-0.38 -0.14,-0.388 -0.141,-0.395 -0.137,-0.399 -0.14,-0.403 -0.138,-0.41 -0.136,-0.418 -0.134,-0.425 -0.136,-0.433 -0.131,-0.436 -0.132,-0.448 -0.132,-0.452 -0.132,-0.463 -0.127,-0.47 -0.128,-0.479 -0.127,-0.485 -0.124,-0.497 -0.125,-0.509 -0.119,-0.514 -0.12,-0.527 -0.119,-0.535 -0.114,-0.549 -0.113,-0.556 -0.113,-0.572 -0.107,-0.578 -0.107,-0.594 -0.104,-0.608 -0.096,-0.619 -0.098,-0.631 -0.094,-0.645 -0.091,-0.66 -0.086,-0.674 -0.083,-0.689 -0.079,-0.704 0.168,-0.512 0.331,-0.372 0.334,-0.371 0.342,-0.37 0.344,-0.365 0.353,-0.362 0.355,-0.358 0.359,-0.354 0.365,-0.347 0.373,-0.346 0.371,-0.339 0.374,-0.334 0.381,-0.328 0.378,-0.32 0.381,-0.313 0.379,-0.305 0.377,-0.298 0.378,-0.286 0.373,-0.279 0.365,-0.266 0.358,-0.256 0.346,-0.243 0.339,-0.23 0.319,-0.215 0.306,-0.198 0.287,-0.185 0.261,-0.167 0.239,-0.146 0.211,-0.13 0.179,-0.106 0.142,-0.088 0.112,-0.066 0.073,-0.043 0.033,-0.019 v 0 l -0.045,0.027 -0.087,0.052 -0.126,0.073 -0.161,0.1 -0.2,0.12 -0.239,0.146 -0.271,0.173 -0.305,0.191 -0.336,0.219 -0.368,0.245 -0.389,0.267 -0.422,0.295 -0.444,0.319 -0.464,0.346 -0.49,0.37 -0.507,0.402 -0.526,0.427 -0.542,0.459 -0.276,0.242 -0.277,0.245 -0.289,0.258 -0.28,0.26 -0.293,0.273 -0.289,0.277 -0.296,0.288 -0.294,0.292 -0.3,0.305 -0.302,0.31 -0.301,0.321 -0.302,0.325 -0.309,0.338 -0.302,0.345 -0.306,0.355 -0.306,0.359 -0.306,0.375 -0.303,0.379 -0.311,0.393 -0.303,0.395 -0.303,0.41 -0.3,0.416 -0.303,0.426 -0.296,0.432 -0.3,0.446 -0.292,0.449 -0.293,0.464 -0.289,0.469 -0.284,0.482 -0.281,0.486 -0.277,0.499 -0.268,0.502 -0.269,0.517 -0.261,0.519 -0.259,0.531 -0.249,0.538 -0.248,0.546 -0.236,0.552 -0.234,0.561 -0.223,0.564 -0.218,0.577 -0.211,0.579 -0.2,0.589 -0.197,0.59 -0.187,0.601 -0.174,0.6 -0.169,0.609 -0.161,0.611 -0.15,0.618 -0.142,0.619 -0.132,0.627 -0.119,0.625 -0.113,0.632 -0.103,0.629 -0.093,0.633 -0.084,0.635 -0.073,0.637 -0.06,0.637 -0.052,0.635 -0.044,0.637 -0.03,0.633 -0.023,0.635 -0.013,0.629 -0.01,0.632 0.025,1.268 z" />
                  </g>
                </g>
              </g>
            </g>
          </g>
          <g
             transform="translate(0,-0.748047)"
             id="g2376">
            <g
               id="g2378" />
            <g
               id="g2384">
              <g
                 id="g2386"
                 clip-path="url(#clipPath2380)">
                <g
                   id="g2388">
                  <g
                     id="g2390"
                     transform="matrix(0.948266,0.256444,0.243177,-1,0,1985)">
                    <path
                       id="path2392"
                       style="fill:#005089;fill-opacity:1;fill-rule:nonzero;stroke:#000000;stroke-width:1.14961302;stroke-linecap:square;stroke-linejoin:round;stroke-miterlimit:4;stroke-dasharray:none;stroke-opacity:1"
                       d="m 3306.241,1601.97 0.284,0.323 0.28,0.322 0.275,0.324 0.277,0.333 0.267,0.326 0.264,0.334 0.514,0.663 0.248,0.333 0.244,0.336 0.239,0.335 0.236,0.333 0.231,0.337 0.227,0.335 0.437,0.675 0.421,0.671 0.202,0.336 0.198,0.336 0.193,0.339 0.19,0.334 0.186,0.337 0.182,0.335 0.348,0.668 0.169,0.336 0.166,0.332 0.315,0.666 0.151,0.328 0.15,0.332 0.284,0.658 0.269,0.655 0.258,0.648 0.237,0.647 0.228,0.641 0.214,0.641 0.201,0.629 0.189,0.631 0.174,0.622 0.163,0.616 0.152,0.614 0.141,0.606 0.13,0.6 0.123,0.598 0.107,0.594 0.101,0.584 0.09,0.582 0.079,0.575 0.073,0.569 0.06,0.567 0.059,0.558 0.043,0.554 0.041,0.549 0.029,0.547 0.021,0.54 0.02,0.533 0.01,0.533 v 0.524 l -0.01,0.522 -0.01,0.517 -0.019,0.51 -0.023,0.506 -0.03,0.504 -0.038,0.502 -0.041,0.494 -0.047,0.492 -0.052,0.49 -0.058,0.481 -0.066,0.484 -0.068,0.474 -0.076,0.473 -0.08,0.472 -0.082,0.467 -0.091,0.465 -0.194,0.919 -0.104,0.454 -0.224,0.903 -0.118,0.446 -0.253,0.889 -0.133,0.438 -0.281,0.873 -0.148,0.431 -0.152,0.434 -0.156,0.429 -0.163,0.427 -0.167,0.426 -0.169,0.421 -0.179,0.423 -0.178,0.419 -0.186,0.421 -0.386,0.831 -0.201,0.413 -0.416,0.823 -0.217,0.409 -0.22,0.409 -0.228,0.406 -0.231,0.406 -0.24,0.403 -0.243,0.403 -0.247,0.401 -0.255,0.4 -0.259,0.398 -0.266,0.397 -0.27,0.395 -0.275,0.395 -0.284,0.387 -0.286,0.392 -0.298,0.389 -0.296,0.385 -0.309,0.385 -0.312,0.381 -0.316,0.38 -0.562,0.168 -0.719,0.027 -0.712,0.013 h -0.712 l -0.706,-0.01 -0.699,-0.022 -0.695,-0.038 -0.691,-0.048 -0.682,-0.058 -0.678,-0.072 -0.671,-0.082 -0.659,-0.095 -0.652,-0.109 -0.644,-0.122 -0.634,-0.131 -0.622,-0.144 -0.61,-0.161 -0.599,-0.169 -0.587,-0.186 -0.567,-0.196 -0.556,-0.209 -0.536,-0.223 -0.516,-0.238 -0.5,-0.249 -0.48,-0.268 -0.456,-0.277 -0.431,-0.294 -0.411,-0.309 -0.387,-0.322 -0.359,-0.334 -0.335,-0.351 -0.307,-0.36 -0.278,-0.376 -0.259,-0.391 -0.231,-0.399 -0.203,-0.412 -0.185,-0.418 -0.162,-0.428 -0.143,-0.439 -0.122,-0.442 -0.108,-0.445 -0.09,-0.453 -0.08,-0.458 -0.065,-0.454 -0.055,-0.46 -0.047,-0.461 -0.035,-0.458 -0.03,-0.461 -0.027,-0.456 -0.018,-0.458 -0.024,-0.904 -0.01,-0.448 v -0.223 l -0.01,-0.22 v -0.222 l -0.01,-0.22 v -0.222 -0.215 -0.218 -0.216 l 0.01,-0.217 v -0.215 -0.211 -0.215 l 0.01,-0.209 v -0.211 -0.21 -0.207 -0.206 -0.208 -0.206 l 0.01,-0.607 0.01,-0.795 0.01,-0.195 v -0.585 -0.191 -0.191 -0.191 -0.187 -0.187 -0.188 -0.187 -0.366 -0.184 -0.184 -0.18 -0.359 -0.176 -0.18 -0.175 l -0.01,-0.173 v -0.176 -0.172 -0.176 -0.172 -0.169 l -0.01,-0.173 v -0.168 l -0.01,-0.169 v -0.168 l -0.01,-0.165 v -0.169 l -0.01,-0.494 v -0.162 -0.164 l -0.016,-0.645 -0.01,-0.315 v -0.161 l -0.01,-0.158 -0.01,-0.154 -0.01,-0.315 -0.023,-0.615 -0.01,-0.155 v -0.153 l -0.011,-0.151 -0.01,-0.15 -0.01,-0.154 -0.027,-0.601 -0.01,-0.146 -0.011,-0.151 -0.015,-0.293 -0.01,-0.151 -0.012,-0.147 -0.023,-0.44 -0.012,-0.144 -0.016,-0.293 -0.01,-0.142 -0.011,-0.148 -0.01,-0.143 -0.012,-0.144 -0.01,-0.142 -0.012,-0.148 -0.01,-0.143 -0.013,-0.144 -0.01,-0.143 -0.012,-0.143 -0.01,-0.143 -0.012,-0.144 -0.014,-0.14 -0.012,-0.144 -0.01,-0.143 -0.013,-0.144 -0.013,-0.14 -0.025,-0.288 -0.014,-0.14 -0.012,-0.144 -0.014,-0.14 -0.052,-0.568 -0.03,-0.285 -0.029,-0.289 -0.026,-0.284 -0.033,-0.286 -0.06,-0.57 -0.033,-0.289 -0.034,-0.286 -0.036,-0.291 -0.033,-0.29 -0.037,-0.29 -0.036,-0.295 -0.039,-0.295 -0.036,-0.294 -0.044,-0.297 -0.038,-0.299 -0.043,-0.299 -0.041,-0.304 -0.046,-0.305 -0.041,-0.303 -0.049,-0.31 -0.095,-0.626 -0.051,-0.313 -0.05,-0.318 -0.054,-0.322 -0.052,-0.326 -0.056,-0.327 -0.056,-0.331 -0.058,-0.335 -0.062,-0.336 -0.06,-0.344 -0.064,-0.344 -0.062,-0.352 -0.07,-0.354 -0.069,-0.358 -0.068,-0.361 -0.148,-0.741 -0.076,-0.379 -0.079,-0.383 -0.081,-0.388 -0.085,-0.393 -0.087,-0.401 -0.088,-0.41 -0.093,-0.41 -0.194,-0.847 -0.099,-0.435 -0.321,-1.348 -0.116,-0.464 -0.117,-0.475 -0.12,-0.48 -0.125,-0.493 -0.131,-0.502 -0.133,-0.511 -0.134,-0.519 -0.144,-0.533 -0.145,-0.541 -0.152,-0.55 -0.152,-0.563 -0.161,-0.576 -0.162,-0.589 -0.172,-0.599 -0.172,-0.614 -0.178,-0.624 -0.182,-0.64 -0.19,-0.654 -0.192,-0.667 -0.196,-0.679 -0.201,-0.696 -0.201,-0.712 -0.208,-0.729 -0.245,-0.281 -0.255,-0.019 -0.251,-0.017 -0.244,-0.012 -0.235,-0.014 -0.224,-0.01 -0.212,-0.01 -0.2,-0.01 -0.184,-0.01 h -0.167 -0.152 -0.127 -0.107 -0.131 -0.025 l 0.013,-10e-4 h 0.048 0.083 l 0.127,10e-4 h 0.168 l 0.213,0.01 0.257,0.01 0.302,0.011 0.347,0.015 0.389,0.022 0.434,0.029 0.477,0.036 0.515,0.046 0.554,0.057 0.592,0.069 0.622,0.082 0.65,0.096 0.684,0.113 0.352,0.059 0.353,0.067 0.728,0.148 0.375,0.08 0.374,0.084 0.385,0.091 0.383,0.095 0.391,0.1 0.389,0.104 0.4,0.11 0.395,0.113 0.405,0.123 0.402,0.123 0.407,0.132 0.41,0.136 0.408,0.144 0.411,0.144 0.414,0.153 0.409,0.156 0.415,0.165 0.414,0.169 0.413,0.176 0.415,0.177 0.414,0.188 0.409,0.187 0.415,0.196 0.41,0.199 0.409,0.206 0.407,0.21 0.41,0.219 0.405,0.221 0.403,0.224 0.398,0.231 0.397,0.235 0.397,0.238 0.394,0.246 0.389,0.248 0.389,0.252 0.386,0.259 0.382,0.262 0.377,0.265 0.373,0.267 0.374,0.276 0.365,0.277 0.365,0.281 0.356,0.283 0.359,0.287 0.698,0.586 0.679,0.596 0.334,0.304 0.329,0.307 0.326,0.306 0.323,0.314 0.315,0.311 0.311,0.314 0.306,0.317 0.305,0.32 0.596,0.649 z" />
                  </g>
                </g>
              </g>
            </g>
          </g>
          <g
             transform="translate(0,-0.748047)"
             id="g2394">
            <g
               id="g2396" />
            <g
               id="g2402">
              <g
                 id="g2404"
                 clip-path="url(#clipPath2398)">
                <g
                   id="g2406">
                  <g
                     id="g2408"
                     transform="matrix(0.948266,0.256444,0.243177,-1,0,1985)">
                    <path
                       id="path2410"
                       style="fill:none;stroke:#000000;stroke-width:1.14961302;stroke-linecap:square;stroke-linejoin:round;stroke-miterlimit:4;stroke-dasharray:none;stroke-opacity:1"
                       d="m 3235.271,1630.536 0.105,1.839 0.188,1.822 0.262,1.774 0.332,1.726 0.397,1.664 0.453,1.609 0.502,1.542 0.548,1.477 0.583,1.407 0.614,1.345 0.858,1.685 0.894,1.573 0.915,1.461 0.929,1.356 0.935,1.255 0.937,1.162 0.935,1.08 1.386,1.469 1.357,1.309 1.332,1.169 1.293,1.043 1.259,0.94 1.223,0.837 1.574,0.993 1.521,0.863 1.471,0.756 1.424,0.662 1.383,0.582 1.681,0.626 1.64,0.53 1.602,0.45 1.569,0.371 1.543,0.298 1.5,0.236 1.724,0.2 0.545,0.046 0.296,-0.432 0.593,-1.379 0.52,-1.355 0.455,-1.325 0.377,-1.294 0.301,-1.254 0.213,-1.215 0.119,-1.169 0.022,-1.116 -0.081,-1.067 -0.19,-1.01 -0.29,-0.957 -0.385,-0.907 -0.473,-0.856 -0.543,-0.819 -0.599,-0.783 -0.98,-1.126 -1.385,-1.425 -6.804,-6.64 -1.957,-2.103 -1.647,-1.899 -1.278,-1.57 -1.4,-1.832 -1.192,-1.68 -1.122,-1.683 -1.056,-1.696 -1.008,-1.739 -0.962,-1.79 -0.929,-1.871 -0.903,-1.974 -0.73,-1.746 -0.714,-1.858 -0.696,-1.995 -0.669,-2.16 -0.519,-1.864 -0.495,-2.005 -0.466,-2.167 -0.431,-2.352 -0.379,-2.555 -0.248,-2.067 0.168,-0.512 1.007,-1.113 1.052,-1.085 1.097,-1.047 1.126,-1.001 1.138,-0.938 1.493,-1.129 1.362,-0.944 1.483,-0.932 0.36,-0.216 -0.262,0.155 -1.176,0.73 -1.515,1.026 -1.398,1.035 -1.033,0.829 -1.384,1.204 -1.158,1.098 -1.197,1.228 -1.219,1.363 -0.915,1.113 -0.917,1.198 -0.899,1.274 -0.885,1.359 -0.854,1.437 -0.814,1.518 -0.769,1.588 -0.718,1.659 -0.652,1.72 -0.584,1.78 -0.504,1.82 -0.424,1.864 -0.335,1.886 -0.25,1.905 -0.156,1.909 -0.066,1.897 -0.01,0.632" />
                  </g>
                </g>
              </g>
            </g>
          </g>
          <g
             transform="translate(0,-0.748047)"
             id="g2412">
            <g
               id="g2414" />
            <g
               id="g2420">
              <g
                 id="g2422"
                 clip-path="url(#clipPath2416)">
                <g
                   id="g2424">
                  <g
                     id="g2426"
                     transform="matrix(0.948266,0.256444,0.243177,-1,0,1985)">
                    <path
                       id="path2428"
                       style="fill:none;stroke:#000000;stroke-width:1.14961302;stroke-linecap:square;stroke-linejoin:round;stroke-miterlimit:4;stroke-dasharray:none;stroke-opacity:1"
                       d="m 3306.241,1601.97 1.116,1.302 1.045,1.323 0.967,1.337 0.895,1.347 0.821,1.343 0.751,1.345 0.683,1.336 0.758,1.655 0.669,1.632 0.465,1.288 0.604,1.901 0.489,1.852 0.394,1.804 0.298,1.76 0.212,1.711 0.143,1.661 0.07,1.62 v 1.579 l -0.051,1.533 -0.109,1.5 -0.157,1.463 -0.21,1.431 -0.35,1.863 -0.425,1.817 -0.504,1.773 -0.581,1.738 -0.655,1.703 -0.736,1.679 -0.81,1.651 -0.896,1.63 -0.985,1.607 -0.795,1.19 -0.845,1.174 -0.903,1.159 -0.628,0.761 -0.562,0.168 -1.431,0.04 -1.418,-0.013 -1.394,-0.06 -1.373,-0.106 -1.349,-0.154 -1.311,-0.204 -1.278,-0.253 -1.232,-0.305 -1.186,-0.355 -1.123,-0.405 -1.052,-0.461 -0.98,-0.517 -0.887,-0.571 -0.798,-0.631 -0.694,-0.685 -0.585,-0.736 -0.49,-0.79 -0.388,-0.83 -0.305,-0.867 -0.23,-0.887 -0.17,-0.911 -0.167,-1.375 -0.092,-1.375 -0.051,-2.033 v -1.965 l 0.047,-5.387 -0.057,-5.319 -0.081,-2.177 -0.115,-2.233 -0.279,-3.587 -0.297,-2.857 -0.342,-2.65 -0.427,-2.801 -0.47,-2.695 -0.591,-2.964 -0.646,-2.896 -0.799,-3.26 -0.991,-3.719 -1.409,-4.963 -0.806,-2.816 -0.245,-0.281 -1.621,-0.088 -0.893,-0.022 0.652,0.015 1.729,0.084 1.546,0.139 1.864,0.247 1.753,0.313 1.498,0.329 1.563,0.409 1.609,0.491 1.643,0.577 1.651,0.666 1.653,0.748 1.636,0.834 1.603,0.911 1.569,0.984 1.518,1.053 1.46,1.117 1.397,1.171 1.328,1.215 1.255,1.256 0.305,0.32" />
                  </g>
                </g>
              </g>
            </g>
          </g>
          <g
             transform="translate(0,-0.748047)"
             id="g2430">
            <g
               id="g2432" />
            <g
               id="g2438">
              <g
                 id="g2440"
                 clip-path="url(#clipPath2434)">
                <g
                   id="g2442">
                  <g
                     id="g2444"
                     transform="matrix(0.948266,0.256444,0.243177,-1,0,1985)">
                    <path
                       id="path2446"
                       style="fill:none;stroke:#000000;stroke-width:1.14961302;stroke-linecap:square;stroke-linejoin:round;stroke-miterlimit:4;stroke-dasharray:none;stroke-opacity:1"
                       d="m 3316.623,1628.422 -0.015,-0.711 -0.033,-0.708 -0.098,-1.416 -0.149,-1.413 -0.199,-1.407 -0.247,-1.399 -0.294,-1.392 -0.343,-1.377 -0.391,-1.366 -0.441,-1.351 -0.486,-1.332 -0.531,-1.319 -0.578,-1.297 -0.624,-1.277 -0.667,-1.253 -0.71,-1.229 -0.75,-1.204 -0.794,-1.18 -0.838,-1.149 -0.875,-1.119 -0.911,-1.089 -0.949,-1.052 -0.986,-1.022 -1.024,-0.989 -1.054,-0.95 -1.088,-0.912 -1.119,-0.873 -1.149,-0.838 -1.18,-0.795 -1.204,-0.75 -1.231,-0.71 -1.254,-0.669 -1.274,-0.62 -1.298,-0.579 -1.317,-0.533 -1.334,-0.486 -1.35,-0.437 -1.366,-0.393 -1.379,-0.342 -1.39,-0.297 -1.399,-0.246 -1.404,-0.196 -1.415,-0.152 -1.417,-0.098 -1.417,-0.047 h -1.421 l -1.422,0.05 -1.417,0.097 -1.41,0.15 -1.406,0.198 -1.402,0.246 -1.386,0.297 -1.381,0.341 -1.365,0.392 -1.349,0.44 -1.336,0.485 -1.318,0.533 -1.298,0.578 -1.276,0.622 -1.254,0.666 -1.228,0.709 -1.207,0.753 -1.176,0.796 -1.149,0.834 -1.118,0.874 -1.087,0.912 -1.059,0.951 -1.02,0.989 -0.986,1.02 -0.951,1.057 -0.913,1.086 -0.876,1.119 -0.835,1.15 -0.792,1.179 -0.753,1.202 -0.712,1.231 -0.667,1.255 -0.62,1.275 -0.579,1.296 -0.533,1.321 -0.485,1.332 -0.438,1.353 -0.391,1.365 -0.345,1.376 -0.294,1.389 -0.248,1.401 -0.196,1.407 -0.148,1.412 -0.1,1.415 -0.051,1.421 v 1.419 l 0.047,1.422 0.099,1.416 0.148,1.413 0.199,1.406 0.247,1.4 0.295,1.388 0.343,1.377 0.391,1.366 0.441,1.351 0.485,1.335 0.532,1.316 0.578,1.297 0.624,1.277 0.663,1.252 0.71,1.233 0.754,1.205 0.794,1.177 0.834,1.147 0.875,1.119 0.915,1.09 0.948,1.056 0.986,1.022 1.025,0.986 1.054,0.95 1.088,0.911 1.118,0.877 1.15,0.834 1.176,0.794 1.207,0.755 1.231,0.71 1.251,0.664 1.277,0.625 1.299,0.575 1.317,0.533 1.334,0.487 1.349,0.439 1.367,0.39 1.378,0.345 1.391,0.295 1.399,0.245 1.403,0.2 1.416,0.148 1.417,0.098 1.416,0.051 h 1.422 l 1.421,-0.046 1.414,-0.102 1.414,-0.149 1.405,-0.194 1.398,-0.247 1.39,-0.296 1.378,-0.346 1.37,-0.391 1.348,-0.439 1.336,-0.486 1.314,-0.53 1.297,-0.578 1.28,-0.621 1.251,-0.671 1.232,-0.708 1.203,-0.754 1.179,-0.791 1.15,-0.838 1.118,-0.873 1.087,-0.913 1.055,-0.952 1.023,-0.984 0.988,-1.024 0.949,-1.053 0.914,-1.09 0.872,-1.12 0.839,-1.149 0.791,-1.175 0.754,-1.206 0.712,-1.231 0.663,-1.252 0.624,-1.277 0.579,-1.297 0.532,-1.317 0.487,-1.336 0.436,-1.349 0.392,-1.368 0.345,-1.377 0.294,-1.389 0.248,-1.398 0.196,-1.406 0.148,-1.415 0.1,-1.416 0.05,-1.417 0.01,-0.713" />
                  </g>
                </g>
              </g>
            </g>
          </g>
        </g>
      </g>
    </g>
    <g
       transform="matrix(0.49600078,0,0,0.4954987,99.597528,48.607784)"
       id="g11903"
       style="display:inline;opacity:1">
      <g
         transform="matrix(0.3345272,0.1211065,-0.11484117,0.35277778,-1262.4371,-294.80272)"
         id="g2298">
        <path
           id="path2300"
           style="fill:#ffffff;fill-opacity:1;fill-rule:nonzero;stroke:#000000;stroke-width:1.00493896;stroke-linecap:round;stroke-linejoin:miter;stroke-miterlimit:4;stroke-dasharray:none;stroke-opacity:1"
           d="m 3648.896,-606.038 c 10e-4,22.202 -17.997,40.198 -40.197,40.197 -22.203,10e-4 -40.2,-17.996 -40.2,-40.195 0,-22.199 17.998,-40.198 40.197,-40.198 22.203,-10e-4 40.2,17.996 40.2,40.196 z" />
      </g>
      <g
         transform="matrix(0.3345272,0.1211065,-0.11484117,0.35277778,-1262.4371,-294.80272)"
         id="g2302">
        <path
           id="path2304"
           style="fill:none;stroke:#000000;stroke-width:1.122509;stroke-linecap:round;stroke-linejoin:miter;stroke-miterlimit:4;stroke-dasharray:none;stroke-opacity:1"
           d="m 3594.665,-603.23 h 44.901" />
      </g>
      <path
         id="path2306"
         style="fill:#000000;fill-opacity:1;fill-rule:evenodd;stroke:none"
         d="m 20.930022,-70.044816 3.943703,3.38455 -5.083528,0.11571 c 1.058333,-0.77153 1.514475,-2.18687 1.139825,-3.50026 z" />
      <g
         transform="matrix(0.3345272,0.1211065,-0.11484117,0.35277778,-1262.4371,-294.80272)"
         id="g2308">
        <path
           id="path2310"
           style="fill:none;stroke:#000000;stroke-width:1.122509;stroke-linecap:round;stroke-linejoin:miter;stroke-miterlimit:4;stroke-dasharray:none;stroke-opacity:1"
           d="m 3617.116,-608.843 -39.286,-0.002" />
      </g>
      <path
         id="path2312"
         style="fill:#000000;fill-opacity:1;fill-rule:evenodd;stroke:none"
         d="m 7.8066878,-73.080476 -3.943703,-3.38455 5.083528,-0.11571 c -1.058334,0.77188 -1.514475,2.18687 -1.139825,3.50026 z" />
      <g
         transform="matrix(0.3345272,0.1211065,-0.11484117,0.35277778,-1262.4371,-294.80272)"
         id="g2314">
        <path
           id="path2316"
           style="fill:none;stroke:#000000;stroke-width:1.122509;stroke-linecap:round;stroke-linejoin:miter;stroke-miterlimit:4;stroke-dasharray:none;stroke-opacity:1"
           d="m 3605.892,-592.006 v -44.902" />
      </g>
      <path
         id="path2318"
         style="fill:#000000;fill-opacity:1;fill-rule:evenodd;stroke:none"
         d="m 13.93091,-79.161656 3.208162,-4.158896 0.110066,5.360456 c -0.731661,-1.11478 -2.07398,-1.59596 -3.318228,-1.20156 z" />
      <g
         transform="matrix(0.3345272,0.1211065,-0.11484117,0.35277778,-1262.4371,-294.80272)"
         id="g2320">
        <path
           id="path2322"
           style="fill:none;stroke:#000000;stroke-width:1.122509;stroke-linecap:round;stroke-linejoin:miter;stroke-miterlimit:4;stroke-dasharray:none;stroke-opacity:1"
           d="m 3611.504,-620.069 v 44.902" />
      </g>
      <path
         id="path2324"
         style="fill:#000000;fill-opacity:1;fill-rule:evenodd;stroke:none"
         d="m 14.805799,-63.963286 -3.207808,4.1589 -0.11042,-5.36081 c 0.731661,1.11654 2.073981,1.59738 3.318228,1.20191 z" />
    </g>
    <g
       id="g8481"
       transform="matrix(0.19232287,0,0,-0.1916709,-600.54585,307.75472)"
       style="display:inline;opacity:1">
      <g
         transform="matrix(0.948266,0,0,-1,0,1984.252)"
         id="g2264">
        <path
           id="path2266"
           style="fill:#ffffff;fill-opacity:1;fill-rule:nonzero;stroke:#000000;stroke-width:1.11222899;stroke-linecap:round;stroke-linejoin:miter;stroke-miterlimit:4;stroke-dasharray:none;stroke-opacity:1"
           d="m 3577.101,737.281 c 0,24.571 -19.917,44.489 -44.489,44.489 -24.568,0 -44.489,-19.918 -44.489,-44.489 0,-24.574 19.921,-44.492 44.489,-44.492 24.572,0 44.489,19.918 44.489,44.492 z" />
      </g>
      <g
         transform="matrix(0.948266,0,0,-1,0,1984.252)"
         id="g2268">
        <path
           id="path2270"
           style="fill:none;stroke:#000000;stroke-width:1.18681204;stroke-linecap:round;stroke-linejoin:miter;stroke-miterlimit:4;stroke-dasharray:none;stroke-opacity:1"
           d="M 3532.612,725.41 V 701.676" />
      </g>
      <path
         id="path2272"
         style="fill:#000000;fill-opacity:1;fill-rule:evenodd;stroke:none"
         d="m 3344.863,1269.889 4.973,14.265 4.976,-14.265 c -2.937,2.277 -6.957,2.265 -9.949,0 z" />
      <g
         transform="matrix(0.948266,0,0,-1,0,1984.252)"
         id="g2274">
        <path
           id="path2276"
           style="fill:none;stroke:#000000;stroke-width:1.18681204;stroke-linecap:round;stroke-linejoin:miter;stroke-miterlimit:4;stroke-dasharray:none;stroke-opacity:1"
           d="m 3544.48,737.281 h 23.739" />
      </g>
      <path
         id="path2278"
         style="fill:#000000;fill-opacity:1;fill-rule:evenodd;stroke:none"
         d="m 3371.59,1252.24 13.523,-5.246 -13.523,-5.246 c 2.16,3.098 2.148,7.332 0,10.492 z" />
      <g
         transform="matrix(0.948266,0,0,-1,0,1984.252)"
         id="g2280">
        <path
           id="path2282"
           style="fill:none;stroke:#000000;stroke-width:1.18681204;stroke-linecap:round;stroke-linejoin:miter;stroke-miterlimit:4;stroke-dasharray:none;stroke-opacity:1"
           d="m 3520.744,737.281 h -23.736" />
      </g>
      <path
         id="path2284"
         style="fill:#000000;fill-opacity:1;fill-rule:evenodd;stroke:none"
         d="m 3328.125,1241.705 -13.523,5.246 13.523,5.246 c -2.16,-3.097 -2.148,-7.336 0,-10.492 z" />
      <g
         transform="matrix(0.948266,0,0,-1,0,1984.252)"
         id="g2286">
        <path
           id="path2288"
           style="fill:none;stroke:#000000;stroke-width:1.18681204;stroke-linecap:round;stroke-linejoin:miter;stroke-miterlimit:4;stroke-dasharray:none;stroke-opacity:1"
           d="m 3532.612,749.148 v 23.735" />
      </g>
      <path
         id="path2290"
         style="fill:#000000;fill-opacity:1;fill-rule:evenodd;stroke:none"
         d="m 3354.852,1224.057 -4.977,-14.266 -4.973,14.266 c 2.938,-2.282 6.953,-2.266 9.95,0 z" />
      <path
         id="path2292"
         style="fill:#d5dded;fill-opacity:0.57254896;fill-rule:nonzero;stroke:none"
         d="m 3355.484,1246.971 c 0,-3.278 -2.519,-5.934 -5.629,-5.934 -3.105,0 -5.625,2.656 -5.625,5.934 0,3.277 2.52,5.937 5.625,5.937 3.11,0 5.629,-2.66 5.629,-5.937 z" />
      <g
         transform="matrix(0.948266,0,0,-1,0,1984.252)"
         id="g2294">
        <path
           id="path2296"
           style="fill:none;stroke:#1f1a17;stroke-width:2.37362409;stroke-linecap:round;stroke-linejoin:miter;stroke-miterlimit:4;stroke-dasharray:none;stroke-opacity:1"
           d="m 3538.548,737.281 c 0,3.278 -2.657,5.934 -5.936,5.934 -3.275,0 -5.932,-2.656 -5.932,-5.934 0,-3.277 2.657,-5.937 5.932,-5.937 3.279,0 5.936,2.66 5.936,5.937 z" />
      </g>
    </g>
    <g
       id="g8526"
       transform="matrix(0.3527778,0,0,-0.35277777,-1138.0301,525.45563)"
       style="display:inline;opacity:1">
      <g
         id="g2450"
         transform="matrix(0.948266,0,0,-1,0,1984.252)">
        <path
           d="m 3600.515,640.477 c -3.225,8.257 -4.997,17.253 -4.997,26.652 0,9.406 1.768,18.391 4.997,26.652 h 136.602 c 3.23,-8.261 4.997,-17.246 4.997,-26.652 0,-9.399 -1.771,-18.395 -4.997,-26.652 z"
           style="fill:#ffffff;fill-opacity:1;fill-rule:nonzero;stroke:#000000;stroke-width:1.18681204;stroke-linecap:round;stroke-linejoin:round;stroke-miterlimit:4;stroke-dasharray:none;stroke-opacity:1"
           id="path2452" />
      </g>
      <path
         d="m 3414.246,1343.775 c -3.058,-8.257 -4.738,-17.254 -4.738,-26.652 0,-9.406 1.676,-18.391 4.738,-26.652 h 116.66 c -0.01,0.386 -0.01,0.777 -0.019,1.164 -1.106,16.375 -4.301,32.636 -11.453,47.394 -0.75,1.602 -1.532,3.176 -2.352,4.746 z"
         style="fill:#000000;fill-opacity:0.08235288;fill-rule:nonzero;stroke:none"
         id="path2454" />
      <g
         id="g2456"
         transform="matrix(0.948266,0,0,-1,0,1984.252)">
        <path
           d="m 3600.515,640.477 c -3.225,8.257 -4.997,17.253 -4.997,26.652 0,9.406 1.768,18.391 4.997,26.652 h 123.025 c -0.01,-0.386 -0.01,-0.777 -0.021,-1.164 -1.165,-16.375 -4.535,-32.637 -12.078,-47.394 -0.791,-1.602 -1.614,-3.176 -2.479,-4.746 z"
           style="fill:none;stroke:#000000;stroke-width:1.18681204;stroke-linecap:butt;stroke-linejoin:miter;stroke-miterlimit:4;stroke-dasharray:none;stroke-opacity:1"
           id="path2458" />
      </g>
      <path
         d="m 3414.246,1343.775 c -3.058,-8.257 -4.738,-17.254 -4.738,-26.652 0,-9.406 1.676,-18.391 4.738,-26.652 h 84.16 c 0.067,0.824 0.133,1.648 0.176,2.476 1.727,17.922 -2.559,35.586 -10.98,50.828 z"
         style="fill:#000000;fill-opacity:0.08235288;fill-rule:nonzero;stroke:none"
         id="path2460" />
      <g
         id="g2462"
         transform="matrix(0.948266,0,0,-1,0,1984.252)">
        <path
           d="m 3600.515,640.477 c -3.225,8.257 -4.997,17.253 -4.997,26.652 0,9.406 1.768,18.391 4.997,26.652 h 88.752 c 0.07,-0.824 0.14,-1.648 0.185,-2.476 1.821,-17.922 -2.698,-35.586 -11.579,-50.828 z"
           style="fill:none;stroke:#000000;stroke-width:1.18681204;stroke-linecap:butt;stroke-linejoin:miter;stroke-miterlimit:4;stroke-dasharray:none;stroke-opacity:1"
           id="path2464" />
      </g>
      <path
         d="m 3414.246,1343.775 c -3.058,-8.257 -4.738,-17.254 -4.738,-26.652 0,-9.406 1.676,-18.391 4.738,-26.652 h 50.867 c 2.578,8.07 3.684,16.652 2.981,25.215 -1.004,10.394 -5.36,19.937 -10.977,28.089 z"
         style="fill:#000000;fill-opacity:0.08235288;fill-rule:nonzero;stroke:none"
         id="path2466" />
      <g
         id="g2468"
         transform="matrix(0.948266,0,0,-1,0,1984.252)">
        <path
           d="m 3600.515,640.477 c -3.225,8.257 -4.997,17.253 -4.997,26.652 0,9.406 1.768,18.391 4.997,26.652 h 53.643 c 2.718,-8.07 3.884,-16.652 3.143,-25.215 -1.059,-10.394 -5.652,-19.937 -11.576,-28.089 z"
           style="fill:none;stroke:#000000;stroke-width:1.18681204;stroke-linecap:butt;stroke-linejoin:miter;stroke-miterlimit:4;stroke-dasharray:none;stroke-opacity:1"
           id="path2470" />
      </g>
      <path
         d="m 3414.246,1343.775 c -3.058,-8.257 -4.738,-17.254 -4.738,-26.652 0,-9.406 1.676,-18.391 4.738,-26.652 h 12.223 c 2.562,2.16 4.855,4.683 6.734,7.347 5.297,8.399 7.891,20.161 2.527,29.051 -3.945,7.758 -10.886,14.27 -18.933,16.906 z"
         style="fill:#000000;fill-opacity:0.08235288;fill-rule:nonzero;stroke:none"
         id="path2472" />
      <g
         id="g2474"
         transform="matrix(0.948266,0,0,-1,0,1984.252)">
        <path
           d="m 3600.515,640.477 c -3.225,8.257 -4.997,17.253 -4.997,26.652 0,9.406 1.768,18.391 4.997,26.652 h 12.89 c 2.702,-2.16 5.12,-4.683 7.102,-7.347 5.585,-8.399 8.321,-20.161 2.665,-29.051 -4.161,-7.758 -11.481,-14.27 -19.967,-16.906 z"
           style="fill:none;stroke:#000000;stroke-width:1.18681204;stroke-linecap:butt;stroke-linejoin:miter;stroke-miterlimit:4;stroke-dasharray:none;stroke-opacity:1"
           id="path2476" />
      </g>
      <g
         id="g2478"
         transform="matrix(0.948266,0,0,-1,0,1984.252)">
        <path
           d="m 3596.853,667.129 c 0,0.734 -0.597,1.332 -1.335,1.332 -0.733,0 -1.33,-0.598 -1.33,-1.332 0,-0.734 0.597,-1.332 1.33,-1.332 0.738,0 1.335,0.598 1.335,1.332 z"
           style="fill:#ffffff;fill-opacity:1;fill-rule:nonzero;stroke:#000000;stroke-width:1.18681204;stroke-linecap:round;stroke-linejoin:round;stroke-miterlimit:4;stroke-dasharray:none;stroke-opacity:1"
           id="path2480" />
      </g>
    </g>
    <g
       id="g8569"
       transform="matrix(0.3527778,0,0,-0.35277777,-1275.5663,478.25341)"
       style="display:inline;opacity:1">
      <g
         id="g2532"
         transform="matrix(0.986945,-0.0816616,-0.350631,-1,0,1984.252)">
        <path
           d="m 3862.755,337.674 137.617,0.001 v 51.605 h -137.617 z"
           style="fill:#ffffff;fill-opacity:1;fill-rule:nonzero;stroke:#373737;stroke-width:1.14680696;stroke-linecap:butt;stroke-linejoin:miter;stroke-miterlimit:4;stroke-dasharray:none;stroke-opacity:1"
           id="path2534" />
      </g>
      <g
         id="g2536"
         transform="matrix(0.986945,-0.0816616,-0.350631,-1,0,1984.252)">
        <path
           d="m 3897.157,337.674 17.205,0.001 v 17.199 l -17.201,0.003 v -17.203 z"
           style="fill:#005089;fill-opacity:1;fill-rule:nonzero;stroke:#373737;stroke-width:1.14680696;stroke-linecap:butt;stroke-linejoin:miter;stroke-miterlimit:4;stroke-dasharray:none;stroke-opacity:1"
           id="path2538" />
      </g>
      <g
         id="g2540"
         transform="matrix(0.986945,-0.0816616,-0.350631,-1,0,1984.252)">
        <path
           d="m 3914.362,337.675 17.201,-0.002 v 17.203 l -17.205,-0.002 v -17.199 z"
           style="fill:#005089;fill-opacity:1;fill-rule:nonzero;stroke:#373737;stroke-width:1.14680696;stroke-linecap:butt;stroke-linejoin:miter;stroke-miterlimit:4;stroke-dasharray:none;stroke-opacity:1"
           id="path2542" />
      </g>
      <path
         d="m 3761.836,1325.521 16.976,-1.406 -6.031,-17.203 -16.976,1.406 z"
         style="fill:#005089;fill-opacity:0.53777801;fill-rule:nonzero;stroke:none"
         id="path2544" />
      <g
         id="g2546"
         transform="matrix(0.986945,-0.0816616,-0.350631,-1,0,1984.252)">
        <path
           d="m 3931.563,337.673 17.201,10e-4 10e-4,17.203 -17.202,-0.001 z"
           style="fill:none;stroke:#373737;stroke-width:1.14680696;stroke-linecap:butt;stroke-linejoin:miter;stroke-miterlimit:4;stroke-dasharray:none;stroke-opacity:1"
           id="path2548" />
      </g>
      <g
         id="g2550"
         transform="matrix(0.986945,-0.0816616,-0.350631,-1,0,1984.252)">
        <path
           d="m 3948.764,337.674 17.202,0.002 -10e-4,17.199 -17.2,0.002 z"
           style="fill:#005089;fill-opacity:1;fill-rule:nonzero;stroke:#373737;stroke-width:1.14680696;stroke-linecap:butt;stroke-linejoin:miter;stroke-miterlimit:4;stroke-dasharray:none;stroke-opacity:1"
           id="path2552" />
      </g>
      <path
         d="m 3687.895,1313.936 16.976,-1.403 -6.031,-17.203 -16.977,1.406 z"
         style="fill:#005089;fill-opacity:0.20888899;fill-rule:nonzero;stroke:none"
         id="path2554" />
      <g
         id="g2556"
         transform="matrix(0.986945,-0.0816616,-0.350631,-1,0,1984.252)">
        <path
           d="m 3862.755,354.877 17.201,-0.002 v 17.203 l -17.201,-10e-4 z"
           style="fill:none;stroke:#373737;stroke-width:1.14680696;stroke-linecap:butt;stroke-linejoin:miter;stroke-miterlimit:4;stroke-dasharray:none;stroke-opacity:1"
           id="path2558" />
      </g>
      <path
         d="m 3693.926,1331.139 16.976,-1.403 -6.031,-17.203 -16.976,1.403 z"
         style="fill:#005089;fill-opacity:0.53777801;fill-rule:nonzero;stroke:none"
         id="path2560" />
      <g
         id="g2562"
         transform="matrix(0.986945,-0.0816616,-0.350631,-1,0,1984.252)">
        <path
           d="m 3862.755,337.674 17.2,-0.002 v 17.203 l -17.201,0.002 v -17.203 z"
           style="fill:none;stroke:#373737;stroke-width:1.14680696;stroke-linecap:butt;stroke-linejoin:miter;stroke-miterlimit:4;stroke-dasharray:none;stroke-opacity:1"
           id="path2564" />
      </g>
      <path
         d="m 3698.84,1295.33 16.976,-1.406 -6.031,-17.199 -16.976,1.402 z"
         style="fill:#005089;fill-opacity:0.20888899;fill-rule:nonzero;stroke:none"
         id="path2566" />
      <g
         id="g2568"
         transform="matrix(0.986945,-0.0816616,-0.350631,-1,0,1984.252)">
        <path
           d="m 3879.956,372.078 17.202,0.002 -10e-4,17.199 -17.2,0.002 z"
           style="fill:none;stroke:#373737;stroke-width:1.14680696;stroke-linecap:butt;stroke-linejoin:miter;stroke-miterlimit:4;stroke-dasharray:none;stroke-opacity:1"
           id="path2570" />
      </g>
      <g
         id="g2572"
         transform="matrix(0.986945,-0.0816616,-0.350631,-1,0,1984.252)">
        <path
           d="m 3879.956,354.875 17.201,0.002 10e-4,17.203 -17.202,-0.002 z"
           style="fill:#005089;fill-opacity:1;fill-rule:nonzero;stroke:#373737;stroke-width:1.14680696;stroke-linecap:butt;stroke-linejoin:miter;stroke-miterlimit:4;stroke-dasharray:none;stroke-opacity:1"
           id="path2574" />
      </g>
      <g
         id="g2576"
         transform="matrix(0.986945,-0.0816616,-0.350631,-1,0,1984.252)">
        <path
           d="m 3879.955,337.672 17.202,0.002 v 17.203 l -17.201,-0.002 v -17.203 z"
           style="fill:#005089;fill-opacity:1;fill-rule:nonzero;stroke:#373737;stroke-width:1.14680696;stroke-linecap:butt;stroke-linejoin:miter;stroke-miterlimit:4;stroke-dasharray:none;stroke-opacity:1"
           id="path2578" />
      </g>
      <path
         d="m 3800.703,1286.9 16.981,-1.402 -6.036,-17.203 -16.976,1.406 z"
         style="fill:#005089;fill-opacity:0.20888899;fill-rule:nonzero;stroke:none"
         id="path2580" />
      <g
         id="g2582"
         transform="matrix(0.986945,-0.0816616,-0.350631,-1,0,1984.252)">
        <path
           d="m 3983.168,372.08 17.204,-0.003 v 17.203 l -17.202,-10e-4 V 372.08 Z"
           style="fill:none;stroke:#373737;stroke-width:1.14680696;stroke-linecap:butt;stroke-linejoin:miter;stroke-miterlimit:4;stroke-dasharray:none;stroke-opacity:1"
           id="path2584" />
      </g>
      <path
         d="m 3806.734,1304.104 16.981,-1.407 -6.031,-17.199 -16.981,1.402 z"
         style="fill:#005089;fill-opacity:0.20888899;fill-rule:nonzero;stroke:none"
         id="path2586" />
      <g
         id="g2588"
         transform="matrix(0.986945,-0.0816616,-0.350631,-1,0,1984.252)">
        <path
           d="m 3983.167,354.876 17.205,0.002 v 17.199 l -17.204,0.003 v -17.204 z"
           style="fill:none;stroke:#373737;stroke-width:1.14680696;stroke-linecap:butt;stroke-linejoin:miter;stroke-miterlimit:4;stroke-dasharray:none;stroke-opacity:1"
           id="path2590" />
      </g>
      <path
         d="m 3812.766,1321.307 16.98,-1.407 -6.031,-17.203 -16.981,1.407 z"
         style="fill:#005089;fill-opacity:0.53777801;fill-rule:nonzero;stroke:none"
         id="path2592" />
      <g
         id="g2594"
         transform="matrix(0.986945,-0.0816616,-0.350631,-1,0,1984.252)">
        <path
           d="m 3983.166,337.673 17.206,0.002 v 17.203 l -17.205,-0.002 z"
           style="fill:none;stroke:#373737;stroke-width:1.14680696;stroke-linecap:butt;stroke-linejoin:miter;stroke-miterlimit:4;stroke-dasharray:none;stroke-opacity:1"
           id="path2596" />
      </g>
      <path
         d="m 3749.773,1291.115 16.977,-1.402 -6.031,-17.203 -16.981,1.402 z"
         style="fill:#005089;fill-opacity:0.20888899;fill-rule:nonzero;stroke:none"
         id="path2598" />
      <g
         id="g2600"
         transform="matrix(0.986945,-0.0816616,-0.350631,-1,0,1984.252)">
        <path
           d="m 3931.564,372.079 17.2,-0.003 10e-4,17.204 -17.204,0.002 v -17.203 z"
           style="fill:none;stroke:#373737;stroke-width:1.14680696;stroke-linecap:butt;stroke-linejoin:miter;stroke-miterlimit:4;stroke-dasharray:none;stroke-opacity:1"
           id="path2602" />
      </g>
      <path
         d="m 3732.793,1292.521 16.98,-1.406 -6.035,-17.203 -16.976,1.406 z"
         style="fill:#005089;fill-opacity:0.53777801;fill-rule:nonzero;stroke:none"
         id="path2604" />
      <g
         id="g2606"
         transform="matrix(0.986945,-0.0816616,-0.350631,-1,0,1984.252)">
        <path
           d="m 3914.358,372.078 17.206,0.001 v 17.203 l -17.202,-10e-4 v -17.203 z"
           style="fill:none;stroke:#373737;stroke-width:1.14680696;stroke-linecap:butt;stroke-linejoin:miter;stroke-miterlimit:4;stroke-dasharray:none;stroke-opacity:1"
           id="path2608" />
      </g>
      <path
         d="m 3715.816,1293.924 16.977,-1.403 -6.031,-17.203 -16.977,1.407 z"
         style="fill:#005089;fill-opacity:0.53777801;fill-rule:nonzero;stroke:none"
         id="path2610" />
      <g
         id="g2612"
         transform="matrix(0.986945,-0.0816616,-0.350631,-1,0,1984.252)">
        <path
           d="m 3897.158,372.08 17.2,-0.002 10e-4,17.203 -17.202,-0.002 z"
           style="fill:none;stroke:#373737;stroke-width:1.14680696;stroke-linecap:butt;stroke-linejoin:miter;stroke-miterlimit:4;stroke-dasharray:none;stroke-opacity:1"
           id="path2614" />
      </g>
      <path
         d="m 3766.75,1289.713 16.977,-1.406 -6.032,-17.203 -16.976,1.406 z"
         style="fill:#005089;fill-opacity:0.53777801;fill-rule:nonzero;stroke:none"
         id="path2616" />
      <g
         id="g2618"
         transform="matrix(0.986945,-0.0816616,-0.350631,-1,0,1984.252)">
        <path
           d="m 3948.764,372.076 17.202,0.002 v 17.203 l -17.202,-0.001 z"
           style="fill:none;stroke:#373737;stroke-width:1.14680696;stroke-linecap:butt;stroke-linejoin:miter;stroke-miterlimit:4;stroke-dasharray:none;stroke-opacity:1"
           id="path2620" />
      </g>
      <path
         d="m 3789.758,1305.51 16.976,-1.406 -6.031,-17.204 -16.976,1.407 z"
         style="fill:#005089;fill-opacity:0.53777801;fill-rule:nonzero;stroke:none"
         id="path2622" />
      <g
         id="g2624"
         transform="matrix(0.986945,-0.0816616,-0.350631,-1,0,1984.252)">
        <path
           d="m 3965.965,354.875 17.202,10e-4 v 17.204 l -17.202,-0.002 z"
           style="fill:none;stroke:#373737;stroke-width:1.14680696;stroke-linecap:butt;stroke-linejoin:miter;stroke-miterlimit:4;stroke-dasharray:none;stroke-opacity:1"
           id="path2626" />
      </g>
      <g
         id="g2628"
         transform="matrix(0.986945,-0.0816616,-0.350631,-1,0,1984.252)">
        <path
           d="m 3948.765,354.877 17.2,-0.002 10e-4,17.203 -17.202,-0.002 z"
           style="fill:#005089;fill-opacity:1;fill-rule:nonzero;stroke:#373737;stroke-width:1.14680696;stroke-linecap:butt;stroke-linejoin:miter;stroke-miterlimit:4;stroke-dasharray:none;stroke-opacity:1"
           id="path2630" />
      </g>
      <path
         d="m 3755.805,1308.318 16.976,-1.406 -6.031,-17.199 -16.977,1.402 z"
         style="fill:#005089;fill-opacity:0.53777801;fill-rule:nonzero;stroke:none"
         id="path2632" />
      <g
         id="g2634"
         transform="matrix(0.986945,-0.0816616,-0.350631,-1,0,1984.252)">
        <path
           d="m 3931.563,354.876 17.202,0.001 -10e-4,17.199 -17.2,0.003 z"
           style="fill:none;stroke:#373737;stroke-width:1.14680696;stroke-linecap:butt;stroke-linejoin:miter;stroke-miterlimit:4;stroke-dasharray:none;stroke-opacity:1"
           id="path2636" />
      </g>
      <path
         d="m 3738.824,1309.725 16.981,-1.407 -6.032,-17.203 -16.98,1.406 z"
         style="fill:#005089;fill-opacity:0.53777801;fill-rule:nonzero;stroke:none"
         id="path2638" />
      <g
         id="g2640"
         transform="matrix(0.986945,-0.0816616,-0.350631,-1,0,1984.252)">
        <path
           d="m 3914.358,354.874 17.205,0.002 10e-4,17.203 -17.206,-0.001 z"
           style="fill:none;stroke:#373737;stroke-width:1.14680696;stroke-linecap:butt;stroke-linejoin:miter;stroke-miterlimit:4;stroke-dasharray:none;stroke-opacity:1"
           id="path2642" />
      </g>
      <path
         d="m 3721.848,1311.127 16.976,-1.402 -6.031,-17.204 -16.977,1.403 z"
         style="fill:#005089;fill-opacity:0.53777801;fill-rule:nonzero;stroke:none"
         id="path2644" />
      <g
         id="g2646"
         transform="matrix(0.986945,-0.0816616,-0.350631,-1,0,1984.252)">
        <path
           d="m 3897.157,354.877 17.201,-0.003 v 17.204 l -17.2,0.002 z"
           style="fill:none;stroke:#373737;stroke-width:1.14680696;stroke-linecap:butt;stroke-linejoin:miter;stroke-miterlimit:4;stroke-dasharray:none;stroke-opacity:1"
           id="path2648" />
      </g>
      <path
         d="m 3783.727,1288.307 16.976,-1.407 -6.031,-17.199 -16.977,1.403 z"
         style="fill:#005089;fill-opacity:0.20888899;fill-rule:nonzero;stroke:none"
         id="path2650" />
      <g
         id="g2652"
         transform="matrix(0.986945,-0.0816616,-0.350631,-1,0,1984.252)">
        <path
           d="m 3965.966,372.078 17.202,0.002 v 17.199 l -17.2,0.002 v -17.203 z"
           style="fill:none;stroke:#373737;stroke-width:1.14680696;stroke-linecap:butt;stroke-linejoin:miter;stroke-miterlimit:4;stroke-dasharray:none;stroke-opacity:1"
           id="path2654" />
      </g>
      <g
         id="g2656"
         transform="matrix(0.986945,-0.0816616,-0.350631,-1,0,1984.252)">
        <path
           d="m 3965.966,337.676 17.2,-0.003 10e-4,17.203 -17.202,-10e-4 z"
           style="fill:#005089;fill-opacity:1;fill-rule:nonzero;stroke:#373737;stroke-width:1.14680696;stroke-linecap:butt;stroke-linejoin:miter;stroke-miterlimit:4;stroke-dasharray:none;stroke-opacity:1"
           id="path2658" />
      </g>
      <path
         d="m 3681.863,1296.736 16.977,-1.406 -6.031,-17.203 -16.981,1.406 z"
         style="fill:#005089;fill-opacity:0.20888899;fill-rule:nonzero;stroke:none"
         id="path2660" />
      <g
         id="g2662"
         transform="matrix(0.986945,-0.0816616,-0.350631,-1,0,1984.252)">
        <path
           d="m 3862.755,372.077 17.201,10e-4 10e-4,17.203 -17.205,-0.001 v -17.203 z"
           style="fill:none;stroke:#373737;stroke-width:1.14680696;stroke-linecap:butt;stroke-linejoin:miter;stroke-miterlimit:4;stroke-dasharray:none;stroke-opacity:1"
           id="path2664" />
      </g>
    </g>
  </g>
</svg>
