<?xml version="1.0" encoding="UTF-8" standalone="no"?>
<svg
   xmlns:dc="http://purl.org/dc/elements/1.1/"
   xmlns:cc="http://creativecommons.org/ns#"
   xmlns:rdf="http://www.w3.org/1999/02/22-rdf-syntax-ns#"
   xmlns:svg="http://www.w3.org/2000/svg"
   xmlns="http://www.w3.org/2000/svg"
   version="1.2"
   id="svg161"
   width="649.25195"
   height="469.0029">
  <metadata
     id="metadata165">
    <rdf:RDF>
      <cc:Work
         rdf:about="">
        <dc:format>image/svg+xml</dc:format>
        <dc:type
           rdf:resource="http://purl.org/dc/dcmitype/StillImage" />
        <dc:title>pyqtgraph SVG export</dc:title>
      </cc:Work>
    </rdf:RDF>
  </metadata>
  <title
     id="title2">pyqtgraph SVG export</title>
  <desc
     id="desc4">Generated with Qt and pyqtgraph</desc>
  <defs
     id="defs6" />
  <polyline
     style="font-style:normal;font-weight:400;font-size:medium;font-family:Sans;vector-effect:non-scaling-stroke;fill:none;fill-rule:evenodd;stroke:#969696;stroke-width:1;stroke-linecap:square;stroke-linejoin:bevel;stroke-opacity:1"
     id="polyline8"
     points="55.2,449.8 678.0,449.8"
     transform="translate(-29.748047,-0.5)" />
  <polyline
     style="font-style:normal;font-weight:400;font-size:medium;font-family:Sans;vector-effect:non-scaling-stroke;fill:none;fill-rule:evenodd;stroke:#969696;stroke-width:1;stroke-linecap:square;stroke-linejoin:bevel;stroke-opacity:0.49803904"
     id="polyline12"
     points="79.3099,1.0 79.3099,449.8"
     transform="translate(-29.748047,-0.5)" />
  <polyline
     style="font-style:normal;font-weight:400;font-size:medium;font-family:Sans;vector-effect:non-scaling-stroke;fill:none;fill-rule:evenodd;stroke:#969696;stroke-width:1;stroke-linecap:square;stroke-linejoin:bevel;stroke-opacity:0.49803904"
     id="polyline14"
     points="667.698,1.0 667.698,449.8"
     transform="translate(-29.748047,-0.5)" />
  <polyline
     style="font-style:normal;font-weight:400;font-size:medium;font-family:Sans;vector-effect:non-scaling-stroke;fill:none;fill-rule:evenodd;stroke:#969696;stroke-width:1;stroke-linecap:square;stroke-linejoin:bevel;stroke-opacity:0.247059"
     id="polyline18"
     points="196.988,1.0 196.988,449.8"
     transform="translate(-29.748047,-0.5)" />
  <polyline
     style="font-style:normal;font-weight:400;font-size:medium;font-family:Sans;vector-effect:non-scaling-stroke;fill:none;fill-rule:evenodd;stroke:#969696;stroke-width:1;stroke-linecap:square;stroke-linejoin:bevel;stroke-opacity:0.247059"
     id="polyline20"
     points="314.665,1.0 314.665,449.8"
     transform="translate(-29.748047,-0.5)" />
  <polyline
     style="font-style:normal;font-weight:400;font-size:medium;font-family:Sans;vector-effect:non-scaling-stroke;fill:none;fill-rule:evenodd;stroke:#969696;stroke-width:1;stroke-linecap:square;stroke-linejoin:bevel;stroke-opacity:0.247059"
     id="polyline22"
     points="432.343,1.0 432.343,449.8"
     transform="translate(-29.748047,-0.5)" />
  <polyline
     style="font-style:normal;font-weight:400;font-size:medium;font-family:Sans;vector-effect:non-scaling-stroke;fill:none;fill-rule:evenodd;stroke:#969696;stroke-width:1;stroke-linecap:square;stroke-linejoin:bevel;stroke-opacity:0.247059"
     id="polyline24"
     points="550.021,1.0 550.021,449.8"
     transform="translate(-29.748047,-0.5)" />
  <text
     font-size="12.9167"
     font-style="normal"
     font-weight="400"
     x="290.45197"
     xml:space="preserve"
     y="467.30002"
     id="text64"
     style="font-style:normal;font-weight:400;font-size:12.91670036px;font-family:Sans, sans-serif;fill:#969696;fill-opacity:1;fill-rule:evenodd;stroke:none;stroke-width:1;stroke-linecap:square;stroke-linejoin:bevel;stroke-opacity:1">Distance (km)</text>
  <polyline
     style="font-style:normal;font-weight:400;font-size:medium;font-family:Sans;vector-effect:non-scaling-stroke;fill:none;fill-rule:evenodd;stroke:#969696;stroke-width:1;stroke-linecap:square;stroke-linejoin:bevel;stroke-opacity:1"
     id="polyline70"
     points="55.2,1.0 55.2,449.8"
     transform="translate(-29.748047,-0.5)" />
  <polyline
     style="font-style:normal;font-weight:400;font-size:medium;font-family:Sans;vector-effect:non-scaling-stroke;fill:none;fill-rule:evenodd;stroke:#969696;stroke-width:1;stroke-linecap:square;stroke-linejoin:bevel;stroke-opacity:0.49803904"
     id="polyline74"
     points="678.5,417.004 55.7,417.004"
     transform="translate(-29.748047,-0.5)" />
  <polyline
     style="font-style:normal;font-weight:400;font-size:medium;font-family:Sans;vector-effect:non-scaling-stroke;fill:none;fill-rule:evenodd;stroke:#969696;stroke-width:1;stroke-linecap:square;stroke-linejoin:bevel;stroke-opacity:0.49803904"
     id="polyline76"
     points="678.5,232.852 55.7,232.852"
     transform="translate(-29.748047,-0.5)" />
  <polyline
     style="font-style:normal;font-weight:400;font-size:medium;font-family:Sans;vector-effect:non-scaling-stroke;fill:none;fill-rule:evenodd;stroke:#969696;stroke-width:1;stroke-linecap:square;stroke-linejoin:bevel;stroke-opacity:0.49803904"
     id="polyline78"
     points="678.5,48.7013 55.7,48.7013"
     transform="translate(-29.748047,-0.5)" />
  <polyline
     style="font-style:normal;font-weight:400;font-size:medium;font-family:Sans;vector-effect:non-scaling-stroke;fill:none;fill-rule:evenodd;stroke:#969696;stroke-width:1;stroke-linecap:square;stroke-linejoin:bevel;stroke-opacity:0.247059"
     id="polyline82"
     points="678.5,324.928 55.7,324.928"
     transform="translate(-29.748047,-0.5)" />
  <polyline
     style="font-style:normal;font-weight:400;font-size:medium;font-family:Sans;vector-effect:non-scaling-stroke;fill:none;fill-rule:evenodd;stroke:#969696;stroke-width:1;stroke-linecap:square;stroke-linejoin:bevel;stroke-opacity:0.247059"
     id="polyline84"
     points="678.5,140.777 55.7,140.777"
     transform="translate(-29.748047,-0.5)" />
  <text
     font-size="12.9167"
     font-style="normal"
     font-weight="400"
     x="-306.5"
     xml:space="preserve"
     y="10.251953"
     id="text100"
     style="font-style:normal;font-weight:400;font-size:12.91670036px;font-family:Sans, sans-serif;fill:#969696;fill-opacity:1;fill-rule:evenodd;stroke:none;stroke-width:1;stroke-linecap:square;stroke-linejoin:bevel;stroke-opacity:1"
     transform="rotate(-90)">Covariance (m</text>
  <text
     font-size="7.75"
     font-style="normal"
     font-weight="400"
     x="-211.5"
     xml:space="preserve"
     y="5.7519531"
     id="text102"
     style="font-style:normal;font-weight:400;font-size:7.75px;font-family:Sans, sans-serif;fill:#969696;fill-opacity:1;fill-rule:evenodd;stroke:none;stroke-width:1;stroke-linecap:square;stroke-linejoin:bevel;stroke-opacity:1"
     transform="rotate(-90)">2</text>
  <text
     font-size="12.9167"
     font-style="normal"
     font-weight="400"
     x="-206.5"
     xml:space="preserve"
     y="10.251953"
     id="text104"
     style="font-style:normal;font-weight:400;font-size:12.91670036px;font-family:Sans, sans-serif;fill:#969696;fill-opacity:1;fill-rule:evenodd;stroke:none;stroke-width:1;stroke-linecap:square;stroke-linejoin:bevel;stroke-opacity:1"
     transform="rotate(-90)">)</text>
  <path
     style="font-style:normal;font-weight:400;font-size:medium;font-family:Sans;vector-effect:non-scaling-stroke;fill:none;fill-rule:evenodd;stroke:none;stroke-width:1;stroke-linecap:square;stroke-linejoin:bevel"
     id="path110"
     d="M 25.451953,0.5 H 648.25195 V 449.3 H 25.451953 V 0.5" />
  <g
     style="fill:none;fill-rule:evenodd;stroke:#000000;stroke-width:3;stroke-linecap:square;stroke-linejoin:bevel;stroke-miterlimit:4;stroke-dasharray:24,3;stroke-dashoffset:0"
     id="PlotCurveItem_1"
     transform="translate(-29.748047,-0.5)">
    <g
       style="font-style:normal;font-weight:400;font-size:12.91670036px;font-family:Sans;fill:none;stroke:#cc0000;stroke-width:3;stroke-linecap:square;stroke-linejoin:bevel;stroke-dasharray:24,3;stroke-dashoffset:0;stroke-opacity:1;stroke-miterlimit:4"
       id="g130"
       font-weight="400"
       font-style="normal"
       font-size="12.9167">
      <path
         style="vector-effect:non-scaling-stroke;fill-rule:evenodd;stroke-width:3;stroke-miterlimit:4;stroke-dasharray:24,3;stroke-dashoffset:0"
         id="path128"
         d="m 79.931885,30.222948 1.121992,7.219648 1.121985,7.085217 1.121991,6.952629 1.121985,6.822802 1.121986,6.694816 1.121997,6.570515 1.121997,6.448055 1.121997,6.327435 1.121938,6.209578 1.121997,6.092643 1.121997,5.980314 1.121997,5.86797 1.121997,5.75841 1.121997,5.65068 1.121998,5.54571 1.121938,5.44259 1.121997,5.34039 1.121999,5.24094 1.122,5.14242 1.12199,5.04759 1.122,4.95274 1.12194,4.85975 1.12199,4.76952 1.122,4.68112 1.122,4.59274 1.122,4.50802 1.12199,4.42331 1.122,4.34044 1.12194,4.25942 1.122,4.18115 1.12199,4.10197 1.122,4.02555 1.122,3.95004 1.12199,3.8773 1.12194,3.80457 1.122,3.73274 1.122,3.66369 1.12199,3.59555 1.122,3.52834 1.122,3.46204 1.12199,3.39759 1.12194,3.33498 1.122,3.27145 1.122,3.21159 1.12199,3.15083 1.122,3.0919 1.122,3.03481 1.12194,2.97772 1.12199,2.92248 1.122,2.86816 1.122,2.81383 1.12205,2.76135 1.12206,2.7107 1.12206,2.65915 1.12205,2.61034 1.12147,2.56062 1.12205,2.51366 1.12206,2.46671 1.12206,2.42067 1.12205,2.37463 1.12206,2.33135 1.12205,2.28716 1.12206,2.2448 1.12147,2.20245 1.12205,2.16194 1.12206,2.12142 1.12206,2.08183 1.12205,2.04315 1.12206,2.00449 1.12205,1.96766 1.12206,1.9299 1.12205,1.89492 1.12147,1.859 1.12206,1.82494 1.12205,1.78995 1.12206,1.75772 1.12206,1.72394 1.12205,1.69207 1.12206,1.66049 1.12205,1.62946 1.12206,1.59908 1.12147,1.56915 1.12205,1.53997 1.12206,1.51123 1.12205,1.48297 1.12206,1.45526 1.12206,1.42818 1.12205,1.40148 1.12206,1.37525 1.12147,1.34964 1.12205,1.32451 1.12206,1.29974 1.12205,1.27543 1.12206,1.25167 1.12206,1.22829 1.12205,1.20536 1.12206,1.1829 1.12205,1.1608 1.12147,1.13916 1.12206,1.11789 1.12205,1.09698 1.12206,1.07655 1.12205,1.05639 1.12206,1.03667 1.12206,1.01744 1.12205,0.99838 1.12206,0.97968 1.12147,0.96145 1.12205,0.9435 1.12206,0.92591 1.12205,0.90861 1.12206,0.89166 1.12206,0.87499 1.12205,0.8587 1.12206,0.84258 1.12146,0.82693 1.12206,0.81146 1.12206,0.79637 1.12205,0.78144 1.12206,0.7669 1.12205,0.75263 1.12206,0.73844 1.12206,0.72482 1.12205,0.71119 1.12147,0.69794 1.12206,0.68485 1.12205,0.67216 1.12206,0.65953 1.12205,0.6473 1.12206,0.63523 1.12206,0.62325 1.12205,0.61176 1.12206,0.60024 1.12146,0.5891 1.12206,0.57805 1.12206,0.56727 1.12205,0.55669 1.12206,0.54629 1.12205,0.53615 1.12206,0.52612 1.12206,0.51627 1.12146,0.5066 1.12206,0.49721 1.12206,0.48791 1.12205,0.47879 1.12206,0.46986 1.12205,0.46112 1.12206,0.45246 1.12205,0.44408 1.12206,0.4357 1.12147,0.42769 1.12205,0.41959 1.12206,0.41176 1.12206,0.40412 1.12205,0.39666 1.12206,0.38911 1.12205,0.38193 1.12206,0.37475 1.12206,0.36784 1.12146,0.36085 1.12206,0.35421 1.12205,0.34759 1.12206,0.34105 1.12206,0.33469 1.12205,0.32853 1.12206,0.32235 1.12205,0.31628 1.12147,0.31039 1.12206,0.30468 1.12205,0.29888 1.12206,0.29344 1.12206,0.28783 1.12205,0.28249 1.12206,0.27724 1.12205,0.27208 1.12206,0.26702 1.12147,0.26195 1.12205,0.25708 1.12206,0.25238 1.12205,0.24759 1.12206,0.24299 1.12206,0.23838 1.12205,0.23397 1.12206,0.22963 1.12205,0.2254 1.12147,0.22108 1.12206,0.21702 1.12205,0.21297 1.12206,0.20901 1.12206,0.20505 1.12205,0.20128 1.12206,0.19741 1.12205,0.19382 1.12147,0.19023 1.12206,0.18664 1.12205,0.18313 1.12206,0.17974 1.12205,0.17641 1.12206,0.17307 1.12206,0.16986 1.12205,0.16668 1.12206,0.16358 1.12147,0.16053 1.12205,0.15752 1.12206,0.15459 1.12205,0.1517 1.12206,0.14887 1.12206,0.1461 1.12205,0.14336 1.12206,0.14069 1.12205,0.13806 1.12147,0.13549 1.12206,0.13295 1.12205,0.13047 1.12206,0.12804 1.12205,0.12565 1.12206,0.12331 1.12206,0.121 1.12205,0.11875 1.12147,0.11652 1.12206,0.11435 1.12205,0.11222 1.12206,0.11012 1.12205,0.10807 1.12206,0.10605 1.12205,0.10407 1.12206,0.10213 1.12206,0.10022 1.12146,0.0984 1.12206,0.0965 1.12206,0.0947 1.12205,0.0929 1.12206,0.0912 1.12205,0.0895 1.12206,0.0879 1.12206,0.0862 1.12205,0.0846 1.12147,0.083 1.12205,0.0815 1.12206,0.0799 1.12206,0.0784 1.12205,0.077 1.12206,0.0755 1.12205,0.0741 1.12206,0.0728 1.12147,0.0714 1.12205,0.0701 1.12206,0.0688 1.12206,0.0675 1.12205,0.0662 1.12206,0.065 1.12205,0.0638 1.12206,0.0626 1.12206,0.0614 1.12146,0.0603 1.12206,0.0591 1.12205,0.058 1.12206,0.057 1.12206,0.0559 1.12205,0.0548 1.12206,0.0538 1.12205,0.0528 1.12206,0.0518 1.12147,0.0509 1.12205,0.0499 1.12206,0.049 1.12206,0.0481 1.12205,0.0472 1.12206,0.0463 1.12205,0.0454 1.12206,0.0446 1.12147,0.0438 1.12205,0.0429 1.12206,0.0421 1.12205,0.0413 1.12206,0.0406 1.12206,0.0398 1.12205,0.0391 1.12206,0.0383 1.12205,0.0376 1.12147,0.0369 1.12206,0.0362 1.12205,0.0356 1.12206,0.0349 1.12206,0.0342 1.12205,0.0336 1.12206,0.033 1.12205,0.0324 1.12206,0.0318 1.12147,0.0312 1.12205,0.0306 1.12206,0.03 1.12205,0.0295 1.12206,0.0289 1.12206,0.0284 1.12205,0.0278 1.12206,0.0273 1.12147,0.0268 1.12205,0.0263 1.12206,0.0258 1.12205,0.0253 1.12206,0.0249 1.12205,0.0244 1.12206,0.0239 1.12206,0.0235 1.12205,0.0231 1.12147,0.0226 1.12206,0.0222 1.12205,0.0218 1.12206,0.0214 1.12205,0.021 1.12206,0.0206 1.12206,0.0202 1.12205,0.0198 1.12206,0.0195 1.12147,0.0191 1.12205,0.0187 1.12206,0.0184 1.12205,0.018 1.12206,0.0177 1.12205,0.0174 1.12206,0.017 1.12206,0.0167 1.12146,0.0164 1.12206,0.0161 1.12206,0.0158 1.12205,0.0155 1.12206,0.0152 1.12205,0.0149 1.12206,0.0147 1.12206,0.0144 1.12205,0.0141 1.12147,0.0139 1.12205,0.0136 1.12206,0.0134 1.12206,0.0131 1.12205,0.0129 1.12206,0.0126 1.12205,0.0124 1.12206,0.0121 1.12206,0.0119 1.12146,0.0117 1.12206,0.0115 1.12206,0.0113 1.12205,0.0111 1.12206,0.0109 1.12205,0.0106 1.12206,0.0104 1.12206,0.0102 1.12146,0.0101 1.12206,0.01 1.12205,0.01 1.12206,0.01 1.12206,0.009 1.12205,0.009 1.12206,0.009 1.12205,0.009 1.12206,0.009 1.12147,0.008 1.12205,0.008 1.12206,0.008 1.12206,0.008 1.12205,0.008 1.12206,0.008 1.12205,0.008 1.12206,0.007 1.12205,0.007 1.12147,0.007 1.12206,0.007 1.12205,0.007 1.12206,0.007 1.12206,0.007 1.12205,0.007 1.12206,0.006 1.12205,0.006 1.12147,0.006 1.12206,0.006 1.12205,0.006 1.12206,0.006 1.12205,0.006 1.12206,0.006 1.12206,0.005 1.12205,0.005 1.12206,0.005 1.12147,0.005 1.12205,0.005 1.12206,0.005 1.12205,0.005 1.12206,0.005 1.12206,0.005 1.12205,0.005 1.12206,0.005 1.12205,0.004 1.12147,0.004 1.12206,0.004 1.12205,0.004 1.12206,0.004 1.12205,0.004 1.12206,0.004 1.12206,0.004 1.12205,0.004 1.12147,0.004 1.12206,0.004 1.12205,0.004 1.12206,0.004 1.12205,0.004 1.12206,0.003 1.12206,0.003 1.12205,0.003 1.12206,0.003 1.12146,0.003 1.12206,0.003 1.12206,0.003 1.12205,0.003 1.12206,0.003 1.12205,0.003 1.12206,0.003 1.12206,0.003 1.12205,0.003 1.12147,0.003 1.12206,0.003 1.12205,0.003 1.12206,0.003 1.12205,0.002 1.12206,0.002 1.12206,0.002 1.12205,0.002 1.12147,0.002 1.12205,0.002 1.12206,0.002 1.12206,0.002 1.12205,0.002 1.12206,0.002 1.12205,0.002 1.12206,0.002 1.12206,0.002 1.12146,0.002 1.12206,0.002 1.12206,0.002 1.12205,0.002 1.12206,0.002 1.12205,0.002 1.12206,0.002 1.12205,0.002 1.12147,0.002 1.12206,0.002 1.12205,0.002 1.12206,0.002 1.12206,0.002 1.12205,0.002 1.12206,0.002 1.12205,10e-4 1.12206,0.001 1.12147,10e-4 1.12205,10e-4 1.12206,0.001 1.12205,10e-4 1.12206,0.001 1.12206,10e-4 1.12205,0.001 1.12206,10e-4 1.12205,10e-4 1.12147,0.001 1.12206,10e-4 1.12205,0.001 1.12206,10e-4 1.12206,10e-4 1.12205,0.001 1.12206,10e-4 1.12205,0.001 1.12147,10e-4 1.12206,0.001 1.12205,9.9e-4 1.12206,9.8e-4 1.12205,9.5e-4 1.12206,9.4e-4 1.12206,9.2e-4 1.12205,9e-4 1.12206,8.8e-4 1.12147,8.7e-4 1.12205,8.5e-4 1.12206,8.4e-4 1.12205,8.2e-4 1.12206,8.1e-4 1.12206,7.9e-4 1.12205,7.7e-4 1.12206,7.6e-4 1.12205,7.5e-4 1.12147,7.4e-4 1.12206,7.1e-4 1.12205,7.1e-4 1.12206,6.9e-4 1.12205,6.8e-4 1.12206,6.7e-4 1.12206,6.6e-4 1.12205,6.4e-4 1.12147,6.3e-4 1.12206,6.2e-4 1.12205,6e-4 1.12206,6e-4 1.12205,5.9e-4 1.12206,5.7e-4 1.12206,5.6e-4 1.12205,5.5e-4 1.12206,5.5e-4 1.12146,5.3e-4 1.12206,5.2e-4 1.12206,5.1e-4 1.12205,5.1e-4 1.12206,4.9e-4 1.12205,4.9e-4" />
    </g>
  </g>
  <g
     style="fill:none;fill-rule:evenodd;stroke:#000000;stroke-width:3;stroke-linecap:square;stroke-linejoin:bevel;fill-opacity:1;stroke-miterlimit:4;stroke-dasharray:none"
     id="PlotCurveItem_2"
     transform="translate(-29.748047,-0.5)">
    <g
       style="font-style:normal;font-weight:400;font-size:12.91670036px;font-family:Sans;fill:none;stroke:#c8c8c8;stroke-width:3;stroke-linecap:square;stroke-linejoin:bevel;stroke-opacity:1;fill-opacity:1;stroke-miterlimit:4;stroke-dasharray:none"
       id="g136"
       font-weight="400"
       font-style="normal"
       font-size="12.9167">
      <path
         style="vector-effect:non-scaling-stroke;fill-rule:evenodd;fill:none;fill-opacity:1;stroke-width:3;stroke-miterlimit:4;stroke-dasharray:none"
         id="path134"
         d="m 79.931885,86.935993 1.121992,2.083671 1.121985,3.595552 1.121991,2.720834 1.121985,2.346086 1.121986,2.524714 1.121997,2.68308 1.121997,2.81752 1.121997,2.93997 1.121938,3.02929 1.121997,3.10294 1.121997,3.16188 1.121997,3.21252 1.121997,3.22356 1.121997,3.22541 1.121998,3.23186 1.121938,3.2254 1.121997,3.23186 1.121999,3.25671 1.122,3.29447 1.12199,3.31012 1.122,3.28341 1.12194,3.21712 1.12199,3.16556 1.122,3.17661 1.122,3.19134 1.122,3.16556 1.12199,3.114 1.122,3.07808 1.12194,3.07993 1.122,3.08638 1.12199,3.05506 1.122,2.99891 1.122,2.92892 1.12199,2.89026 1.12194,2.90866 1.122,2.89118 1.122,2.7991 1.12199,2.71899 1.122,2.69413 1.122,2.68492 1.12199,2.64165 1.12194,2.59193 1.122,2.59653 1.122,2.6481 1.12199,2.67203 1.122,2.64349 1.122,2.60022 1.12194,2.60113 1.12199,2.65362 1.122,2.70518 1.122,2.71255 1.12205,2.68677 1.12206,2.69044 1.12206,2.73005 1.12205,2.76871 1.12147,2.75674 1.12205,2.7236 1.12206,2.76319 1.12206,2.83593 1.12205,2.88288 1.12206,2.88934 1.12205,2.85342 1.12206,2.82488 1.12147,2.81935 1.12205,2.81475 1.12206,2.80463 1.12206,2.80278 1.12205,2.80002 1.12206,2.78805 1.12205,2.76134 1.12206,2.68493 1.12205,2.63428 1.12147,2.65822 1.12206,2.69506 1.12205,2.71254 1.12206,2.68861 1.12206,2.62692 1.12205,2.57351 1.12206,2.52471 1.12205,2.45474 1.12206,2.42803 1.12147,2.44277 1.12205,2.4354 1.12206,2.40326 1.12205,2.36607 1.12206,2.38043 1.12206,2.42361 1.12205,2.45308 1.12206,2.47813 1.12147,2.47803 1.12205,2.46366 1.12206,2.47371 1.12205,2.49478 1.12206,2.52803 1.12206,2.52637 1.12205,2.46349 1.12206,2.39433 1.12205,2.33485 1.12147,2.28587 1.12206,2.24747 1.12205,2.20724 1.12206,2.16286 1.12205,2.12777 1.12206,2.09564 1.12206,2.06774 1.12205,2.07042 1.12206,2.07335 1.12147,2.03847 1.12205,1.99933 1.12206,1.97106 1.12205,1.94104 1.12206,1.94298 1.12206,1.96904 1.12205,1.97465 1.12206,1.97024 1.12146,1.94924 1.12206,1.93644 1.12206,1.9195 1.12205,1.84575 1.12206,1.75339 1.12205,1.66418 1.12206,1.56381 1.12206,1.46549 1.12205,1.38709 1.12147,1.32459 1.12206,1.25469 1.12205,1.1769 1.12206,1.11585 1.12205,1.06838 1.12206,1.02066 1.12206,0.98175 1.12205,0.95506 1.12206,0.91137 1.12146,0.85755 1.12206,0.79005 1.12206,0.69499 1.12205,0.60457 1.12206,0.54028 1.12205,0.5103 1.12206,0.50524 1.12206,0.48873 1.12146,0.44137 1.12206,0.39923 1.12206,0.38136 1.12205,0.352 1.12206,0.30496 1.12205,0.2672 1.12206,0.25404 1.12205,0.2521 1.12206,0.23074 1.12147,0.20533 1.12205,0.21297 1.12206,0.22172 1.12206,0.19372 1.12205,0.15294 1.12206,0.13139 1.12205,0.13664 1.12206,0.15349 1.12206,0.14512 1.12146,0.11997 1.12206,0.10487 1.12205,0.0752 1.12206,0.0367 1.12206,0.019 1.12205,0.008 1.12206,-0.0153 1.12205,-0.0438 1.12147,-0.0608 1.12206,-0.0886 1.12205,-0.14308 1.12206,-0.1825 1.12206,-0.1801 1.12205,-0.17282 1.12206,-0.17762 1.12205,-0.17457 1.12206,-0.16233 1.12147,-0.15975 1.12205,-0.1708 1.12206,-0.18314 1.12205,-0.19511 1.12206,-0.20745 1.12206,-0.22015 1.12205,-0.22954 1.12206,-0.22835 1.12205,-0.22614 1.12147,-0.23212 1.12206,-0.24219 1.12205,-0.2477 1.12206,-0.24351 1.12206,-0.2324 1.12205,-0.22688 1.12206,-0.22793 1.12205,-0.23043 1.12147,-0.23799 1.12206,-0.23191 1.12205,-0.20117 1.12206,-0.16863 1.12205,-0.14286 1.12206,-0.11896 1.12206,-0.0904 1.12205,-0.0696 1.12206,-0.0655 1.12147,-0.0615 1.12205,-0.0431 1.12206,-0.0214 1.12205,-0.014 1.12206,-0.0101 1.12206,0.009 1.12205,0.0263 1.12206,0.0348 1.12205,0.0382 1.12147,0.0362 1.12206,0.0348 1.12205,0.0253 1.12206,0.0119 1.12205,0.0116 1.12206,0.0234 1.12206,0.0328 1.12205,0.039 1.12147,0.0485 1.12206,0.0614 1.12205,0.0699 1.12206,0.0689 1.12205,0.0745 1.12206,0.0808 1.12205,0.0807 1.12206,0.0813 1.12206,0.0797 1.12146,0.08 1.12206,0.0864 1.12206,0.0891 1.12205,0.0879 1.12206,0.0943 1.12205,0.10298 1.12206,0.10737 1.12206,0.10925 1.12205,0.11481 1.12147,0.11906 1.12205,0.11807 1.12206,0.11412 1.12206,0.11164 1.12205,0.11614 1.12206,0.12385 1.12205,0.12986 1.12206,0.12639 1.12147,0.11035 1.12205,0.10235 1.12206,0.108 1.12206,0.10902 1.12205,0.099 1.12206,0.0928 1.12205,0.0889 1.12206,0.0742 1.12206,0.0634 1.12146,0.0652 1.12206,0.0688 1.12205,0.0662 1.12206,0.0594 1.12206,0.0617 1.12205,0.0623 1.12206,0.0553 1.12205,0.0545 1.12206,0.0591 1.12147,0.0639 1.12205,0.0657 1.12206,0.0634 1.12206,0.0584 1.12205,0.0548 1.12206,0.0477 1.12205,0.0395 1.12206,0.0318 1.12147,0.0257 1.12205,0.0235 1.12206,0.0268 1.12205,0.029 1.12206,0.0156 1.12206,0.007 1.12205,0.0113 1.12206,0.008 1.12205,0.001 1.12147,-0.004 1.12206,-0.009 1.12205,-0.0102 1.12206,-0.012 1.12206,-0.0189 1.12205,-0.0265 1.12206,-0.0392 1.12205,-0.052 1.12206,-0.0613 1.12147,-0.0711 1.12205,-0.0758 1.12206,-0.0752 1.12205,-0.0772 1.12206,-0.0795 1.12206,-0.0836 1.12205,-0.089 1.12206,-0.0923 1.12147,-0.0962 1.12205,-0.10248 1.12206,-0.10533 1.12205,-0.10377 1.12206,-0.10239 1.12205,-0.10819 1.12206,-0.11951 1.12206,-0.12412 1.12205,-0.11588 1.12147,-0.11173 1.12206,-0.11179 1.12205,-0.10115 1.12206,-0.0934 1.12205,-0.096 1.12206,-0.10179 1.12206,-0.10179 1.12205,-0.095 1.12206,-0.0947 1.12147,-0.10404 1.12205,-0.10651 1.12206,-0.0985 1.12205,-0.0944 1.12206,-0.0955 1.12205,-0.10111 1.12206,-0.10409 1.12206,-0.10243 1.12146,-0.099 1.12206,-0.0918 1.12206,-0.0893 1.12205,-0.0929 1.12206,-0.0965 1.12205,-0.0946 1.12206,-0.0912 1.12206,-0.0862 1.12205,-0.0771 1.12147,-0.0691 1.12205,-0.0627 1.12206,-0.0611 1.12206,-0.0595 1.12205,-0.0541 1.12206,-0.0549 1.12205,-0.0605 1.12206,-0.0598 1.12206,-0.0622 1.12146,-0.0695 1.12206,-0.0726 1.12206,-0.0739 1.12205,-0.0746 1.12206,-0.0707 1.12205,-0.067 1.12206,-0.0733 1.12206,-0.0768 1.12146,-0.0725 1.12206,-0.0702 1.12205,-0.0695 1.12206,-0.0665 1.12206,-0.0651 1.12205,-0.0629 1.12206,-0.0576 1.12205,-0.0532 1.12206,-0.0525 1.12147,-0.0551 1.12205,-0.0574 1.12206,-0.0605 1.12206,-0.0639 1.12205,-0.0637 1.12206,-0.0669 1.12205,-0.0697 1.12206,-0.0651 1.12205,-0.0637 1.12147,-0.0711 1.12206,-0.0795 1.12205,-0.0783 1.12206,-0.0729 1.12206,-0.0748 1.12205,-0.0815 1.12206,-0.0822 1.12205,-0.0742 1.12147,-0.0691 1.12206,-0.0676 1.12205,-0.0625 1.12206,-0.0597 1.12205,-0.0675 1.12206,-0.0713 1.12206,-0.0688 1.12205,-0.0683 1.12206,-0.0666 1.12147,-0.069 1.12205,-0.0781 1.12206,-0.0845 1.12205,-0.0799 1.12206,-0.072 1.12206,-0.0709 1.12205,-0.0681 1.12206,-0.0644 1.12205,-0.0705 1.12147,-0.0789 1.12206,-0.0802 1.12205,-0.0789 1.12206,-0.0792 1.12205,-0.0854 1.12206,-0.0898 1.12206,-0.0847 1.12205,-0.0785 1.12147,-0.0756 1.12206,-0.0765 1.12205,-0.0789 1.12206,-0.0776 1.12205,-0.0704 1.12206,-0.0634 1.12206,-0.0633 1.12205,-0.0641 1.12206,-0.0644 1.12146,-0.0674 1.12206,-0.0626 1.12206,-0.0557 1.12205,-0.0529 1.12206,-0.0534 1.12205,-0.061 1.12206,-0.0644 1.12206,-0.0551 1.12205,-0.0467 1.12147,-0.0525 1.12206,-0.0611 1.12205,-0.0572 1.12206,-0.0495 1.12205,-0.0537 1.12206,-0.0598 1.12206,-0.057 1.12205,-0.0531 1.12147,-0.0501 1.12205,-0.049 1.12206,-0.0448 1.12206,-0.037 1.12205,-0.0336 1.12206,-0.0359 1.12205,-0.0408 1.12206,-0.0415 1.12206,-0.0367 1.12146,-0.0282 1.12206,-0.0164 1.12206,-0.01 1.12205,-0.008 1.12206,-0.01 1.12205,-0.0132 1.12206,-0.01 1.12205,-0.004 1.12147,-0.004 1.12206,-0.002 1.12205,0.005 1.12206,0.0137 1.12206,0.011 1.12205,0.005 1.12206,0.005 1.12205,0.006 1.12206,0.008 1.12147,0.005 1.12205,-0.006 1.12206,-0.005 1.12205,0.002 1.12206,0.006 1.12206,0.008 1.12205,0.008 1.12206,0.009 1.12205,0.01 1.12147,0.006 1.12206,0.009 1.12205,0.0134 1.12206,0.0117 1.12206,0.014 1.12205,0.0159 1.12206,0.0154 1.12205,0.0147 1.12147,0.0148 1.12206,0.0236 1.12205,0.0305 1.12206,0.0221 1.12205,0.0104 1.12206,0.008 1.12206,0.01 1.12205,0.008 1.12206,0.007 1.12147,0.008 1.12205,0.01 1.12206,0.009 1.12205,0.0102 1.12206,0.009 1.12206,0.003 1.12205,-0.003 1.12206,-0.003 1.12205,-6.3e-4 1.12147,-0.002 1.12206,-0.005 1.12205,-0.01 1.12206,-0.0149 1.12205,-0.0133 1.12206,-0.0107 1.12206,-0.01 1.12205,-0.004 1.12147,4e-5 1.12206,0.002 1.12205,2.7e-4 1.12206,-10e-4 1.12205,0.002 1.12206,0.006 1.12206,0.005 1.12205,-0.003 1.12206,-0.008 1.12146,-0.006 1.12206,-0.008 1.12206,-0.0146 1.12205,-0.011 1.12206,-0.003 1.12205,-6.9e-4" />
    </g>
  </g>
</svg>
